<svg width="440" height="72" viewBox="0 0 440 72" fill="none" xmlns="http://www.w3.org/2000/svg">
<path opacity="0.5" d="M28.9365 18.3567C29.7398 13.5345 33.9119 10 38.8005 10H408.196C414.375 10 419.076 15.5482 418.06 21.6433L411.064 63.6433C410.26 68.4655 406.088 72 401.199 72H31.8037C25.6246 72 20.9243 66.4518 21.9397 60.3567L28.9365 18.3567Z" fill="#308E61"/>
<path d="M8.93648 8.35673C9.73982 3.53452 13.9119 0 18.8005 0H428.196C434.375 0 439.076 5.54817 438.06 11.6433L431.064 53.6433C430.26 58.4655 426.088 62 421.199 62H11.8037C5.62464 62 0.924274 56.4518 1.93966 50.3567L8.93648 8.35673Z" fill="#308E61"/>
</svg>
