<svg width="40" height="41" viewBox="0 0 40 41" fill="none" xmlns="http://www.w3.org/2000/svg">
<path d="M20 0.288817C17.3736 0.288818 14.7728 0.806133 12.3463 1.81123C9.91982 2.81632 7.71503 4.28951 5.85786 6.14668C4.00069 8.00386 2.5275 10.2086 1.52241 12.6352C0.517314 15.0617 -1.10384e-06 17.6624 -8.74228e-07 20.2888C-6.44617e-07 22.9153 0.517315 25.516 1.52241 27.9425C2.5275 30.369 4.00069 32.5738 5.85787 34.431C7.71504 36.2881 9.91982 37.7613 12.3463 38.7664C14.7728 39.7715 17.3736 40.2888 20 40.2888L20 30.9542C18.5994 30.9542 17.2125 30.6784 15.9185 30.1424C14.6245 29.6064 13.4488 28.8208 12.4584 27.8304C11.468 26.84 10.6824 25.6643 10.1464 24.3703C9.61045 23.0763 9.33458 21.6894 9.33458 20.2888C9.33458 18.8882 9.61045 17.5013 10.1464 16.2073C10.6824 14.9134 11.468 13.7376 12.4584 12.7472C13.4488 11.7569 14.6245 10.9712 15.9185 10.4353C17.2125 9.89927 18.5994 9.6234 20 9.6234L20 0.288817Z" fill="#308E61"/>
<path opacity="0.15" d="M20 -8.74228e-07C31.0457 -1.35705e-06 40 8.9543 40 20C40 31.0457 31.0457 40 20 40C8.9543 40 -3.91405e-07 31.0457 -8.74228e-07 20C-1.35705e-06 8.95431 8.9543 -3.91405e-07 20 -8.74228e-07ZM20 30.6654C25.8903 30.6654 30.6654 25.8903 30.6654 20C30.6654 14.1097 25.8903 9.33458 20 9.33458C14.1097 9.33458 9.33458 14.1097 9.33458 20C9.33458 25.8903 14.1097 30.6654 20 30.6654Z" fill="#308E61"/>
</svg>
