<svg width="40" height="41" viewBox="0 0 40 41" fill="none" xmlns="http://www.w3.org/2000/svg">
<path opacity="0.15" d="M20 -8.74228e-07C31.0457 -1.35705e-06 40 8.9543 40 20C40 31.0457 31.0457 40 20 40C8.9543 40 -3.91405e-07 31.0457 -8.74228e-07 20C-1.35705e-06 8.95431 8.9543 -3.91405e-07 20 -8.74228e-07ZM20 30.6654C25.8903 30.6654 30.6654 25.8903 30.6654 20C30.6654 14.1097 25.8903 9.33458 20 9.33458C14.1097 9.33458 9.33458 14.1097 9.33458 20C9.33458 25.8903 14.1097 30.6654 20 30.6654Z" fill="#308E61"/>
<path d="M20 0.288695C17.3736 0.288696 14.7728 0.806011 12.3463 1.8111C9.91982 2.8162 7.71503 4.28939 5.85786 6.14656C4.00069 8.00373 2.5275 10.2085 1.52241 12.635C0.517314 15.0615 -1.10384e-06 17.6623 -8.74228e-07 20.2887L9.33458 20.2887C9.33458 18.8881 9.61045 17.5012 10.1464 16.2072C10.6824 14.9132 11.468 13.7375 12.4584 12.7471C13.4488 11.7567 14.6245 10.9711 15.9185 10.4351C17.2125 9.89915 18.5994 9.62328 20 9.62328L20 0.288695Z" fill="#308E61"/>
</svg>
