<svg width="153" height="89" viewBox="0 0 153 89" fill="none" xmlns="http://www.w3.org/2000/svg">
<g filter="url(#filter0_d)">
<rect x="20.6304" y="15" width="120.37" height="49" rx="24.5" fill="#EEEEEE"/>
<rect x="21.1304" y="15.5" width="119.37" height="48" rx="24" stroke="white"/>
</g>
<circle cx="74.9564" cy="39.5003" r="18.1087" fill="url(#paint0_linear)"/>
<path d="M83.0225 33.6958C82.0299 32.6193 80.668 32.0264 79.1873 32.0264C78.0805 32.0264 77.0669 32.3763 76.1746 33.0663C75.7243 33.4146 75.3163 33.8407 74.9566 34.3381C74.597 33.8409 74.1889 33.4146 73.7385 33.0663C72.8463 32.3763 71.8327 32.0264 70.7259 32.0264C69.2452 32.0264 67.8831 32.6193 66.8906 33.6958C65.9099 34.7597 65.3696 36.2132 65.3696 37.7887C65.3696 39.4103 65.9739 40.8946 67.2713 42.4602C68.432 43.8606 70.1001 45.2822 72.0318 46.9283C72.6914 47.4905 73.439 48.1277 74.2154 48.8065C74.4205 48.9861 74.6836 49.085 74.9566 49.085C75.2294 49.085 75.4927 48.9861 75.6975 48.8068C76.4739 48.1278 77.222 47.4903 77.8819 46.9279C79.8133 45.282 81.4814 43.8606 82.642 42.46C83.9394 40.8946 84.5435 39.4103 84.5435 37.7885C84.5435 36.2132 84.0033 34.7597 83.0225 33.6958Z" fill="white"/>
<circle cx="45.1302" cy="39.5003" r="18.1087" fill="url(#paint1_linear)" stroke="#EEEEEE" stroke-width="2"/>
<path d="M103.629 43.3574C103.629 41.7298 104.615 40.457 106.588 39.5391C105.702 39.0312 105.064 38.4844 104.674 37.8984C104.283 37.3125 104.088 36.6517 104.088 35.916C104.088 34.8809 104.475 34.0573 105.25 33.4453C106.031 32.8268 107.066 32.5176 108.355 32.5176C109.658 32.5176 110.696 32.8203 111.471 33.4258C112.245 34.0312 112.633 34.8678 112.633 35.9355C112.633 36.6517 112.415 37.293 111.979 37.8594C111.549 38.4258 110.859 38.9531 109.908 39.4414C111.061 40.0013 111.878 40.5872 112.359 41.1992C112.848 41.8047 113.092 42.5046 113.092 43.2988C113.092 44.4837 112.672 45.431 111.832 46.1406C110.992 46.8438 109.853 47.1953 108.414 47.1953C106.891 47.1953 105.712 46.8633 104.879 46.1992C104.046 45.5352 103.629 44.5879 103.629 43.3574ZM105.348 43.377C105.348 44.1322 105.615 44.7246 106.148 45.1543C106.689 45.584 107.431 45.7988 108.375 45.7988C109.306 45.7988 110.038 45.5807 110.572 45.1445C111.106 44.7018 111.373 44.0931 111.373 43.3184C111.373 42.6934 111.119 42.1367 110.611 41.6484C110.104 41.1602 109.251 40.6979 108.053 40.2617C107.109 40.6654 106.422 41.1146 105.992 41.6094C105.562 42.1042 105.348 42.6934 105.348 43.377ZM105.816 36.0039C105.816 36.4141 105.904 36.7754 106.08 37.0879C106.256 37.4004 106.51 37.6803 106.842 37.9277C107.174 38.1751 107.704 38.4518 108.434 38.7578C109.326 38.3867 109.957 37.9798 110.328 37.5371C110.706 37.0944 110.895 36.5833 110.895 36.0039C110.895 35.3529 110.663 34.8483 110.201 34.4902C109.739 34.1257 109.117 33.9434 108.336 33.9434C107.568 33.9434 106.956 34.1257 106.5 34.4902C106.044 34.8548 105.816 35.3594 105.816 36.0039ZM115.201 40.8965C115.201 35.3105 117.379 32.5176 121.734 32.5176C122.49 32.5176 123.079 32.5794 123.502 32.7031V34.1973C123.007 34.041 122.431 33.9629 121.773 33.9629C120.257 33.9629 119.094 34.4251 118.287 35.3496C117.486 36.2741 117.044 37.7389 116.959 39.7441H117.076C117.792 38.6243 118.919 38.0645 120.455 38.0645C121.744 38.0645 122.757 38.4551 123.492 39.2363C124.228 40.0176 124.596 41.0723 124.596 42.4004C124.596 43.8783 124.189 45.0469 123.375 45.9062C122.561 46.7656 121.454 47.1953 120.055 47.1953C119.078 47.1953 118.222 46.9479 117.486 46.4531C116.757 45.9583 116.194 45.2357 115.797 44.2852C115.4 43.3281 115.201 42.1986 115.201 40.8965ZM116.979 42.0586C116.979 42.7096 117.109 43.3216 117.369 43.8945C117.63 44.4609 117.991 44.9069 118.453 45.2324C118.915 45.5579 119.443 45.7207 120.035 45.7207C120.94 45.7207 121.637 45.431 122.125 44.8516C122.613 44.2721 122.857 43.4551 122.857 42.4004C122.857 41.4499 122.62 40.7207 122.145 40.2129C121.669 39.6986 120.986 39.4414 120.094 39.4414C119.527 39.4414 119.007 39.5586 118.531 39.793C118.062 40.0273 117.685 40.3529 117.398 40.7695C117.118 41.1862 116.979 41.6159 116.979 42.0586Z" fill="#000A5A"/>
<g clip-path="url(#clip0)">
<path d="M37.5407 38.3018C36.4398 38.3018 35.5435 39.1981 35.5435 40.299V46.6903C35.5435 47.7912 36.4398 48.6876 37.5407 48.6876H39.9375C40.3873 48.6876 40.8011 48.5358 41.1358 48.2834V38.3018H37.5407Z" fill="white"/>
<path d="M54.7172 41.2975C54.7172 40.8174 54.527 40.37 54.1971 40.04C54.5702 39.6318 54.7603 39.0845 54.7084 38.5149C54.6149 37.4995 53.7001 36.7038 52.6248 36.7038H47.6899C47.9344 35.9616 48.3258 34.6011 48.3258 33.5081C48.3258 31.7753 46.8535 30.3125 45.9291 30.3125C45.0991 30.3125 44.5062 30.7799 44.4807 30.799C44.3864 30.8749 44.3313 30.99 44.3313 31.1114V33.8205L42.0304 38.8049L41.9346 38.8537V47.4164C42.5849 47.7232 43.4077 47.8886 43.9318 47.8886H51.2651C52.1351 47.8886 52.8965 47.3022 53.0754 46.4929C53.1673 46.0766 53.1137 45.6572 52.9308 45.2929C53.5212 44.9957 53.9183 44.3877 53.9183 43.6943C53.9183 43.4115 53.8536 43.1406 53.7305 42.8954C54.3209 42.5982 54.7172 41.9902 54.7172 41.2975Z" fill="white"/>
</g>
<defs>
<filter id="filter0_d" x="0.630371" y="0" width="160.37" height="89" filterUnits="userSpaceOnUse" color-interpolation-filters="sRGB">
<feFlood flood-opacity="0" result="BackgroundImageFix"/>
<feColorMatrix in="SourceAlpha" type="matrix" values="0 0 0 0 0 0 0 0 0 0 0 0 0 0 0 0 0 0 127 0"/>
<feOffset dy="5"/>
<feGaussianBlur stdDeviation="10"/>
<feColorMatrix type="matrix" values="0 0 0 0 0.279167 0 0 0 0 0.279167 0 0 0 0 0.279167 0 0 0 0.2 0"/>
<feBlend mode="normal" in2="BackgroundImageFix" result="effect1_dropShadow"/>
<feBlend mode="normal" in="SourceGraphic" in2="effect1_dropShadow" result="shape"/>
</filter>
<linearGradient id="paint0_linear" x1="74.9564" y1="21.3916" x2="74.9564" y2="57.609" gradientUnits="userSpaceOnUse">
<stop stop-color="#FFB4B4"/>
<stop offset="1" stop-color="#E80000"/>
</linearGradient>
<linearGradient id="paint1_linear" x1="45.1302" y1="21.3916" x2="45.1302" y2="57.609" gradientUnits="userSpaceOnUse">
<stop stop-color="#81D1FF"/>
<stop offset="1" stop-color="#0C24FF"/>
</linearGradient>
<clipPath id="clip0">
<rect width="19.1739" height="19.1739" fill="white" transform="translate(35.5435 29.9131)"/>
</clipPath>
</defs>
</svg>
