<svg width="161" height="89" viewBox="0 0 161 89" fill="none" xmlns="http://www.w3.org/2000/svg">
<g filter="url(#filter0_d)">
<rect x="20.6304" y="15" width="120.37" height="49" rx="24.5" fill="#EEEEEE"/>
<rect x="21.1304" y="15.5" width="119.37" height="48" rx="24" stroke="white"/>
</g>
<circle cx="74.9564" cy="39.5003" r="18.1087" fill="url(#paint0_linear)"/>
<path d="M83.0225 33.6958C82.0299 32.6193 80.668 32.0264 79.1873 32.0264C78.0805 32.0264 77.0669 32.3763 76.1746 33.0663C75.7243 33.4146 75.3163 33.8407 74.9566 34.3381C74.597 33.8409 74.1889 33.4146 73.7385 33.0663C72.8463 32.3763 71.8327 32.0264 70.7259 32.0264C69.2452 32.0264 67.8831 32.6193 66.8906 33.6958C65.9099 34.7597 65.3696 36.2132 65.3696 37.7887C65.3696 39.4103 65.9739 40.8946 67.2713 42.4602C68.432 43.8606 70.1001 45.2822 72.0318 46.9283C72.6914 47.4905 73.439 48.1277 74.2154 48.8065C74.4205 48.9861 74.6836 49.085 74.9566 49.085C75.2294 49.085 75.4927 48.9861 75.6975 48.8068C76.4739 48.1278 77.222 47.4903 77.8819 46.9279C79.8133 45.282 81.4814 43.8606 82.642 42.46C83.9394 40.8946 84.5435 39.4103 84.5435 37.7885C84.5435 36.2132 84.0033 34.7597 83.0225 33.6958Z" fill="white"/>
<circle cx="45.1302" cy="39.5003" r="18.1087" fill="url(#paint1_linear)" stroke="#EEEEEE" stroke-width="2"/>
<path d="M103.648 37.3418C103.648 35.8704 104.062 34.6986 104.889 33.8262C105.715 32.9538 106.822 32.5176 108.209 32.5176C109.186 32.5176 110.038 32.7682 110.768 33.2695C111.503 33.7643 112.066 34.4902 112.457 35.4473C112.854 36.3978 113.053 37.5208 113.053 38.8164C113.053 44.4023 110.865 47.1953 106.49 47.1953C105.735 47.1953 105.136 47.1302 104.693 47V45.4961C105.195 45.6719 105.781 45.7598 106.451 45.7598C107.512 45.7598 108.388 45.5482 109.078 45.125C109.768 44.6953 110.292 44.0736 110.65 43.2598C111.015 42.4395 111.223 41.3522 111.275 39.998H111.148C110.419 41.1048 109.286 41.6582 107.75 41.6582C106.493 41.6582 105.494 41.2773 104.752 40.5156C104.016 39.7474 103.648 38.6895 103.648 37.3418ZM105.396 37.3223C105.396 38.2728 105.628 39.002 106.09 39.5098C106.559 40.0111 107.239 40.2617 108.131 40.2617C108.717 40.2617 109.251 40.1445 109.732 39.9102C110.214 39.6693 110.592 39.347 110.865 38.9434C111.139 38.5397 111.275 38.1133 111.275 37.6641C111.275 37.013 111.145 36.4043 110.885 35.8379C110.631 35.2715 110.273 34.8255 109.811 34.5C109.348 34.168 108.814 34.002 108.209 34.002C107.324 34.002 106.633 34.2917 106.139 34.8711C105.644 35.4505 105.396 36.2676 105.396 37.3223ZM115.074 43.3574C115.074 41.7298 116.061 40.457 118.033 39.5391C117.148 39.0312 116.51 38.4844 116.119 37.8984C115.729 37.3125 115.533 36.6517 115.533 35.916C115.533 34.8809 115.921 34.0573 116.695 33.4453C117.477 32.8268 118.512 32.5176 119.801 32.5176C121.103 32.5176 122.141 32.8203 122.916 33.4258C123.691 34.0312 124.078 34.8678 124.078 35.9355C124.078 36.6517 123.86 37.293 123.424 37.8594C122.994 38.4258 122.304 38.9531 121.354 39.4414C122.506 40.0013 123.323 40.5872 123.805 41.1992C124.293 41.8047 124.537 42.5046 124.537 43.2988C124.537 44.4837 124.117 45.431 123.277 46.1406C122.438 46.8438 121.298 47.1953 119.859 47.1953C118.336 47.1953 117.158 46.8633 116.324 46.1992C115.491 45.5352 115.074 44.5879 115.074 43.3574ZM116.793 43.377C116.793 44.1322 117.06 44.7246 117.594 45.1543C118.134 45.584 118.876 45.7988 119.82 45.7988C120.751 45.7988 121.484 45.5807 122.018 45.1445C122.551 44.7018 122.818 44.0931 122.818 43.3184C122.818 42.6934 122.564 42.1367 122.057 41.6484C121.549 41.1602 120.696 40.6979 119.498 40.2617C118.554 40.6654 117.867 41.1146 117.438 41.6094C117.008 42.1042 116.793 42.6934 116.793 43.377ZM117.262 36.0039C117.262 36.4141 117.35 36.7754 117.525 37.0879C117.701 37.4004 117.955 37.6803 118.287 37.9277C118.619 38.1751 119.15 38.4518 119.879 38.7578C120.771 38.3867 121.402 37.9798 121.773 37.5371C122.151 37.0944 122.34 36.5833 122.34 36.0039C122.34 35.3529 122.109 34.8483 121.646 34.4902C121.184 34.1257 120.562 33.9434 119.781 33.9434C119.013 33.9434 118.401 34.1257 117.945 34.4902C117.49 34.8548 117.262 35.3594 117.262 36.0039Z" fill="#000A5A"/>
<g clip-path="url(#clip0)">
<path d="M37.5407 38.3018C36.4398 38.3018 35.5435 39.1981 35.5435 40.299V46.6903C35.5435 47.7912 36.4398 48.6876 37.5407 48.6876H39.9375C40.3873 48.6876 40.8011 48.5358 41.1358 48.2834V38.3018H37.5407Z" fill="white"/>
<path d="M54.7172 41.2975C54.7172 40.8174 54.527 40.37 54.1971 40.04C54.5702 39.6318 54.7603 39.0845 54.7084 38.5149C54.6149 37.4995 53.7001 36.7038 52.6248 36.7038H47.6899C47.9344 35.9616 48.3258 34.6011 48.3258 33.5081C48.3258 31.7753 46.8535 30.3125 45.9291 30.3125C45.0991 30.3125 44.5062 30.7799 44.4807 30.799C44.3864 30.8749 44.3313 30.99 44.3313 31.1114V33.8205L42.0304 38.8049L41.9346 38.8537V47.4164C42.5849 47.7232 43.4077 47.8886 43.9318 47.8886H51.2651C52.1351 47.8886 52.8965 47.3022 53.0754 46.4929C53.1673 46.0766 53.1137 45.6572 52.9308 45.2929C53.5212 44.9957 53.9183 44.3877 53.9183 43.6943C53.9183 43.4115 53.8536 43.1406 53.7305 42.8954C54.3209 42.5982 54.7172 41.9902 54.7172 41.2975Z" fill="white"/>
</g>
<defs>
<filter id="filter0_d" x="0.630371" y="0" width="160.37" height="89" filterUnits="userSpaceOnUse" color-interpolation-filters="sRGB">
<feFlood flood-opacity="0" result="BackgroundImageFix"/>
<feColorMatrix in="SourceAlpha" type="matrix" values="0 0 0 0 0 0 0 0 0 0 0 0 0 0 0 0 0 0 127 0"/>
<feOffset dy="5"/>
<feGaussianBlur stdDeviation="10"/>
<feColorMatrix type="matrix" values="0 0 0 0 0.279167 0 0 0 0 0.279167 0 0 0 0 0.279167 0 0 0 0.2 0"/>
<feBlend mode="normal" in2="BackgroundImageFix" result="effect1_dropShadow"/>
<feBlend mode="normal" in="SourceGraphic" in2="effect1_dropShadow" result="shape"/>
</filter>
<linearGradient id="paint0_linear" x1="74.9564" y1="21.3916" x2="74.9564" y2="57.609" gradientUnits="userSpaceOnUse">
<stop stop-color="#FFB4B4"/>
<stop offset="1" stop-color="#E80000"/>
</linearGradient>
<linearGradient id="paint1_linear" x1="45.1302" y1="21.3916" x2="45.1302" y2="57.609" gradientUnits="userSpaceOnUse">
<stop stop-color="#81D1FF"/>
<stop offset="1" stop-color="#0C24FF"/>
</linearGradient>
<clipPath id="clip0">
<rect width="19.1739" height="19.1739" fill="white" transform="translate(35.5435 29.9131)"/>
</clipPath>
</defs>
</svg>
