<svg width="90" height="91" viewBox="0 0 90 91" fill="none" xmlns="http://www.w3.org/2000/svg">
<circle opacity="0.5" cx="45" cy="45.5" r="45" fill="url(#paint0_linear)"/>
<circle opacity="0.5" cx="45" cy="45.5" r="35" fill="url(#paint1_linear)"/>
<g clip-path="url(#clip0)">
<path d="M64.9275 42.4777C64.7038 41.8704 64.0304 41.5595 63.4228 41.7831L60.9335 42.7C59.251 41.5037 57.1429 40.8515 54.9217 40.8515C51.8523 40.8515 48.9938 42.128 47.2533 44.23C45.8989 43.3514 44.2754 43.0358 42.6366 43.3607C41.4901 43.5882 40.4435 44.1143 39.616 44.8454C39.0923 41.7915 40.8303 38.9242 43.1515 35.6444C44.1951 35.0918 45.5202 35.1251 46.9178 35.1605C47.7688 35.1819 48.6486 35.2042 49.4994 35.0888C50.8356 34.9076 51.9074 34.0931 52.4404 32.8544C52.9732 31.6156 52.8272 30.2773 52.0398 29.1827L50.4454 26.966C49.5993 25.7896 48.1443 25.2564 46.7389 25.6075C42.5629 26.6508 38.8416 28.5598 35.6783 31.2819C33.0867 33.512 30.8672 36.2859 29.0813 39.5267C25.8705 45.3535 25.0386 50.871 25.0004 52.3445C24.9984 52.4204 25.0038 52.4963 25.0166 52.5712C25.4663 55.2194 27.4209 57.6237 30.5203 59.341C33.4726 60.9768 37.268 61.8777 41.2072 61.8777C45.0562 61.8777 48.7207 61.0315 51.6348 59.482L57.9645 65.1969C58.1886 65.3993 58.4695 65.499 58.7494 65.499C59.0695 65.499 59.3882 65.3687 59.6196 65.1124C60.0534 64.632 60.0155 63.891 59.5351 63.4573L52.5783 57.1761C52.1951 56.83 51.6302 56.7757 51.1877 57.0425C48.5629 58.6259 44.9252 59.534 41.2072 59.534C34.1903 59.534 28.1409 56.3625 27.348 52.293C27.4187 51.0053 28.1912 45.9983 31.1341 40.6579C34.8385 33.9355 40.2798 29.6368 47.307 27.8815C47.7897 27.7608 48.252 27.9303 48.5428 28.3347L50.1372 30.5514C50.4413 30.9739 50.4932 31.4501 50.2874 31.9283C50.0817 32.4066 49.7002 32.6964 49.1846 32.7664C48.5199 32.8564 47.7705 32.8376 46.977 32.8175C45.2959 32.7753 43.3907 32.7271 41.725 33.7626C41.593 33.8446 41.4787 33.9521 41.3887 34.0787C38.8933 37.5879 35.4756 42.3939 38.1677 47.8541C38.3654 48.2552 38.7735 48.5078 39.2186 48.5077C39.2312 48.5077 39.2438 48.5076 39.2564 48.5071C39.716 48.4924 40.1245 48.2101 40.3009 47.7854C40.7398 46.7288 41.8097 45.9142 43.0928 45.6597C43.8646 45.5066 45.3536 45.4446 46.6571 46.748C47.1147 47.2056 47.8567 47.2056 48.3144 46.748C48.4256 46.6368 48.5092 46.5087 48.5663 46.3721C48.615 46.3214 48.6613 46.2673 48.7013 46.2065C49.9261 44.3491 52.3097 43.1952 54.9218 43.1952C56.8175 43.1952 58.6623 43.8253 59.9834 44.9238C60.3051 45.1914 60.7452 45.267 61.1377 45.1224L64.233 43.9823C64.8402 43.7587 65.1512 43.085 64.9275 42.4777Z" fill="white"/>
</g>
<defs>
<linearGradient id="paint0_linear" x1="45" y1="0.5" x2="45" y2="90.5" gradientUnits="userSpaceOnUse">
<stop stop-color="#FFB000"/>
<stop offset="1" stop-color="#F3ED4E"/>
</linearGradient>
<linearGradient id="paint1_linear" x1="45" y1="10.5" x2="45" y2="80.5" gradientUnits="userSpaceOnUse">
<stop stop-color="#FFB000"/>
<stop offset="1" stop-color="#F3ED4E"/>
</linearGradient>
<clipPath id="clip0">
<rect width="40" height="40" fill="white" transform="translate(25 25.5)"/>
</clipPath>
</defs>
</svg>
