<svg width="90" height="91" viewBox="0 0 90 91" fill="none" xmlns="http://www.w3.org/2000/svg">
<circle opacity="0.5" cx="45" cy="45.5" r="45" fill="url(#paint0_linear)"/>
<circle opacity="0.5" cx="45" cy="45.5" r="35" fill="url(#paint1_linear)"/>
<g clip-path="url(#clip0)">
<path d="M60.013 51.8481C59.8897 48.7138 58.5505 45.1319 56.968 42.4911C54.3451 37.7118 54.4687 32.0172 56.3625 27.0911C56.5945 26.4875 56.2928 25.8101 55.6887 25.5782C55.0847 25.3462 54.4066 25.6477 54.1745 26.2515C52.1646 31.4804 51.979 37.5547 54.4395 42.6942C49.1414 45.116 40.1608 45.1054 35.5165 42.7849C38.0128 37.6426 37.8565 31.5355 35.8254 26.2515C35.5933 25.6477 34.9154 25.3465 34.3112 25.5782C33.7071 25.8101 33.4054 26.4875 33.6374 27.0911C35.528 32.009 35.6629 37.6965 33.0319 42.491C31.0695 45.7657 30.0866 49.3134 29.9869 51.848C29.7936 56.6765 30.9669 61.2111 33.3801 64.9616C33.7304 65.5061 34.4557 65.6629 34.9996 65.3133C35.544 64.9636 35.7016 64.2392 35.3516 63.6952C32.6859 59.5522 31.8041 54.2194 32.5772 50.079C38.2512 50.9557 42.7398 55.8414 43.8141 57.1014V64.3065C43.8141 64.9532 44.3388 65.4775 44.986 65.4775C45.6332 65.4775 46.1579 64.9532 46.1579 64.3065V57.1005C47.2326 55.8365 51.7222 50.9396 57.4219 50.0746C58.1913 54.1902 57.3288 59.5293 54.648 63.6957C54.298 64.2397 54.4556 64.9642 55.0001 65.3139C55.544 65.6635 56.2694 65.5064 56.6195 64.9622C59.0329 61.2115 60.2063 56.6767 60.013 51.8481ZM44.9862 54.8849C43.1536 52.8868 38.7711 48.7518 33.1582 47.7999C33.4833 46.801 33.8989 45.815 34.4017 44.8454C39.964 47.6672 49.8975 47.4198 55.554 44.7592C56.0763 45.7552 56.5058 46.7686 56.8404 47.7956C51.2172 48.7391 46.8225 52.8839 44.9862 54.8849Z" fill="white"/>
<path d="M44.9858 39.6388C45.6331 39.6388 46.1577 39.1145 46.1577 38.4678C46.1577 37.8211 45.6331 37.2969 44.9858 37.2969C44.3386 37.2969 43.814 37.8211 43.814 38.4678C43.814 39.1145 44.3386 39.6388 44.9858 39.6388Z" fill="white"/>
</g>
<defs>
<linearGradient id="paint0_linear" x1="45" y1="0.5" x2="45" y2="90.5" gradientUnits="userSpaceOnUse">
<stop stop-color="#FFB000"/>
<stop offset="1" stop-color="#F3ED4E"/>
</linearGradient>
<linearGradient id="paint1_linear" x1="45" y1="10.5" x2="45" y2="80.5" gradientUnits="userSpaceOnUse">
<stop stop-color="#FFB000"/>
<stop offset="1" stop-color="#F3ED4E"/>
</linearGradient>
<clipPath id="clip0">
<rect width="40" height="40" fill="white" transform="translate(25 25.5)"/>
</clipPath>
</defs>
</svg>
