<svg width="90" height="91" viewBox="0 0 90 91" fill="none" xmlns="http://www.w3.org/2000/svg">
<circle opacity="0.5" cx="45" cy="45.5" r="45" fill="url(#paint0_linear)"/>
<circle opacity="0.5" cx="45" cy="45.5" r="35" fill="url(#paint1_linear)"/>
<g clip-path="url(#clip0)">
<path d="M54.1527 32.7265C51.6917 32.3296 49.2357 32.8551 47.1554 34.209C47.776 32.8455 48.747 31.6124 50.0603 30.5253C51.6248 29.2303 53.1092 28.6401 53.1213 28.6354C53.7356 28.3979 54.0411 27.7073 53.8036 27.0929C53.5662 26.4786 52.8758 26.173 52.2611 26.4105C52.0731 26.4832 49.1186 27.658 46.7852 30.4005C46.6977 29.9688 46.5756 29.5343 46.4103 29.1035C45.0218 25.4866 41.2075 23.6854 41.0459 23.6105C40.7532 23.4749 40.4182 23.4637 40.1171 23.5791C39.8161 23.6948 39.5746 23.9273 39.4478 24.2238C39.3778 24.3878 37.7486 28.2786 39.137 31.8955C39.2621 32.2214 39.4071 32.5323 39.5672 32.8288C38.3611 32.5621 37.1041 32.5234 35.8457 32.7265C30.3276 33.6169 26.5406 38.9429 27.4039 44.5994C28.0183 48.6257 28.9166 52.0839 30.0741 54.8777C31.3868 58.0466 33.0449 60.3764 35.0022 61.8027C36.5519 62.932 38.2782 63.5002 40.1517 63.5C40.6699 63.5 41.1996 63.4565 41.7397 63.3694C42.986 63.1684 44.0778 62.7115 44.9992 62.0074C45.9206 62.7115 47.0125 63.1684 48.2588 63.3694C50.7507 63.7714 53.0177 63.2444 54.9963 61.8027C56.9535 60.3765 58.6116 58.0467 59.9243 54.8777C61.0818 52.0838 61.9801 48.6257 62.5945 44.5994C63.4578 38.9429 59.6708 33.6169 54.1527 32.7265ZM41.2353 26.4845C42.2226 27.1677 43.5608 28.3363 44.1835 29.9583C44.8022 31.5701 44.588 33.3417 44.3121 34.5144C43.3248 33.8314 41.9866 32.6627 41.3639 31.0407C40.7451 29.429 40.9593 27.6574 41.2353 26.4845ZM60.2366 44.2396C59.0243 52.184 56.7266 57.5906 53.5916 59.8749C52.1257 60.9431 50.5056 61.3159 48.6385 61.0145C47.4943 60.83 46.5905 60.3638 45.8752 59.5895C45.6494 59.3452 45.3318 59.2062 44.9991 59.2062C44.6664 59.2062 44.3488 59.3452 44.123 59.5895C43.4078 60.3638 42.5039 60.8299 41.3596 61.0145C39.4926 61.3156 37.8725 60.9431 36.4066 59.8749C33.2716 57.5906 30.9739 52.184 29.7615 44.2396C29.0951 39.8722 31.9948 35.7639 36.2254 35.0814C36.6314 35.0158 37.0374 34.9835 37.4404 34.9835C39.0873 34.9835 40.6846 35.5246 42.0352 36.5565C43.7802 37.8899 46.2178 37.8899 47.9628 36.5565C49.6439 35.2721 51.7074 34.748 53.7726 35.0814H53.7727C58.0034 35.764 60.9031 39.8723 60.2366 44.2396Z" fill="white"/>
</g>
<defs>
<linearGradient id="paint0_linear" x1="45" y1="0.5" x2="45" y2="90.5" gradientUnits="userSpaceOnUse">
<stop stop-color="#FFB000"/>
<stop offset="1" stop-color="#FFFA8B"/>
</linearGradient>
<linearGradient id="paint1_linear" x1="45" y1="10.5" x2="45" y2="80.5" gradientUnits="userSpaceOnUse">
<stop stop-color="#FFB000"/>
<stop offset="1" stop-color="#FFFA8B"/>
</linearGradient>
<clipPath id="clip0">
<rect width="40" height="40" fill="white" transform="translate(25 23.5)"/>
</clipPath>
</defs>
</svg>
