<svg width="90" height="91" viewBox="0 0 90 91" fill="none" xmlns="http://www.w3.org/2000/svg">
<circle opacity="0.5" cx="45" cy="45.5" r="45" fill="url(#paint0_linear)"/>
<circle opacity="0.5" cx="45" cy="45.5" r="35" fill="url(#paint1_linear)"/>
<g clip-path="url(#clip0)">
<path d="M61.7969 51.6719C61.7969 51.0247 61.2722 50.5 60.625 50.5C58.6865 50.5 57.1094 48.9229 57.1094 46.9844V38.3906C57.1094 34.9462 55.7677 31.7084 53.3316 29.2734C50.8969 26.8398 47.6611 25.5 44.2188 25.5C44.2167 25.5 44.2142 25.5 44.2121 25.5C37.1078 25.5036 31.3281 31.3366 31.3281 38.5028V45.0312C31.3281 48.4215 33.137 51.397 35.8403 53.0438L32.8754 53.6573C30.1681 54.2173 28.2031 56.6304 28.2031 59.395V64.3281C28.2031 64.9753 28.7278 65.5 29.375 65.5H59.0625C59.7097 65.5 60.2344 64.9753 60.2344 64.3281V59.395C60.2344 58.5436 60.0439 57.7091 59.6796 56.9364C60.9904 55.5677 61.7969 53.7122 61.7969 51.6719ZM57.8906 63.1562H36.7969V59.4844C36.7969 58.8372 36.2722 58.3125 35.625 58.3125C34.9778 58.3125 34.4531 58.8372 34.4531 59.4844V63.1562H30.5469V59.395C30.5469 57.7362 31.7259 56.2884 33.3502 55.9523L39.8748 54.6024C40.572 56.318 42.2559 57.5312 44.2188 57.5312C45.6609 57.5312 46.9524 56.8762 47.813 55.8485C49.1759 57.9192 51.5207 59.2891 54.1797 59.2891C55.4653 59.2891 56.6773 58.9684 57.7406 58.4037C57.8394 58.7258 57.8906 59.0588 57.8906 59.395V63.1562ZM44.2188 48.9375C40.9879 48.9375 38.3594 46.309 38.3594 43.0781V38.4652L40.9391 34.9854L50.0781 38.8545V43.0781C50.0781 46.309 47.4496 48.9375 44.2188 48.9375ZM46.5625 50.9395V52.8438C46.5625 54.1361 45.5111 55.1875 44.2188 55.1875C42.9264 55.1875 41.875 54.1361 41.875 52.8438V50.9395C42.618 51.1615 43.4046 51.2812 44.2188 51.2812C45.0329 51.2812 45.8195 51.1615 46.5625 50.9395ZM54.1797 56.9453C51.2719 56.9453 48.9062 54.5797 48.9062 51.6719V49.8061C51.0299 48.322 52.4219 45.8598 52.4219 43.0781V38.0781C52.4219 37.6075 52.1403 37.1825 51.7069 36.999L41.0038 32.4676C40.5056 32.2568 39.9277 32.4143 39.6055 32.8488L36.2461 37.3802C36.0964 37.5822 36.0156 37.8269 36.0156 38.0782V43.0782C36.0156 45.8598 37.4077 48.3221 39.5312 49.8062V51.9644C36.2101 51.4048 33.6719 48.5091 33.6719 45.0313V38.5029C33.6719 32.6283 38.4008 27.8467 44.2134 27.8438H44.2188C47.035 27.8438 49.6828 28.9401 51.6748 30.9311C53.6679 32.9234 54.7656 35.5726 54.7656 38.3906V46.9844C54.7656 49.778 56.7309 52.1214 59.3516 52.7045C58.8702 55.1195 56.7341 56.9453 54.1797 56.9453Z" fill="white"/>
</g>
<defs>
<linearGradient id="paint0_linear" x1="45" y1="0.5" x2="45" y2="90.5" gradientUnits="userSpaceOnUse">
<stop stop-color="#FFB000"/>
<stop offset="1" stop-color="#F3ED4E"/>
</linearGradient>
<linearGradient id="paint1_linear" x1="45" y1="10.5" x2="45" y2="80.5" gradientUnits="userSpaceOnUse">
<stop stop-color="#FFB000"/>
<stop offset="1" stop-color="#F3ED4E"/>
</linearGradient>
<clipPath id="clip0">
<rect width="40" height="40" fill="white" transform="translate(25 25.5)"/>
</clipPath>
</defs>
</svg>
