<svg width="90" height="91" viewBox="0 0 90 91" fill="none" xmlns="http://www.w3.org/2000/svg">
<circle opacity="0.5" cx="45" cy="45.5" r="45" fill="url(#paint0_linear)"/>
<circle opacity="0.5" cx="45" cy="45.5" r="35" fill="url(#paint1_linear)"/>
<g clip-path="url(#clip0)">
<path d="M62.6447 34.8482C62.6228 34.4268 62.3759 34.0497 61.9985 33.861L45.5239 25.6237C45.194 25.4588 44.8057 25.4588 44.4758 25.6237L28.0012 33.861C27.6237 34.0497 27.3769 34.4268 27.355 34.8482C27.3425 35.0881 27.0715 40.7988 29.0169 47.4291C30.168 51.352 31.8612 54.7784 34.0493 57.613C36.8067 61.185 40.3508 63.8128 44.583 65.4234C44.7173 65.4744 44.8585 65.4999 44.9998 65.4999C45.1412 65.4999 45.2823 65.4744 45.4166 65.4234C49.6489 63.8128 53.1929 61.185 55.9504 57.613C58.1385 54.7784 59.8316 51.352 60.9827 47.4291C62.9281 40.7988 62.6572 35.0881 62.6447 34.8482ZM58.7147 46.8341C56.3289 54.9078 51.7159 60.3678 44.9998 63.0697C38.2837 60.3678 33.6707 54.9078 31.285 46.8341C29.8109 41.8455 29.6753 37.3042 29.6822 35.641L44.9998 27.9821L60.3174 35.6408C60.3244 37.3049 60.1886 41.8459 58.7147 46.8341Z" fill="white"/>
<path d="M57.2595 36.7328L45.5235 30.8649C45.1936 30.7 44.8053 30.7 44.4754 30.8649L32.7396 36.7328C32.319 36.943 32.0648 37.3844 32.0941 37.8538C32.2214 39.8977 32.5841 43.0325 33.5888 46.3593C35.5976 53.0107 39.262 57.6915 44.4801 60.2715C44.6438 60.3525 44.8217 60.3929 44.9995 60.3929C45.1773 60.3929 45.3553 60.3525 45.5188 60.2715C50.737 57.6915 54.4013 53.0107 56.4101 46.3593C57.4147 43.0328 57.7775 39.8979 57.9049 37.8539C57.9343 37.3845 57.6801 36.943 57.2595 36.7328ZM54.1666 45.6817C52.4217 51.4595 49.339 55.5678 44.9996 57.9025C40.6601 55.5678 37.5774 51.4595 35.8325 45.6817C35.0108 42.961 34.6478 40.3698 34.4896 38.4782L44.9996 33.2232L55.5096 38.4782C55.3513 40.37 54.9881 42.9612 54.1666 45.6817Z" fill="white"/>
</g>
<defs>
<linearGradient id="paint0_linear" x1="45" y1="0.5" x2="45" y2="90.5" gradientUnits="userSpaceOnUse">
<stop stop-color="#FFB000"/>
<stop offset="1" stop-color="#F3ED4E"/>
</linearGradient>
<linearGradient id="paint1_linear" x1="45" y1="10.5" x2="45" y2="80.5" gradientUnits="userSpaceOnUse">
<stop stop-color="#FFB000"/>
<stop offset="1" stop-color="#F3ED4E"/>
</linearGradient>
<clipPath id="clip0">
<rect width="40" height="40" fill="white" transform="translate(25 25.5)"/>
</clipPath>
</defs>
</svg>
