<svg width="90" height="91" viewBox="0 0 90 91" fill="none" xmlns="http://www.w3.org/2000/svg">
<circle opacity="0.5" cx="45" cy="45.5" r="45" fill="url(#paint0_linear)"/>
<circle opacity="0.5" cx="45" cy="45.5" r="35" fill="url(#paint1_linear)"/>
<g clip-path="url(#clip0)">
<path d="M64.7318 49.5955L62.233 46.5702C61.8595 46.118 61.2092 46.0115 60.7108 46.3212L57.4118 48.372C56.8622 48.7138 56.6938 49.4362 57.0356 49.9858C57.3771 50.5357 58.0997 50.7042 58.6493 50.3624L59.6979 49.7105C58.8276 52.9503 56.9538 55.8616 54.271 58.0818C50.4865 61.2132 45.4786 62.2056 40.8747 60.7365C38.013 59.8234 35.5963 58.2554 33.6917 56.0765C31.9214 54.0516 30.6858 51.5629 30.1178 48.8792C29.9839 48.2463 29.3616 47.8413 28.7287 47.9756C28.0954 48.1096 27.6908 48.7315 27.825 49.3647C29.1989 55.8568 33.8111 60.9425 40.1624 62.9692C41.7997 63.4917 43.48 63.7477 45.1502 63.7477C48.9551 63.7477 52.706 62.4187 55.7651 59.8872C58.9103 57.2847 61.0822 53.845 62.0405 50.0172L62.9249 51.0881C63.1565 51.3685 63.4913 51.5135 63.8291 51.5135C64.0915 51.5135 64.3561 51.4256 64.5746 51.2452C65.0733 50.8332 65.1438 50.0944 64.7318 49.5955Z" fill="white"/>
<path d="M28.6712 44.9858C28.8876 44.9858 29.1052 44.9235 29.2892 44.8091L32.5882 42.7583C33.1378 42.4168 33.3062 41.6942 32.9647 41.1446C32.6229 40.5949 31.9003 40.4262 31.3507 40.768L30.2694 41.44C31.018 38.5051 32.5766 35.865 34.8556 33.7038C36.8808 31.7833 39.3765 30.478 42.0727 29.9299C44.7702 29.3815 47.55 29.6156 50.1117 30.6068C52.7035 31.6093 54.8907 33.1773 56.6128 35.2672C58.2223 37.2203 59.3564 39.5854 59.8923 42.1074C60.0268 42.7406 60.6491 43.145 61.282 43.0101C61.9153 42.8755 62.3193 42.2533 62.1847 41.6203C61.571 38.7312 60.2694 36.0191 58.4216 33.7767C56.4404 31.3725 53.9291 29.5705 50.9576 28.4209C47.977 27.2679 44.7433 26.9957 41.6058 27.6332C38.479 28.2689 35.5871 29.7801 33.2428 32.003C31.5594 33.5997 30.2081 35.4472 29.2269 37.495C28.5897 38.8246 28.1884 39.8653 27.9315 41.0786L27.0755 40.0423C26.6632 39.5433 25.9246 39.4728 25.4257 39.8851C24.9267 40.2971 24.8562 41.0359 25.2682 41.5349L27.767 44.5604C27.9968 44.8387 28.3316 44.9858 28.6712 44.9858Z" fill="white"/>
</g>
<defs>
<linearGradient id="paint0_linear" x1="45" y1="0.5" x2="45" y2="90.5" gradientUnits="userSpaceOnUse">
<stop stop-color="#FFB000"/>
<stop offset="1" stop-color="#F3ED4E"/>
</linearGradient>
<linearGradient id="paint1_linear" x1="45" y1="10.5" x2="45" y2="80.5" gradientUnits="userSpaceOnUse">
<stop stop-color="#FFB000"/>
<stop offset="1" stop-color="#F3ED4E"/>
</linearGradient>
<clipPath id="clip0">
<rect width="40" height="40" fill="white" transform="translate(25 25.5)"/>
</clipPath>
</defs>
</svg>
