<svg width="143" height="21" viewBox="0 0 143 21" fill="none" xmlns="http://www.w3.org/2000/svg">
<path d="M0.347148 20V17.57L1.33715 17.48C1.91715 17.42 2.20715 17.14 2.20715 16.64V2.69L0.497148 2.6V0.0499994H8.71715C11.6571 0.0499994 13.9471 0.829999 15.5872 2.39C17.2471 3.95 18.0771 6.26 18.0771 9.32C18.0771 11.22 17.8271 12.88 17.3271 14.3C16.8271 15.7 16.1471 16.8 15.2871 17.6C13.5671 19.2 11.4271 20 8.86715 20H0.347148ZM5.86715 2.96V17.12H8.92715C10.6471 17.12 11.9871 16.5 12.9471 15.26C13.9071 14.02 14.3871 12.22 14.3871 9.86C14.3871 5.26 12.4371 2.96 8.53715 2.96H5.86715ZM36.1683 17.63V20H31.3083V18.05C30.2083 19.61 28.5883 20.39 26.4483 20.39C23.3483 20.39 21.7983 18.66 21.7983 15.2V8.27C21.7983 7.73 21.5483 7.45 21.0483 7.43L20.0883 7.37V4.91H25.3683V14.42C25.3683 15.48 25.5183 16.28 25.8183 16.82C26.1183 17.36 26.7383 17.63 27.6783 17.63C28.6183 17.63 29.3683 17.34 29.9283 16.76C30.5083 16.18 30.7983 15.48 30.7983 14.66V8.33C30.7983 8.01 30.7383 7.79 30.6183 7.67C30.5183 7.53 30.3283 7.45 30.0483 7.43L29.0883 7.37V4.91H34.3683V16.67C34.3683 16.99 34.4183 17.21 34.5183 17.33C34.6183 17.43 34.8183 17.5 35.1183 17.54L36.1683 17.63ZM44.4535 17.81C46.6335 17.81 47.7235 16.05 47.7235 12.53C47.7235 10.75 47.4735 9.4 46.9735 8.48C46.4935 7.56 45.6735 7.1 44.5135 7.1C43.3735 7.1 42.5335 7.54 41.9935 8.42C41.4535 9.3 41.1835 10.5 41.1835 12.02C41.1835 14.84 41.7035 16.61 42.7435 17.33C43.2035 17.65 43.7735 17.81 44.4535 17.81ZM37.5535 12.44C37.5535 10.96 37.7735 9.68 38.2135 8.6C38.6535 7.5 39.2435 6.66 39.9835 6.08C41.4035 5 42.9735 4.46 44.6935 4.46C45.8935 4.46 46.9035 4.66 47.7235 5.06C48.5635 5.44 49.2135 5.89 49.6735 6.41C50.1535 6.91 50.5535 7.65 50.8735 8.63C51.2135 9.59 51.3835 10.73 51.3835 12.05C51.3835 14.81 50.7135 16.9 49.3735 18.32C48.0335 19.74 46.3135 20.45 44.2135 20.45C42.1335 20.45 40.5035 19.78 39.3235 18.44C38.1435 17.08 37.5535 15.08 37.5535 12.44ZM53.2231 7.31V4.91H58.2931V6.86C58.8131 6.12 59.5031 5.54 60.3631 5.12C61.2231 4.68 62.1531 4.46 63.1531 4.46C64.6731 4.46 65.8431 4.9 66.6631 5.78C67.5031 6.64 67.9231 7.94 67.9231 9.68V17.51L69.6331 17.6V20H62.4931V17.72L63.4831 17.63C63.7831 17.59 64.0031 17.51 64.1431 17.39C64.2831 17.25 64.3531 17 64.3531 16.64V10.46C64.3531 9.36 64.1831 8.55 63.8431 8.03C63.5031 7.49 62.8531 7.22 61.8931 7.22C60.9531 7.22 60.2031 7.52 59.6431 8.12C59.0831 8.72 58.8031 9.43 58.8031 10.25V17.51L60.5131 17.6V20H53.3731V17.72L54.3631 17.63C54.6631 17.59 54.8831 17.51 55.0231 17.39C55.1631 17.25 55.2331 17 55.2331 16.64V8.33C55.2331 7.73 54.9831 7.42 54.4831 7.4L53.2231 7.31ZM84.8614 5.51V16.67C84.8614 16.99 84.9114 17.21 85.0114 17.33C85.1314 17.45 85.3314 17.52 85.6114 17.54L86.5714 17.6V20H81.8014V18.26L81.7114 18.23C80.7114 19.67 79.3414 20.39 77.6014 20.39C75.5614 20.39 74.0514 19.74 73.0714 18.44C72.0914 17.14 71.6014 15.36 71.6014 13.1C71.6014 10.38 72.2614 8.26 73.5814 6.74C74.9014 5.22 76.8814 4.46 79.5214 4.46C81.2214 4.46 83.0014 4.81 84.8614 5.51ZM81.3814 15.23V7.46C80.8214 7.2 80.0514 7.07 79.0714 7.07C77.7314 7.07 76.7614 7.61 76.1614 8.69C75.5614 9.77 75.2614 11.2 75.2614 12.98C75.2614 16.22 76.3014 17.84 78.3814 17.84C79.2614 17.84 79.9814 17.58 80.5414 17.06C81.1014 16.52 81.3814 15.91 81.3814 15.23ZM91.1569 1.73H93.1069V4.91H97.0969L96.7969 7.43H93.1069V15.32C93.1069 16.2 93.2669 16.82 93.5869 17.18C93.9069 17.52 94.3969 17.69 95.0569 17.69C95.7369 17.69 96.4169 17.48 97.0969 17.06L97.9969 19.37C96.9969 20.07 95.7269 20.42 94.1869 20.42C93.2869 20.42 92.5269 20.3 91.9069 20.06C91.2869 19.84 90.8269 19.59 90.5269 19.31C90.2269 19.03 89.9969 18.62 89.8369 18.08C89.6769 17.54 89.5869 17.12 89.5669 16.82C89.5469 16.5 89.5369 16.04 89.5369 15.44V7.43H87.4069L87.7069 5.24C88.6469 5.16 89.3569 4.83 89.8369 4.25C90.3169 3.65 90.7569 2.81 91.1569 1.73ZM114.45 17.63V20H109.59V18.05C108.49 19.61 106.87 20.39 104.73 20.39C101.63 20.39 100.08 18.66 100.08 15.2V8.27C100.08 7.73 99.8296 7.45 99.3296 7.43L98.3696 7.37V4.91H103.65V14.42C103.65 15.48 103.8 16.28 104.1 16.82C104.4 17.36 105.02 17.63 105.96 17.63C106.9 17.63 107.65 17.34 108.21 16.76C108.79 16.18 109.08 15.48 109.08 14.66V8.33C109.08 8.01 109.02 7.79 108.9 7.67C108.8 7.53 108.61 7.45 108.33 7.43L107.37 7.37V4.91H112.65V16.67C112.65 16.99 112.7 17.21 112.8 17.33C112.9 17.43 113.1 17.5 113.4 17.54L114.45 17.63ZM118.134 16.64V8.33C118.134 8.01 118.074 7.79 117.954 7.67C117.854 7.53 117.664 7.45 117.384 7.43L116.124 7.34V4.91H121.194V7.16C121.554 6.38 122.114 5.74 122.874 5.24C123.634 4.72 124.504 4.46 125.484 4.46C126.484 4.46 127.434 4.68 128.334 5.12V9.59L125.544 9.8V8.42C125.544 8.02 125.444 7.77 125.244 7.67C125.024 7.57 124.754 7.52 124.434 7.52C123.634 7.52 122.974 7.81 122.454 8.39C121.954 8.95 121.704 9.67 121.704 10.55V17.51L124.314 17.63V20H116.274V17.72L117.264 17.63C117.564 17.59 117.784 17.51 117.924 17.39C118.064 17.25 118.134 17 118.134 16.64ZM137.662 4.46C139.162 4.46 140.352 4.83 141.232 5.57C142.112 6.29 142.552 7.31 142.552 8.63C142.552 9.51 142.362 10.29 141.982 10.97C141.602 11.63 141.132 12.15 140.572 12.53C140.012 12.91 139.332 13.22 138.532 13.46C137.192 13.86 135.682 14.06 134.002 14.06C134.062 15.12 134.392 15.98 134.992 16.64C135.592 17.28 136.512 17.6 137.752 17.6C138.992 17.6 140.232 17.16 141.472 16.28L142.612 18.71C142.212 19.07 141.532 19.44 140.572 19.82C139.632 20.2 138.552 20.39 137.332 20.39C134.892 20.39 133.102 19.72 131.962 18.38C130.822 17.02 130.252 15.16 130.252 12.8C130.252 10.44 130.902 8.46 132.202 6.86C133.502 5.26 135.322 4.46 137.662 4.46ZM136.282 11.33C137.022 11.19 137.702 10.9 138.322 10.46C138.942 10 139.252 9.46 139.252 8.84C139.252 7.62 138.652 7.01 137.452 7.01C136.332 7.01 135.472 7.46 134.872 8.36C134.272 9.24 133.942 10.3 133.882 11.54C134.762 11.52 135.562 11.45 136.282 11.33Z" fill="black"/>
</svg>
