<svg width="17" height="17" viewBox="0 0 17 17" fill="none" xmlns="http://www.w3.org/2000/svg">
<path d="M8.5 0C6.02839 0 4.01758 2.01081 4.01758 4.48242C4.01758 6.95403 6.02839 8.96484 8.5 8.96484C10.9716 8.96484 12.9824 6.95403 12.9824 4.48242C12.9824 2.01081 10.9716 0 8.5 0ZM8.5 7.96875C6.57764 7.96875 5.01367 6.40478 5.01367 4.48242C5.01367 2.56006 6.57764 0.996094 8.5 0.996094C10.4224 0.996094 11.9863 2.56006 11.9863 4.48242C11.9863 6.40478 10.4224 7.96875 8.5 7.96875Z" fill="#ACACAC"/>
<path d="M9.88899 9.99414H7.11098C4.81326 9.99414 2.54565 11.055 1.0293 13.3297V17H15.9707V13.3297C14.4565 11.0583 12.1896 9.99414 9.88899 9.99414ZM14.9746 16.0039H14.9746H2.02539V13.6344C3.18853 11.9758 5.07848 10.9902 7.11101 10.9902H9.88902C11.9215 10.9902 13.8115 11.9758 14.9746 13.6344V16.0039Z" fill="#ACACAC"/>
</svg>
