<svg width="445" height="47" viewBox="0 0 445 47" fill="none" xmlns="http://www.w3.org/2000/svg">
<path d="M28.644 22.4L28.764 27.62C28.204 27.78 27.804 27.86 27.564 27.86L26.844 27.74L26.184 23.84C24.744 23.48 22.244 23.3 18.684 23.3C15.164 23.3 12.844 23.4 11.724 23.6V30.56C11.724 34.68 11.884 38.42 12.204 41.78C14.044 42.02 16.544 42.14 19.704 42.14C19.864 42.54 19.944 42.94 19.944 43.34C19.944 43.7 19.864 43.98 19.704 44.18L9.32398 44C6.28398 44 3.50398 44.16 0.983985 44.48C0.783984 44.24 0.683984 43.9 0.683984 43.46L0.743985 42.98C2.82398 42.5 4.18398 41.76 4.82398 40.76C5.34398 39.96 5.68398 38.96 5.84398 37.76C6.32398 34.12 6.56398 29.56 6.56398 24.08C6.56398 10.16 6.20398 3.06 5.48398 2.78C4.72398 2.58 3.40398 2.48 1.52398 2.48C1.44398 2.2 1.40398 1.88 1.40398 1.52C1.40398 1.16 1.44398 0.859999 1.52398 0.619997L10.644 0.799998H18.324C18.324 0.799998 23.044 0.659998 32.484 0.379997C33.204 0.379997 33.564 0.599997 33.564 1.04C33.564 1.08 33.504 1.56 33.384 2.48C32.944 5.36 32.644 8.14 32.484 10.82C32.004 11.06 31.564 11.18 31.164 11.18C30.804 11.18 30.484 11.1 30.204 10.94C29.764 7.62 29.384 5.36 29.064 4.16C25.424 3.32 22.064 2.9 18.984 2.9C15.944 2.9 13.764 2.98 12.444 3.14C11.964 4.98 11.724 10.9 11.724 20.9C12.684 21.06 14.384 21.14 16.824 21.14C19.264 21.14 21.244 21.06 22.764 20.9C24.284 20.74 25.364 20.42 26.004 19.94C26.684 19.42 27.144 18.4 27.384 16.88C28.144 16.88 28.764 17.02 29.244 17.3C28.844 19.58 28.644 21.28 28.644 22.4ZM66.9732 29.36C66.9732 38.24 61.8132 43.52 51.4932 45.2C47.2532 45.2 43.6732 43.7 40.7532 40.7C37.8732 37.66 36.4332 33.88 36.4332 29.36C36.4332 20.4 41.6132 15.1 51.9732 13.46C56.1732 13.46 59.7132 15 62.5932 18.08C65.5132 21.16 66.9732 24.92 66.9732 29.36ZM52.8132 42.62C58.5732 42.62 61.4532 38.94 61.4532 31.58C61.4532 27.42 60.4932 23.78 58.5732 20.66C56.6532 17.54 54.1132 15.98 50.9532 15.98C47.7932 15.98 45.4932 17 44.0532 19.04C42.6532 21.04 41.9532 23.92 41.9532 27.68C41.9532 31.4 42.9332 34.82 44.8932 37.94C46.8532 41.06 49.4932 42.62 52.8132 42.62ZM73.3852 17.06L71.0452 17.12C70.8452 16.92 70.7452 16.62 70.7452 16.22L70.8652 15.5C73.5852 15.14 75.8052 14.58 77.5252 13.82C78.0852 13.58 78.4252 13.46 78.5452 13.46C78.9852 13.46 79.4852 14.26 80.0452 15.86C80.6052 17.42 80.9452 18.98 81.0652 20.54C84.0652 17.42 86.7852 15.06 89.2252 13.46C90.8252 13.46 92.1452 13.94 93.1852 14.9C94.2252 15.82 94.7452 16.98 94.7452 18.38C94.7452 19.98 93.3252 20.78 90.4852 20.78C89.8852 18.66 88.8652 17.6 87.4252 17.6C86.4652 17.6 84.4652 19.26 81.4252 22.58C81.1852 25.62 81.0652 30.46 81.0652 37.1C81.0652 40.42 81.3252 42.1 81.8452 42.14C82.7652 42.26 84.3852 42.32 86.7052 42.32C86.8252 42.6 86.8852 42.92 86.8852 43.28C86.8852 43.64 86.8252 43.94 86.7052 44.18L79.9852 44C76.7052 44 73.8052 44.16 71.2852 44.48C71.0852 44.24 70.9852 43.9 70.9852 43.46L71.0452 42.98C73.1652 42.58 74.5252 41.96 75.1252 41.12C75.5652 40.48 75.8852 39.46 76.0852 38.06C76.2852 36.62 76.3852 33.82 76.3852 29.66C76.3852 25.5 76.3652 23.2 76.3252 22.76C76.3252 22.32 76.3052 21.74 76.2652 21.02C76.2252 20.3 76.1452 19.76 76.0252 19.4C75.9052 19.04 75.7252 18.64 75.4852 18.2C75.0852 17.44 74.3852 17.06 73.3852 17.06ZM131.756 0.859998L137.636 0.799998C139.636 0.799998 141.396 0.719998 142.916 0.559998C143.116 0.799997 143.216 1.18 143.216 1.7L143.156 2.06C142.196 2.38 141.476 2.9 140.996 3.62C140.196 4.66 137.436 9.5 132.716 18.14L140.576 37.52L147.596 19.76C150.956 11.32 152.856 5.64 153.296 2.72C152.536 2.56 151.016 2.48 148.736 2.48C148.616 2.28 148.556 2 148.556 1.64C148.556 1.24 148.616 0.899998 148.736 0.619997C151.376 0.739998 153.596 0.799998 155.396 0.799998C157.236 0.799998 159.156 0.639998 161.156 0.319997C161.356 0.559997 161.456 0.899997 161.456 1.34L161.396 1.82C160.316 2.22 159.376 2.82 158.576 3.62C157.816 4.42 156.836 5.94 155.636 8.18C154.436 10.42 153.516 12.28 152.876 13.76L139.136 46.34H138.116L128.996 24.08L118.256 46.34H117.236L104.636 15.2C102.276 9.2 100.396 5.38 98.9963 3.74C98.3563 3.02 96.9563 2.38 94.7963 1.82C94.7563 1.66 94.7363 1.42 94.7363 1.1C94.7363 0.779997 94.8363 0.519997 95.0363 0.319997C97.5963 0.639998 100.356 0.799998 103.316 0.799998C106.276 0.799998 109.396 0.739998 112.676 0.619997C112.756 0.779997 112.796 1.06 112.796 1.46L112.676 2.48C110.356 2.48 108.716 2.5 107.756 2.54C107.996 5.98 109.656 11.72 112.736 19.76L119.696 37.52L127.796 21.2L125.396 15.2C122.956 9.12 121.196 5.26 120.116 3.62C119.636 2.94 118.696 2.42 117.296 2.06C117.256 1.98 117.236 1.78 117.236 1.46C117.236 1.14 117.316 0.839999 117.476 0.559998C119.396 0.719998 122.076 0.799998 125.516 0.799998L131.756 0.859998ZM127.136 2.66C127.296 5.14 128.716 9.54 131.396 15.86C134.716 8.42 136.496 4.02 136.736 2.66C134.936 2.54 133.316 2.48 131.876 2.48L127.136 2.66ZM189.903 29.36C189.903 38.24 184.743 43.52 174.423 45.2C170.183 45.2 166.603 43.7 163.683 40.7C160.803 37.66 159.363 33.88 159.363 29.36C159.363 20.4 164.543 15.1 174.903 13.46C179.103 13.46 182.643 15 185.523 18.08C188.443 21.16 189.903 24.92 189.903 29.36ZM175.743 42.62C181.503 42.62 184.383 38.94 184.383 31.58C184.383 27.42 183.423 23.78 181.503 20.66C179.583 17.54 177.043 15.98 173.883 15.98C170.723 15.98 168.423 17 166.983 19.04C165.583 21.04 164.883 23.92 164.883 27.68C164.883 31.4 165.863 34.82 167.823 37.94C169.783 41.06 172.423 42.62 175.743 42.62ZM206.995 44.18L202.855 44C199.815 44 197.175 44.16 194.935 44.48C194.735 44.24 194.635 43.9 194.635 43.46L194.695 42.98C195.855 42.7 196.755 42.32 197.395 41.84C198.035 41.32 198.435 40.84 198.595 40.4C198.795 39.92 198.955 39.06 199.075 37.82C199.235 36.54 199.315 33.82 199.315 29.66C199.315 25.5 199.295 23.2 199.255 22.76C199.255 22.28 199.235 21.68 199.195 20.96C199.155 20.24 199.075 19.7 198.955 19.34C198.835 18.98 198.655 18.6 198.415 18.2C198.015 17.44 197.335 17.06 196.375 17.06L194.035 17.12C193.875 16.96 193.795 16.66 193.795 16.22L193.915 15.5C196.635 15.14 198.855 14.58 200.575 13.82C201.135 13.58 201.475 13.46 201.595 13.46C201.955 13.46 202.395 14.02 202.915 15.14C203.435 16.26 203.875 17.5 204.235 18.86C208.475 16.46 212.355 14.66 215.875 13.46C218.835 13.46 220.835 15.3 221.875 18.98C226.075 16.62 230.075 14.78 233.875 13.46C236.035 13.46 237.715 14.44 238.915 16.4C240.155 18.32 240.775 20.88 240.775 24.08L240.715 32C240.715 38.68 240.995 42.08 241.555 42.2C242.155 42.28 243.255 42.32 244.855 42.32C244.975 42.6 245.035 42.92 245.035 43.28C245.035 43.64 244.975 43.94 244.855 44.18L239.335 44C236.575 44 234.195 44.16 232.195 44.48C231.995 44.24 231.895 43.9 231.895 43.46L231.955 42.98C233.315 42.62 234.195 42.1 234.595 41.42C235.035 40.7 235.335 39.7 235.495 38.42C235.695 37.1 235.795 35.2 235.795 32.72V28.28C235.795 26 235.655 24.18 235.375 22.82C235.135 21.42 234.895 20.52 234.655 20.12C234.455 19.68 234.195 19.24 233.875 18.8C233.275 18 232.395 17.6 231.235 17.6C228.995 17.6 226.035 18.88 222.355 21.44C222.475 22.24 222.535 23.12 222.535 24.08C222.535 24.08 222.515 26.72 222.475 32C222.475 38.68 222.755 42.08 223.315 42.2C223.915 42.28 224.775 42.32 225.895 42.32C226.015 42.6 226.075 42.92 226.075 43.28C226.075 43.64 226.015 43.94 225.895 44.18L221.335 44C218.295 44 215.655 44.16 213.415 44.48C213.215 44.24 213.115 43.92 213.115 43.52L213.175 42.98C214.815 42.62 215.895 42.08 216.415 41.36C216.975 40.64 217.335 39.64 217.495 38.36C217.695 37.08 217.795 35.2 217.795 32.72V28.28C217.795 26 217.655 24.18 217.375 22.82C217.135 21.42 216.895 20.52 216.655 20.12C216.455 19.68 216.195 19.24 215.875 18.8C215.275 18 214.395 17.6 213.235 17.6C210.795 17.6 207.835 18.88 204.355 21.44C204.195 24.6 204.115 28.84 204.115 34.16C204.115 39.44 204.355 42.1 204.835 42.14C205.275 42.26 205.995 42.32 206.995 42.32C207.155 42.64 207.235 42.98 207.235 43.34C207.235 43.7 207.155 43.98 206.995 44.18ZM270.897 22.16L270.717 36.8C270.717 39.72 271.657 41.18 273.537 41.18L275.697 41.12C275.857 41.32 275.937 41.64 275.937 42.08L275.817 42.74C272.737 43.3 270.537 44.12 269.217 45.2C268.337 44.96 267.577 44.42 266.937 43.58C266.337 42.7 265.997 41.78 265.917 40.82C262.717 42.78 259.537 44.24 256.377 45.2C255.017 45.2 253.617 44.44 252.177 42.92C250.737 41.36 250.017 39.42 250.017 37.1C250.017 35.94 250.277 34.9 250.797 33.98C251.317 33.02 251.937 32.36 252.657 32C255.617 30.52 260.017 29.22 265.857 28.1V22.4C265.857 20.2 265.497 18.56 264.777 17.48C264.097 16.4 263.257 15.86 262.257 15.86C261.297 15.86 260.257 16.04 259.137 16.4C258.017 16.72 257.217 17.36 256.737 18.32C256.297 19.28 256.077 20.64 256.077 22.4C256.077 22.56 255.797 22.74 255.237 22.94C254.717 23.1 254.037 23.18 253.197 23.18C252.397 23.18 251.837 23 251.517 22.64C251.237 22.24 251.097 21.66 251.097 20.9C251.097 19.46 252.137 17.9 254.217 16.22C254.697 15.9 256.097 15.36 258.417 14.6C260.777 13.84 262.137 13.46 262.497 13.46C265.377 13.46 267.497 14.3 268.857 15.98C270.217 17.66 270.897 19.72 270.897 22.16ZM255.357 36.8C255.357 37.76 255.737 38.8 256.497 39.92C257.257 41.04 258.117 41.6 259.077 41.6C260.077 41.6 261.217 41.26 262.497 40.58C263.777 39.9 264.837 39.18 265.677 38.42C265.797 36.06 265.857 33.34 265.857 30.26C262.497 30.7 259.537 31.66 256.977 33.14C255.897 33.66 255.357 34.88 255.357 36.8ZM280.867 17.06L278.527 17.12C278.367 16.92 278.287 16.66 278.287 16.34C278.287 16.02 278.327 15.74 278.407 15.5C281.127 15.14 283.347 14.58 285.067 13.82C285.627 13.58 285.967 13.46 286.087 13.46C286.447 13.46 286.887 14.02 287.407 15.14C287.927 16.26 288.367 17.5 288.727 18.86C292.767 16.58 296.707 14.78 300.547 13.46C302.987 13.46 304.867 14.44 306.187 16.4C307.507 18.32 308.167 20.88 308.167 24.08L308.047 32C308.047 38.68 308.347 42.08 308.947 42.2C309.547 42.28 310.667 42.32 312.307 42.32C312.467 42.6 312.547 42.9 312.547 43.22C312.547 43.54 312.467 43.86 312.307 44.18L306.787 44C303.467 44 300.827 44.16 298.867 44.48C298.667 44.24 298.567 43.9 298.567 43.46L298.627 42.98C299.787 42.7 300.687 42.32 301.327 41.84C301.967 41.32 302.367 40.84 302.527 40.4C302.727 39.92 302.887 39.22 303.007 38.3C303.127 37.34 303.187 35.5 303.187 32.78V27.8C303.187 25 302.867 22.64 302.227 20.72C301.947 19.96 301.627 19.4 301.267 19.04C300.387 18.08 299.327 17.6 298.087 17.6C296.847 17.6 295.607 17.84 294.367 18.32C293.127 18.8 292.187 19.24 291.547 19.64C290.907 20.04 290.007 20.64 288.847 21.44C288.687 24.6 288.607 28.84 288.607 34.16C288.607 39.44 288.867 42.12 289.387 42.2C289.947 42.28 290.967 42.32 292.447 42.32C292.607 42.6 292.687 42.9 292.687 43.22C292.687 43.54 292.607 43.86 292.447 44.18L287.347 44C284.307 44 281.667 44.16 279.427 44.48C279.227 44.24 279.127 43.9 279.127 43.46L279.187 42.98C280.347 42.7 281.247 42.32 281.887 41.84C282.527 41.32 282.927 40.84 283.087 40.4C283.287 39.92 283.447 39.06 283.567 37.82C283.727 36.54 283.807 33.82 283.807 29.66C283.807 25.5 283.787 23.2 283.747 22.76C283.747 22.28 283.727 21.68 283.687 20.96C283.647 20.24 283.567 19.7 283.447 19.34C283.327 18.98 283.147 18.6 282.907 18.2C282.507 17.44 281.827 17.06 280.867 17.06ZM321.299 45.2C319.739 43.88 318.579 42.38 317.819 40.7C319.259 39.18 320.819 38.04 322.499 37.28C324.139 38.84 325.219 40.36 325.739 41.84C325.379 42.4 324.739 43.02 323.819 43.7C322.899 44.34 322.059 44.84 321.299 45.2ZM346.098 13.46C349.978 13.46 353.178 14.62 355.698 16.94C355.578 17.62 355.158 18.34 354.438 19.1C353.758 19.86 352.978 20.34 352.098 20.54C350.818 19.02 349.538 17.86 348.258 17.06C346.978 16.26 345.398 15.86 343.518 15.86C341.678 15.86 339.998 17.08 338.478 19.52C336.958 21.92 336.198 24.42 336.198 27.02C336.198 29.58 336.518 31.88 337.158 33.92C337.838 35.96 338.978 37.68 340.578 39.08C342.178 40.48 344.118 41.18 346.398 41.18C348.718 41.18 351.658 40.42 355.218 38.9C355.578 39.1 355.758 39.5 355.758 40.1L349.938 44.06C349.538 44.3 348.798 44.54 347.718 44.78C346.638 45.06 345.758 45.2 345.078 45.2C340.558 45.2 337.118 43.72 334.758 40.76C332.398 37.8 331.218 34.08 331.218 29.6C331.218 26.96 331.698 24.62 332.658 22.58C333.618 20.5 334.738 18.92 336.018 17.84C337.298 16.72 338.698 15.8 340.218 15.08C342.658 14 344.618 13.46 346.098 13.46ZM389.122 29.36C389.122 38.24 383.962 43.52 373.642 45.2C369.402 45.2 365.822 43.7 362.902 40.7C360.022 37.66 358.582 33.88 358.582 29.36C358.582 20.4 363.762 15.1 374.122 13.46C378.322 13.46 381.862 15 384.742 18.08C387.662 21.16 389.122 24.92 389.122 29.36ZM374.962 42.62C380.722 42.62 383.602 38.94 383.602 31.58C383.602 27.42 382.642 23.78 380.722 20.66C378.802 17.54 376.262 15.98 373.102 15.98C369.942 15.98 367.642 17 366.202 19.04C364.802 21.04 364.102 23.92 364.102 27.68C364.102 31.4 365.082 34.82 367.042 37.94C369.002 41.06 371.642 42.62 374.962 42.62ZM406.214 44.18L402.074 44C399.034 44 396.394 44.16 394.154 44.48C393.954 44.24 393.854 43.9 393.854 43.46L393.914 42.98C395.074 42.7 395.974 42.32 396.614 41.84C397.254 41.32 397.654 40.84 397.814 40.4C398.014 39.92 398.174 39.06 398.294 37.82C398.454 36.54 398.534 33.82 398.534 29.66C398.534 25.5 398.514 23.2 398.474 22.76C398.474 22.28 398.454 21.68 398.414 20.96C398.374 20.24 398.294 19.7 398.174 19.34C398.054 18.98 397.874 18.6 397.634 18.2C397.234 17.44 396.554 17.06 395.594 17.06L393.254 17.12C393.094 16.96 393.014 16.66 393.014 16.22L393.134 15.5C395.854 15.14 398.074 14.58 399.794 13.82C400.354 13.58 400.694 13.46 400.814 13.46C401.174 13.46 401.614 14.02 402.134 15.14C402.654 16.26 403.094 17.5 403.454 18.86C407.694 16.46 411.574 14.66 415.094 13.46C418.054 13.46 420.054 15.3 421.094 18.98C425.294 16.62 429.294 14.78 433.094 13.46C435.254 13.46 436.934 14.44 438.134 16.4C439.374 18.32 439.994 20.88 439.994 24.08L439.934 32C439.934 38.68 440.214 42.08 440.774 42.2C441.374 42.28 442.474 42.32 444.074 42.32C444.194 42.6 444.254 42.92 444.254 43.28C444.254 43.64 444.194 43.94 444.074 44.18L438.554 44C435.794 44 433.414 44.16 431.414 44.48C431.214 44.24 431.114 43.9 431.114 43.46L431.174 42.98C432.534 42.62 433.414 42.1 433.814 41.42C434.254 40.7 434.554 39.7 434.714 38.42C434.914 37.1 435.014 35.2 435.014 32.72V28.28C435.014 26 434.874 24.18 434.594 22.82C434.354 21.42 434.114 20.52 433.874 20.12C433.674 19.68 433.414 19.24 433.094 18.8C432.494 18 431.614 17.6 430.454 17.6C428.214 17.6 425.254 18.88 421.574 21.44C421.694 22.24 421.754 23.12 421.754 24.08C421.754 24.08 421.734 26.72 421.694 32C421.694 38.68 421.974 42.08 422.534 42.2C423.134 42.28 423.994 42.32 425.114 42.32C425.234 42.6 425.294 42.92 425.294 43.28C425.294 43.64 425.234 43.94 425.114 44.18L420.554 44C417.514 44 414.874 44.16 412.634 44.48C412.434 44.24 412.334 43.92 412.334 43.52L412.394 42.98C414.034 42.62 415.114 42.08 415.634 41.36C416.194 40.64 416.554 39.64 416.714 38.36C416.914 37.08 417.014 35.2 417.014 32.72V28.28C417.014 26 416.874 24.18 416.594 22.82C416.354 21.42 416.114 20.52 415.874 20.12C415.674 19.68 415.414 19.24 415.094 18.8C414.494 18 413.614 17.6 412.454 17.6C410.014 17.6 407.054 18.88 403.574 21.44C403.414 24.6 403.334 28.84 403.334 34.16C403.334 39.44 403.574 42.1 404.054 42.14C404.494 42.26 405.214 42.32 406.214 42.32C406.374 42.64 406.454 42.98 406.454 43.34C406.454 43.7 406.374 43.98 406.214 44.18Z" fill="black"/>
</svg>
