<svg width="56" height="39" viewBox="0 0 56 39" fill="none" xmlns="http://www.w3.org/2000/svg">
<path d="M30.85 1.05L35.75 0.999999C37.4167 0.999999 38.8833 0.933332 40.15 0.799998C40.3167 0.999998 40.4 1.31666 40.4 1.75L40.35 2.05C39.55 2.31666 38.95 2.75 38.55 3.35C37.8833 4.21667 35.5833 8.25 31.65 15.45L38.2 31.6L44.05 16.8C46.85 9.76667 48.4333 5.03333 48.8 2.6C48.1667 2.46667 46.9 2.4 45 2.4C44.9 2.23333 44.85 2 44.85 1.7C44.85 1.36667 44.9 1.08333 45 0.849998C47.2 0.949998 49.05 0.999999 50.55 0.999999C52.0833 0.999999 53.6833 0.866665 55.35 0.599998C55.5167 0.799997 55.6 1.08333 55.6 1.45L55.55 1.85C54.65 2.18333 53.8667 2.68333 53.2 3.35C52.5667 4.01666 51.75 5.28333 50.75 7.15C49.75 9.01667 48.9833 10.5667 48.45 11.8L37 38.95H36.15L28.55 20.4L19.6 38.95H18.75L8.25 13C6.28333 8 4.71667 4.81666 3.55 3.45C3.01667 2.85 1.85 2.31667 0.05 1.85C0.0166667 1.71667 0 1.51667 0 1.25C0 0.983331 0.0833333 0.766664 0.25 0.599998C2.38333 0.866665 4.68333 0.999999 7.15 0.999999C9.61667 0.999999 12.2167 0.949998 14.95 0.849998C15.0167 0.983331 15.05 1.21666 15.05 1.55L14.95 2.4C13.0167 2.4 11.65 2.41666 10.85 2.45C11.05 5.31667 12.4333 10.1 15 16.8L20.8 31.6L27.55 18L25.55 13C23.5167 7.93333 22.05 4.71667 21.15 3.35C20.75 2.78333 19.9667 2.35 18.8 2.05C18.7667 1.98333 18.75 1.81666 18.75 1.55C18.75 1.28333 18.8167 1.03333 18.95 0.799998C20.55 0.933332 22.7833 0.999999 25.65 0.999999L30.85 1.05ZM27 2.55C27.1333 4.61667 28.3167 8.28333 30.55 13.55C33.3167 7.35 34.8 3.68333 35 2.55C33.5 2.45 32.15 2.4 30.95 2.4L27 2.55Z" fill="#BE007F"/>
</svg>
