<svg width="380" height="179" viewBox="0 0 380 179" fill="none" xmlns="http://www.w3.org/2000/svg">
<path opacity="0.5" fill-rule="evenodd" clip-rule="evenodd" d="M28 29.7434C22.4772 29.7434 18 34.2206 18 39.7434V148.857V149.064C18 149.516 18.0748 149.95 18.2127 150.355C22.7087 166.148 97.9009 178.713 190 178.713C282.099 178.713 357.292 166.148 361.787 150.355C361.925 149.95 362 149.516 362 149.064V148.857V39.7434C362 34.2206 357.523 29.7434 352 29.7434H28Z" fill="#FFAF00"/>
<path fill-rule="evenodd" clip-rule="evenodd" d="M10 0C4.47715 0 0 4.47715 0 10V132.226C0 132.342 0.00489916 132.456 0.0145011 132.569C0.00484303 132.706 0 132.844 0 132.981C0 151.196 85.0659 165.962 190 165.962C294.934 165.962 380 151.196 380 132.981C380 132.844 379.995 132.706 379.986 132.569C379.995 132.456 380 132.342 380 132.226V10C380 4.47715 375.523 0 370 0H10Z" fill="#FFAF00"/>
<mask id="path-3-inside-1" fill="white">
<path fill-rule="evenodd" clip-rule="evenodd" d="M20 10C14.4772 10 10 14.4771 10 20V125.808C10 125.994 10.0127 126.177 10.0374 126.357C10.0125 126.555 10 126.754 10 126.954C10 142.974 90.5887 155.96 190 155.96C289.411 155.96 370 142.974 370 126.954C370 126.754 369.988 126.555 369.963 126.357C369.987 126.177 370 125.994 370 125.808V20C370 14.4772 365.523 10 360 10H20Z"/>
</mask>
<path fill-rule="evenodd" clip-rule="evenodd" d="M20 10C14.4772 10 10 14.4771 10 20V125.808C10 125.994 10.0127 126.177 10.0374 126.357C10.0125 126.555 10 126.754 10 126.954C10 142.974 90.5887 155.96 190 155.96C289.411 155.96 370 142.974 370 126.954C370 126.754 369.988 126.555 369.963 126.357C369.987 126.177 370 125.994 370 125.808V20C370 14.4772 365.523 10 360 10H20Z" fill="#FFAF00"/>
<path d="M10.0374 126.357L11.0296 126.481L11.0459 126.351L11.0281 126.221L10.0374 126.357ZM369.963 126.357L368.972 126.221L368.954 126.351L368.97 126.481L369.963 126.357ZM11 20C11 15.0294 15.0294 11 20 11V9C13.9249 9 9 13.9249 9 20H11ZM11 125.808V20H9V125.808H11ZM11.0281 126.221C11.0096 126.086 11 125.949 11 125.808H9C9 126.04 9.01585 126.269 9.04664 126.493L11.0281 126.221ZM11 126.954C11 126.796 11.0099 126.639 11.0296 126.481L9.04511 126.233C9.01512 126.472 9 126.713 9 126.954H11ZM190 154.96C140.331 154.96 95.3864 151.715 62.8799 146.477C46.6187 143.857 33.5161 140.744 24.5013 137.31C19.9886 135.591 16.559 133.812 14.2756 132.014C11.9757 130.203 11 128.505 11 126.954H9C9 129.408 10.5427 131.62 13.0383 133.585C15.5504 135.564 19.1935 137.428 23.7893 139.179C32.9915 142.685 46.2493 145.823 62.5617 148.452C95.2024 153.711 140.258 156.96 190 156.96V154.96ZM369 126.954C369 128.505 368.024 130.203 365.724 132.014C363.441 133.812 360.011 135.591 355.499 137.31C346.484 140.744 333.381 143.857 317.12 146.477C284.614 151.715 239.669 154.96 190 154.96V156.96C239.742 156.96 284.798 153.711 317.438 148.452C333.751 145.823 347.009 142.685 356.211 139.179C360.806 137.428 364.45 135.564 366.962 133.585C369.457 131.62 371 129.408 371 126.954H369ZM368.97 126.481C368.99 126.639 369 126.796 369 126.954H371C371 126.713 370.985 126.472 370.955 126.233L368.97 126.481ZM369 125.808C369 125.949 368.99 126.086 368.972 126.221L370.953 126.493C370.984 126.269 371 126.04 371 125.808H369ZM369 20V125.808H371V20H369ZM360 11C364.971 11 369 15.0294 369 20H371C371 13.9249 366.075 9 360 9V11ZM20 11H360V9H20V11Z" fill="white" mask="url(#path-3-inside-1)"/>
</svg>
