<svg width="140" height="171" viewBox="0 0 140 171" fill="none" xmlns="http://www.w3.org/2000/svg">
<path opacity="0.5" fill-rule="evenodd" clip-rule="evenodd" d="M127 -5H13V150.65V150.7C13 150.863 13.0065 151.025 13.0193 151.185C13.8131 162.176 39.0204 171 70 171C100.979 171 126.187 162.177 126.981 151.185C126.993 151.025 127 150.863 127 150.7V150.65V-5Z" fill="#FFAF00"/>
<path fill-rule="evenodd" clip-rule="evenodd" d="M140 0H0V141C0 141.088 0.00189431 141.176 0.00564438 141.263C0.00188519 141.342 0 141.421 0 141.5C0 151.717 31.3401 160 70 160C108.66 160 140 151.717 140 141.5C140 141.421 139.998 141.342 139.994 141.263C139.998 141.176 140 141.088 140 141V0Z" fill="#FFAF00"/>
<path fill-rule="evenodd" clip-rule="evenodd" d="M140 0H0V141C0 141.088 0.00189431 141.176 0.00564438 141.263C0.00188519 141.342 0 141.421 0 141.5C0 151.717 31.3401 160 70 160C108.66 160 140 151.717 140 141.5C140 141.421 139.998 141.342 139.994 141.263C139.998 141.176 140 141.088 140 141V0Z" fill="url(#paint0_linear)"/>
<mask id="path-4-inside-1" fill="white">
<path fill-rule="evenodd" clip-rule="evenodd" d="M130 -7H10V131C10 131.147 10.0053 131.293 10.0157 131.438C10.0053 131.562 10 131.687 10 131.812C10 140.753 36.8629 148 70 148C103.137 148 130 140.753 130 131.812C130 131.687 129.995 131.563 129.984 131.438C129.995 131.293 130 131.147 130 131V-7Z"/>
</mask>
<path d="M10 -7V-8H9V-7H10ZM130 -7H131V-8H130V-7ZM10.0157 131.438L11.0122 131.522L11.0188 131.444L11.0132 131.366L10.0157 131.438ZM129.984 131.438L128.987 131.366L128.981 131.444L128.988 131.522L129.984 131.438ZM10 -6H130V-8H10V-6ZM11 131V-7H9V131H11ZM11.0132 131.366C11.0044 131.245 11 131.123 11 131H9C9 131.171 9.00617 131.341 9.01833 131.51L11.0132 131.366ZM11 131.812C11 131.715 11.0041 131.619 11.0122 131.522L9.01926 131.354C9.00645 131.506 9 131.659 9 131.812H11ZM70 147C53.4934 147 38.5851 145.194 27.8341 142.293C22.4513 140.841 18.1675 139.129 15.2529 137.27C12.291 135.381 11 133.513 11 131.812H9C9 134.582 11.0669 136.972 14.1773 138.956C17.335 140.971 21.838 142.747 27.3131 144.224C38.2778 147.182 53.3696 149 70 149V147ZM129 131.812C129 133.513 127.709 135.381 124.747 137.27C121.833 139.129 117.549 140.841 112.166 142.293C101.415 145.194 86.5066 147 70 147V149C86.6304 149 101.722 147.182 112.687 144.224C118.162 142.747 122.665 140.971 125.823 138.956C128.933 136.972 131 134.582 131 131.812H129ZM128.988 131.522C128.996 131.619 129 131.715 129 131.812H131C131 131.659 130.994 131.506 130.981 131.354L128.988 131.522ZM129 131C129 131.123 128.996 131.245 128.987 131.366L130.982 131.51C130.994 131.341 131 131.171 131 131H129ZM129 -7V131H131V-7H129Z" fill="white" mask="url(#path-4-inside-1)"/>
<defs>
<linearGradient id="paint0_linear" x1="91.5" y1="-19" x2="28" y2="116" gradientUnits="userSpaceOnUse">
<stop stop-color="#FCF9B2"/>
<stop offset="1" stop-color="white" stop-opacity="0"/>
<stop offset="1" stop-color="white" stop-opacity="0"/>
</linearGradient>
</defs>
</svg>
