<svg width="161" height="89" viewBox="0 0 161 89" fill="none" xmlns="http://www.w3.org/2000/svg">
<g filter="url(#filter0_d)">
<rect x="20.6304" y="15" width="120.37" height="49" rx="24.5" fill="#EEEEEE"/>
<rect x="21.1304" y="15.5" width="119.37" height="48" rx="24" stroke="white"/>
</g>
<circle cx="74.9564" cy="39.5003" r="18.1087" fill="url(#paint0_linear)"/>
<path d="M83.022 33.6958C82.0294 32.6193 80.6675 32.0264 79.1868 32.0264C78.08 32.0264 77.0664 32.3763 76.1741 33.0663C75.7238 33.4146 75.3158 33.8407 74.9561 34.3381C74.5965 33.8409 74.1884 33.4146 73.738 33.0663C72.8458 32.3763 71.8322 32.0264 70.7254 32.0264C69.2447 32.0264 67.8826 32.6193 66.8901 33.6958C65.9094 34.7597 65.3691 36.2132 65.3691 37.7887C65.3691 39.4103 65.9734 40.8946 67.2709 42.4602C68.4315 43.8606 70.0996 45.2822 72.0313 46.9283C72.6909 47.4905 73.4385 48.1277 74.2149 48.8065C74.42 48.9861 74.6831 49.085 74.9561 49.085C75.2289 49.085 75.4922 48.9861 75.697 48.8068C76.4734 48.1278 77.2215 47.4903 77.8814 46.9279C79.8128 45.282 81.4809 43.8606 82.6415 42.46C83.9389 40.8946 84.5431 39.4103 84.5431 37.7885C84.5431 36.2132 84.0028 34.7597 83.022 33.6958Z" fill="white"/>
<circle cx="45.1302" cy="39.5003" r="18.1087" fill="url(#paint1_linear)" stroke="#EEEEEE" stroke-width="2"/>
<path d="M103.551 46.4238V44.7832C104.156 45.0827 104.804 45.3138 105.494 45.4766C106.184 45.6393 106.852 45.7207 107.496 45.7207C109.905 45.7207 111.109 44.7799 111.109 42.8984C111.109 41.2188 109.778 40.3789 107.115 40.3789H105.729V38.8848H107.135C108.255 38.8848 109.13 38.6471 109.762 38.1719C110.393 37.6901 110.709 37.026 110.709 36.1797C110.709 35.4961 110.478 34.9622 110.016 34.5781C109.56 34.194 108.925 34.002 108.111 34.002C107.48 34.002 106.894 34.0898 106.354 34.2656C105.82 34.4349 105.204 34.7474 104.508 35.2031L103.629 34.002C104.215 33.5397 104.889 33.1784 105.65 32.918C106.419 32.651 107.232 32.5176 108.092 32.5176C109.485 32.5176 110.569 32.8366 111.344 33.4746C112.125 34.1061 112.516 34.9688 112.516 36.0625C112.516 36.974 112.258 37.7227 111.744 38.3086C111.236 38.8945 110.507 39.2852 109.557 39.4805V39.5586C110.696 39.7018 111.546 40.0664 112.105 40.6523C112.672 41.2383 112.955 42 112.955 42.9375C112.955 44.2982 112.483 45.3496 111.539 46.0918C110.595 46.8275 109.241 47.1953 107.477 47.1953C106.721 47.1953 106.025 47.14 105.387 47.0293C104.755 46.9186 104.143 46.7168 103.551 46.4238ZM115.357 46.4238V44.7637C115.839 45.0501 116.419 45.278 117.096 45.4473C117.773 45.6165 118.434 45.7012 119.078 45.7012C120.198 45.7012 121.064 45.4342 121.676 44.9004C122.288 44.3665 122.594 43.6048 122.594 42.6152C122.594 40.6882 121.402 39.7246 119.02 39.7246C118.251 39.7246 117.438 39.8223 116.578 40.0176L115.699 39.4609L116.236 32.7227H123.395V34.3242H117.74L117.398 38.4648C118.147 38.3151 118.88 38.2402 119.596 38.2402C121.087 38.2402 122.258 38.6146 123.111 39.3633C123.971 40.112 124.4 41.1374 124.4 42.4395C124.4 43.9238 123.928 45.0892 122.984 45.9355C122.04 46.7754 120.732 47.1953 119.059 47.1953C117.464 47.1953 116.23 46.9382 115.357 46.4238Z" fill="#000A5A"/>
<g clip-path="url(#clip0)">
<path d="M37.5402 38.3018C36.4393 38.3018 35.543 39.1981 35.543 40.299V46.6903C35.543 47.7912 36.4393 48.6876 37.5402 48.6876H39.937C40.3868 48.6876 40.8006 48.5358 41.1353 48.2834V38.3018H37.5402Z" fill="white"/>
<path d="M54.7172 41.2975C54.7172 40.8174 54.527 40.37 54.1971 40.04C54.5702 39.6318 54.7603 39.0845 54.7084 38.5149C54.6149 37.4995 53.7001 36.7038 52.6248 36.7038H47.6899C47.9344 35.9616 48.3258 34.6011 48.3258 33.5081C48.3258 31.7753 46.8535 30.3125 45.9291 30.3125C45.0991 30.3125 44.5062 30.7799 44.4807 30.799C44.3864 30.8749 44.3313 30.99 44.3313 31.1114V33.8205L42.0304 38.8049L41.9346 38.8537V47.4164C42.5849 47.7232 43.4077 47.8886 43.9318 47.8886H51.2651C52.1351 47.8886 52.8965 47.3022 53.0754 46.4929C53.1673 46.0766 53.1137 45.6572 52.9308 45.2929C53.5212 44.9957 53.9183 44.3877 53.9183 43.6943C53.9183 43.4115 53.8536 43.1406 53.7305 42.8954C54.3209 42.5982 54.7172 41.9902 54.7172 41.2975Z" fill="white"/>
</g>
<defs>
<filter id="filter0_d" x="0.630371" y="0" width="160.37" height="89" filterUnits="userSpaceOnUse" color-interpolation-filters="sRGB">
<feFlood flood-opacity="0" result="BackgroundImageFix"/>
<feColorMatrix in="SourceAlpha" type="matrix" values="0 0 0 0 0 0 0 0 0 0 0 0 0 0 0 0 0 0 127 0"/>
<feOffset dy="5"/>
<feGaussianBlur stdDeviation="10"/>
<feColorMatrix type="matrix" values="0 0 0 0 0.279167 0 0 0 0 0.279167 0 0 0 0 0.279167 0 0 0 0.2 0"/>
<feBlend mode="normal" in2="BackgroundImageFix" result="effect1_dropShadow"/>
<feBlend mode="normal" in="SourceGraphic" in2="effect1_dropShadow" result="shape"/>
</filter>
<linearGradient id="paint0_linear" x1="74.9564" y1="21.3916" x2="74.9564" y2="57.609" gradientUnits="userSpaceOnUse">
<stop stop-color="#FFB4B4"/>
<stop offset="1" stop-color="#E80000"/>
</linearGradient>
<linearGradient id="paint1_linear" x1="45.1302" y1="21.3916" x2="45.1302" y2="57.609" gradientUnits="userSpaceOnUse">
<stop stop-color="#81D1FF"/>
<stop offset="1" stop-color="#0C24FF"/>
</linearGradient>
<clipPath id="clip0">
<rect width="19.1739" height="19.1739" fill="white" transform="translate(35.543 29.9131)"/>
</clipPath>
</defs>
</svg>
