<svg width="90" height="91" viewBox="0 0 90 91" fill="none" xmlns="http://www.w3.org/2000/svg">
<circle opacity="0.5" cx="45" cy="45.5" r="45" fill="url(#paint0_linear)"/>
<circle opacity="0.5" cx="45" cy="45.5" r="35" fill="url(#paint1_linear)"/>
<g clip-path="url(#clip0)">
<path d="M53.8281 31.125C51.9504 31.125 50.1797 31.5913 48.6246 32.4131C48.4109 32.1516 48.2147 31.8776 48.0386 31.5925C47.2772 30.3608 46.875 28.9445 46.875 27.4968V26.6719C46.875 26.0246 46.3504 25.5 45.7031 25.5H41.0156C40.3683 25.5 39.8438 26.0246 39.8438 26.6719V27.4968C39.8438 30.2513 40.6091 32.946 42.0575 35.2891C42.5452 36.078 43.1079 36.8208 43.736 37.5059C43.0441 38.9573 42.6562 40.5797 42.6562 42.2905L42.6056 51.4293C42.6022 51.9923 42.3059 52.4907 41.8127 52.7623C41.3193 53.0339 40.7397 53.0177 40.2621 52.7192C38.6749 51.7274 36.8469 51.2031 34.9753 51.2031C29.4748 51.2031 25 55.6779 25 61.1784V64.3281C25 64.9754 25.5246 65.5 26.1719 65.5H30.8594C31.5067 65.5 32.0312 64.9754 32.0312 64.3281V61.1586C32.0312 60.4078 32.6419 59.7969 33.3929 59.7969C33.7332 59.7969 34.0591 59.9232 34.3106 60.1527L35.0467 60.8244C38.3508 63.8395 42.6343 65.5 47.1072 65.5C51.8866 65.5 56.38 63.6387 59.7595 60.2595C63.1387 56.8797 65 52.3866 65 47.6072V42.2969C65 36.1366 59.9884 31.125 53.8281 31.125ZM44.0512 34.0568C42.8928 32.1827 42.2534 30.0416 42.1924 27.8438H44.537C44.5975 29.6058 45.1157 31.3212 46.0449 32.8248C46.2366 33.1349 46.4468 33.4349 46.6727 33.7239C46.0669 34.2299 45.5154 34.7984 45.0284 35.42C44.6725 34.9876 44.3451 34.5326 44.0512 34.0568ZM62.6562 47.6072C62.6562 56.1812 55.6812 63.1562 47.1072 63.1562C43.2202 63.1562 39.498 61.7131 36.6266 59.0931L35.8902 58.4211C35.206 57.7971 34.3192 57.4531 33.3929 57.4531C31.3498 57.4531 29.6875 59.1154 29.6875 61.1586V63.1562H27.3438V61.1784C27.3438 56.9703 30.7672 53.5469 34.9753 53.5469C36.4072 53.5469 37.8058 53.9482 39.0198 54.7068C40.2283 55.4622 41.6946 55.5027 42.9428 54.8155C44.191 54.1282 44.9411 52.8672 44.9493 51.4424L45 42.2969C45 37.429 48.9603 33.4688 53.8281 33.4688C58.696 33.4688 62.6562 37.429 62.6562 42.2969V47.6072Z" fill="white"/>
</g>
<defs>
<linearGradient id="paint0_linear" x1="45" y1="0.5" x2="45" y2="90.5" gradientUnits="userSpaceOnUse">
<stop stop-color="#FFB000"/>
<stop offset="1" stop-color="#F3ED4E"/>
</linearGradient>
<linearGradient id="paint1_linear" x1="45" y1="10.5" x2="45" y2="80.5" gradientUnits="userSpaceOnUse">
<stop stop-color="#FFB000"/>
<stop offset="1" stop-color="#F3ED4E"/>
</linearGradient>
<clipPath id="clip0">
<rect width="40" height="40" fill="white" transform="translate(25 25.5)"/>
</clipPath>
</defs>
</svg>
