<svg width="58" height="72" viewBox="0 0 58 72" fill="none" xmlns="http://www.w3.org/2000/svg">
<path d="M39.7 28.4004C45.5 29.6004 49.9333 32.0004 53 35.6004C56.1333 39.1337 57.7 43.4337 57.7 48.5004C57.7 52.6337 56.5667 56.4671 54.3 60.0004C52.1 63.5337 48.7 66.4004 44.1 68.6004C39.5667 70.7337 33.9333 71.8004 27.2 71.8004C22.2667 71.8004 17.3667 71.2004 12.5 70.0004C7.7 68.8004 3.53333 67.1004 0 64.9004L7.2 50.0004C9.93333 51.8671 13 53.3004 16.4 54.3004C19.8667 55.3004 23.2667 55.8004 26.6 55.8004C30 55.8004 32.7 55.1671 34.7 53.9004C36.7 52.6337 37.7 50.8337 37.7 48.5004C37.7 43.9671 34.1333 41.7004 27 41.7004H18.7V29.2004L31.2 15.7004H3.6V0.400391H54.2V12.8004L39.7 28.4004Z" fill="white"/>
</svg>
