<svg width="65" height="72" viewBox="0 0 65 72" fill="none" xmlns="http://www.w3.org/2000/svg">
<path d="M62.812 0.7473C61.6713 1.23548 60.5025 1.6776 59.3525 2.12893C59.1842 2.19341 58.9878 2.21183 58.8008 2.24868C58.7821 2.20262 58.754 2.15657 58.7353 2.11972C59.5301 1.53023 60.3342 0.94994 61.129 0.360443C61.101 0.314388 61.0823 0.268334 61.0542 0.23149C59.8854 0.498606 58.6886 0.673613 57.5666 1.15258C57.5479 1.09731 57.5198 1.04205 57.5011 0.995994C57.8097 0.728878 58.1089 0.461762 58.4174 0.203857C58.4081 0.194647 58.3987 0.176225 58.3894 0.167014C57.6788 0.53545 56.9682 0.913096 56.2482 1.28153C56.2295 1.2539 56.2201 1.22627 56.2014 1.19863C56.8653 0.802565 57.5292 0.406497 58.193 0.0104287C57.2861 -0.0540476 56.4632 0.185436 55.6498 0.590715C53.0036 1.90787 50.4791 3.41846 48.1696 5.26985C45.7946 7.1765 43.6908 9.35027 41.7086 11.6438C37.3046 16.7374 33.3027 22.1074 30.4041 28.205C30.3293 28.3708 30.2265 28.4629 30.0862 28.5089C29.3008 30.7103 28.7865 33.0499 27.5055 34.9842C27.1689 35.9053 26.8136 36.8264 26.477 37.7567C24.9436 42.0674 23.6065 46.4425 22.4471 50.873C22.4377 50.9006 22.419 50.9282 22.3723 51.0388C22.2133 50.8085 22.0731 50.6335 21.9609 50.4308C20.9043 48.6255 19.8664 46.8018 18.8098 44.9964C17.2296 42.3161 15.6494 39.6357 14.0599 36.9645C13.368 35.804 12.1992 35.196 11.0772 35.4355C10.5816 35.5368 10.0767 35.6934 9.63724 35.9329C9.33804 36.0987 9.05753 36.4303 8.93597 36.7435C8.77702 37.1764 8.56197 37.2777 8.15055 37.2132C7.9542 37.1764 7.74849 37.204 7.45864 37.204C7.59889 37.5909 7.72979 37.9409 7.83265 38.2909C7.9355 38.6317 8.00095 38.9817 8.07575 39.3225C8.01965 39.3501 7.9729 39.3778 7.9168 39.4054C7.34643 38.8067 6.76672 38.2172 6.19636 37.6185C6.1309 37.6553 6.06545 37.6922 6 37.7198C6.23376 38.4198 6.39271 39.1659 6.71997 39.8199C7.7672 41.8924 8.86117 43.9464 9.9832 45.982C12.4143 50.4032 15.1632 54.6587 17.267 59.2549C17.8748 60.572 18.2956 61.9813 18.7444 63.3629C18.922 63.9248 19.2119 64.2932 19.7449 64.5327C22.5032 65.767 26.3181 64.459 27.5803 61.751C27.9918 60.8668 28.1227 59.872 28.4032 58.9325C29.8992 53.931 31.3017 48.9018 32.9287 43.9464C33.8263 41.22 34.9483 38.558 36.0143 35.8776C36.3789 34.0907 37.1737 32.4512 37.8469 30.7472C38.2209 29.8169 38.81 28.076 39.8853 27.5142C40.8577 25.6996 41.8301 23.8851 42.8212 22.0797C44.71 18.6441 46.8418 15.3742 49.4412 12.4083C51.9377 9.56212 54.7054 7.01071 57.8284 4.84615C59.82 3.46451 61.9331 2.29473 64.1211 1.23548C64.4016 1.10652 64.6447 0.913096 65 0.682824C64.1585 0.305177 63.4946 0.452551 62.812 0.7473Z" fill="#7FE5E6"/>
<rect x="2" y="30" width="40" height="40" rx="8" stroke="#7FE5E5" stroke-width="4"/>
</svg>
