<svg width="73" height="60" viewBox="0 0 73 60" fill="none" xmlns="http://www.w3.org/2000/svg">
<g filter="url(#filter0_d)">
<rect x="2" width="65" height="26" rx="13" fill="white"/>
</g>
<path d="M49.9629 8.46289V9.38281H49.7637C48.9199 9.39844 48.248 9.64844 47.748 10.1328C47.248 10.6172 46.959 11.2988 46.8809 12.1777C47.3301 11.6621 47.9434 11.4043 48.7207 11.4043C49.4629 11.4043 50.0547 11.666 50.4961 12.1895C50.9414 12.7129 51.1641 13.3887 51.1641 14.2168C51.1641 15.0957 50.9238 15.7988 50.4434 16.3262C49.9668 16.8535 49.3262 17.1172 48.5215 17.1172C47.7051 17.1172 47.043 16.8047 46.5352 16.1797C46.0273 15.5508 45.7734 14.7422 45.7734 13.7539V13.3379C45.7734 11.7676 46.1074 10.5684 46.7754 9.74023C47.4473 8.9082 48.4453 8.48242 49.7695 8.46289H49.9629ZM48.5391 12.3066C48.168 12.3066 47.8262 12.418 47.5137 12.6406C47.2012 12.8633 46.9844 13.1426 46.8633 13.4785V13.877C46.8633 14.5801 47.0215 15.1465 47.3379 15.5762C47.6543 16.0059 48.0488 16.2207 48.5215 16.2207C49.0098 16.2207 49.3926 16.041 49.6699 15.6816C49.9512 15.3223 50.0918 14.8516 50.0918 14.2695C50.0918 13.6836 49.9492 13.2109 49.6641 12.8516C49.3828 12.4883 49.0078 12.3066 48.5391 12.3066ZM52.9453 12.7227L53.3789 8.46875H57.75V9.4707H54.2988L54.041 11.7969C54.459 11.5508 54.9336 11.4277 55.4648 11.4277C56.2422 11.4277 56.8594 11.6855 57.3164 12.2012C57.7734 12.7129 58.002 13.4062 58.002 14.2812C58.002 15.1602 57.7637 15.8535 57.2871 16.3613C56.8145 16.8652 56.1523 17.1172 55.3008 17.1172C54.5469 17.1172 53.9316 16.9082 53.4551 16.4902C52.9785 16.0723 52.707 15.4941 52.6406 14.7559H53.666C53.7324 15.2441 53.9062 15.6133 54.1875 15.8633C54.4688 16.1094 54.8398 16.2324 55.3008 16.2324C55.8047 16.2324 56.1992 16.0605 56.4844 15.7168C56.7734 15.373 56.918 14.8984 56.918 14.293C56.918 13.7227 56.7617 13.2656 56.4492 12.9219C56.1406 12.5742 55.7285 12.4004 55.2129 12.4004C54.7402 12.4004 54.3691 12.5039 54.0996 12.7109L53.8125 12.9453L52.9453 12.7227Z" fill="#B5B5B5"/>
<circle cx="33" cy="13" r="9" fill="url(#paint0_linear)"/>
<circle cx="17" cy="13" r="10" fill="url(#paint1_linear)" stroke="white" stroke-width="2"/>
<path d="M33.5 17C33.3719 17 33.2483 16.9536 33.1521 16.8694C32.7885 16.5517 32.438 16.2533 32.1287 15.9899L32.1271 15.9886C31.2204 15.2166 30.4374 14.5499 29.8926 13.8931C29.2837 13.159 29 12.4628 29 11.7024C29 10.9635 29.2536 10.2819 29.714 9.7829C30.1799 9.27805 30.8191 9 31.5142 9C32.0337 9 32.5095 9.1641 32.9283 9.4877C33.1396 9.65105 33.3312 9.85096 33.5 10.0841C33.6688 9.85096 33.8604 9.65105 34.0718 9.4877C34.4906 9.1641 34.9663 9 35.4858 9C36.1809 9 36.8202 9.27805 37.2861 9.7829C37.7465 10.2819 38 10.9635 38 11.7024C38 12.4628 37.7164 13.159 37.1074 13.8931C36.5626 14.5499 35.7797 15.2165 34.8732 15.9884C34.5633 16.2522 34.2123 16.5511 33.8479 16.8695C33.7517 16.9536 33.6281 17 33.5 17Z" fill="white"/>
<g clip-path="url(#clip0)">
<path d="M13.0417 11.375C12.4675 11.375 12 11.8425 12 12.4167V15.75C12 16.3242 12.4675 16.7917 13.0417 16.7917H14.2917C14.5262 16.7917 14.7421 16.7125 14.9167 16.5808V11.375H13.0417Z" fill="white"/>
<path d="M22 12.9372C22 12.6868 21.9009 12.4534 21.7288 12.2813C21.9234 12.0684 22.0225 11.783 21.9954 11.4859C21.9467 10.9563 21.4696 10.5413 20.9088 10.5413H18.335C18.4625 10.1542 18.6667 9.44467 18.6667 8.87467C18.6667 7.97092 17.8988 7.20801 17.4167 7.20801C16.9838 7.20801 16.6746 7.45176 16.6613 7.46176C16.6121 7.50135 16.5834 7.56135 16.5834 7.62467V9.03758L15.3834 11.6372L15.3334 11.6626V16.1284C15.6725 16.2884 16.1017 16.3747 16.375 16.3747H20.1996C20.6534 16.3747 21.0505 16.0688 21.1438 15.6468C21.1917 15.4297 21.1638 15.2109 21.0684 15.0209C21.3763 14.8659 21.5834 14.5488 21.5834 14.1872C21.5834 14.0397 21.5496 13.8984 21.4855 13.7705C21.7934 13.6155 22 13.2984 22 12.9372Z" fill="white"/>
</g>
<defs>
<filter id="filter0_d" x="0" y="0" width="69" height="30" filterUnits="userSpaceOnUse" color-interpolation-filters="sRGB">
<feFlood flood-opacity="0" result="BackgroundImageFix"/>
<feColorMatrix in="SourceAlpha" type="matrix" values="0 0 0 0 0 0 0 0 0 0 0 0 0 0 0 0 0 0 127 0"/>
<feOffset dy="2"/>
<feGaussianBlur stdDeviation="1"/>
<feColorMatrix type="matrix" values="0 0 0 0 0 0 0 0 0 0 0 0 0 0 0 0 0 0 0.25 0"/>
<feBlend mode="normal" in2="BackgroundImageFix" result="effect1_dropShadow"/>
<feBlend mode="normal" in="SourceGraphic" in2="effect1_dropShadow" result="shape"/>
</filter>
<linearGradient id="paint0_linear" x1="33" y1="4" x2="33" y2="22" gradientUnits="userSpaceOnUse">
<stop stop-color="#E36C7D"/>
<stop offset="1" stop-color="#D63E5B"/>
</linearGradient>
<linearGradient id="paint1_linear" x1="17" y1="4" x2="17" y2="22" gradientUnits="userSpaceOnUse">
<stop stop-color="#379BE1"/>
<stop offset="1" stop-color="#1F62E5"/>
</linearGradient>
<clipPath id="clip0">
<rect width="10" height="10" fill="white" transform="translate(12 7)"/>
</clipPath>
</defs>
</svg>
