<svg width="57" height="46" viewBox="0 0 57 46" fill="none" xmlns="http://www.w3.org/2000/svg">
<path d="M5.67773 42.7383C9.42773 41.1562 12.6504 38.666 15.3457 35.2676C18.041 31.9277 19.3887 28.5293 19.3887 25.0723C19.3887 23.6074 19.2129 22.3477 18.8613 21.293C16.8105 22.875 14.584 23.666 12.1816 23.666C8.90039 23.666 6.17578 22.6113 4.00781 20.502C1.78125 18.4512 0.667969 15.668 0.667969 12.1523C0.667969 8.87109 1.78125 6.11719 4.00781 3.89062C6.23438 1.72266 8.95898 0.638672 12.1816 0.638672C16.8105 0.638672 20.3555 2.54297 22.8164 6.35156C24.8672 9.51562 25.8926 13.4707 25.8926 18.2168C25.8926 24.252 24.3691 29.6426 21.3223 34.3887C18.2168 39.1934 13.5586 43.0605 7.34766 45.9902L5.67773 42.7383ZM36.2637 42.7383C40.0137 41.1562 43.2363 38.666 45.9316 35.2676C48.627 31.9277 49.9746 28.5293 49.9746 25.0723C49.9746 23.6074 49.7988 22.3477 49.4473 21.293C47.4551 22.875 45.2285 23.666 42.7676 23.666C39.5449 23.666 36.8203 22.6113 34.5938 20.502C32.3672 18.4512 31.2539 15.668 31.2539 12.1523C31.2539 9.98438 31.7812 8.02148 32.8359 6.26367C33.8906 4.50586 35.2969 3.12891 37.0547 2.13281C38.8125 1.13672 40.7168 0.638672 42.7676 0.638672C47.3965 0.638672 50.9414 2.54297 53.4023 6.35156C55.4531 9.51562 56.4785 13.4707 56.4785 18.2168C56.4785 24.252 54.9551 29.6426 51.9082 34.3887C48.8027 39.1934 44.1445 43.0605 37.9336 45.9902L36.2637 42.7383Z" fill="#765CC1"/>
</svg>
