<svg width="57" height="46" viewBox="0 0 57 46" fill="none" xmlns="http://www.w3.org/2000/svg">
<path d="M51.4395 3.26172C47.6895 4.84375 44.4668 7.33398 41.7715 10.7324C39.0762 14.0723 37.7285 17.4707 37.7285 20.9277C37.7285 22.3926 37.9043 23.6523 38.2559 24.707C40.3066 23.125 42.5332 22.334 44.9355 22.334C48.2168 22.334 50.9414 23.3887 53.1094 25.498C55.3359 27.5488 56.4492 30.332 56.4492 33.8477C56.4492 37.1289 55.3359 39.8828 53.1094 42.1094C50.8828 44.2773 48.1582 45.3613 44.9355 45.3613C40.3066 45.3613 36.7617 43.457 34.3008 39.6484C32.25 36.4844 31.2246 32.5293 31.2246 27.7832C31.2246 21.748 32.748 16.3574 35.7949 11.6113C38.9004 6.80664 43.5586 2.93945 49.7695 0.00976562L51.4395 3.26172ZM20.8535 3.26172C17.1035 4.84375 13.8809 7.33398 11.1855 10.7324C8.49023 14.0723 7.14258 17.4707 7.14258 20.9277C7.14258 22.3926 7.31836 23.6523 7.66992 24.707C9.66211 23.125 11.8887 22.334 14.3496 22.334C17.5723 22.334 20.2969 23.3887 22.5234 25.498C24.75 27.5488 25.8633 30.332 25.8633 33.8477C25.8633 36.0156 25.3359 37.9785 24.2812 39.7363C23.2266 41.4941 21.8203 42.8711 20.0625 43.8672C18.3047 44.8633 16.4004 45.3613 14.3496 45.3613C9.7207 45.3613 6.17578 43.457 3.71484 39.6484C1.66406 36.4844 0.638672 32.5293 0.638672 27.7832C0.638672 21.748 2.16211 16.3574 5.20898 11.6113C8.31445 6.80664 12.9727 2.93945 19.1836 0.00976562L20.8535 3.26172Z" fill="#765CC1"/>
</svg>
