<svg width="20" height="127" viewBox="0 0 20 127" fill="none" xmlns="http://www.w3.org/2000/svg">
<path d="M2.84 -8.58307e-06H17.96L15.26 88.2H5.36L2.84 -8.58307e-06ZM10.4 126.9C7.76 126.9 5.48 126 3.56 124.2C1.76 122.28 0.860001 120.06 0.860001 117.54C0.860001 114.9 1.76 112.74 3.56 111.06C5.36 109.26 7.64 108.36 10.4 108.36C13.04 108.36 15.26 109.26 17.06 111.06C18.86 112.74 19.76 114.9 19.76 117.54C19.76 120.06 18.86 122.28 17.06 124.2C15.26 126 13.04 126.9 10.4 126.9Z" fill="#BC1570"/>
</svg>
