<svg width="22" height="13" viewBox="0 0 22 13" fill="none" xmlns="http://www.w3.org/2000/svg">
<path d="M21.9349 1.17296C21.624 0.122009 20.3881 -0.147022 19.6909 0.564887C18.4984 1.78261 17.3173 3.01291 16.1317 4.23771C14.5773 5.84245 13.0229 7.4472 11.4684 9.05195C11.2292 9.29895 10.9427 9.40121 10.6325 9.23838C10.4504 9.14241 10.3049 8.9725 10.1106 8.80887C10.6447 8.2598 11.1598 7.7296 11.6719 7.20256L12.0978 6.78564C12.1047 6.78957 12.1131 6.79508 12.1245 6.80216C12.2144 6.69989 12.3051 6.5874 12.4049 6.48514C13.7208 5.12425 15.0413 3.76651 16.3542 2.40326C16.7306 2.0123 16.848 1.53009 16.7001 1.00462C16.4144 -0.0101466 15.1709 -0.338176 14.4447 0.402839C13.653 1.21151 12.8674 2.02725 12.0788 2.83985C10.9655 3.98834 9.85303 5.13684 8.73979 6.28533C7.88257 7.16952 7.02687 8.05449 6.1666 8.93474C5.89534 9.21242 5.46559 9.20927 5.19509 8.92923C4.46816 8.17642 3.74505 7.41809 3.01127 6.65191C3.00974 6.6582 3.00746 6.66371 3.00593 6.66921L2.69428 6.35377C2.5678 6.21296 2.43445 6.07923 2.29882 5.94786C1.8744 5.53881 1.28463 5.46093 0.794682 5.69221C-0.0716827 6.10126 -0.270558 7.27178 0.401504 7.96717C1.8043 9.41852 3.21243 10.8659 4.61522 12.3181C4.86439 12.5761 5.16461 12.7381 5.50292 12.8019C5.93649 12.8837 6.32357 12.7539 6.63979 12.429C7.12669 11.9279 7.61131 11.4245 8.09668 10.9218C8.21784 10.7967 8.21708 10.7967 8.34052 10.9249C8.88228 11.4858 9.42252 12.049 9.96657 12.6068C10.4809 13.1338 11.3625 13.1299 11.8723 12.6021C12.1191 12.3464 12.3645 12.0884 12.6114 11.8327C15.6037 8.74516 18.5975 5.65917 21.5882 2.56925C21.9684 2.18143 22.0888 1.69529 21.9349 1.17296Z" fill="#36D8DF"/>
</svg>
