<svg width="85" height="85" viewBox="0 0 85 85" fill="none" xmlns="http://www.w3.org/2000/svg">
<circle cx="42.5" cy="42.5" r="41.5" stroke="#4FAFE2" stroke-width="2" stroke-dasharray="4 4"/>
<path d="M24.3828 46.7657C24.3121 46.7355 24.236 46.7195 24.1591 46.7187C24.0822 46.7178 24.0058 46.7322 23.9344 46.7609C23.863 46.7895 23.7979 46.832 23.7429 46.8858C23.688 46.9397 23.6441 47.0038 23.6139 47.0746C23.0829 48.3186 22.7763 49.787 22.7026 51.4387C22.6956 51.594 22.7506 51.7456 22.8555 51.8603C22.9604 51.975 23.1065 52.0433 23.2617 52.0503C23.2706 52.0506 23.2795 52.0508 23.2884 52.0508C23.4392 52.0507 23.5841 51.9925 23.6931 51.8882C23.802 51.784 23.8665 51.6417 23.8733 51.4911C23.9408 49.9801 24.2161 48.6493 24.6917 47.5346C24.7219 47.4639 24.7379 47.3878 24.7387 47.3109C24.7396 47.2339 24.7252 47.1576 24.6965 47.0862C24.6679 47.0148 24.6254 46.9497 24.5716 46.8947C24.5177 46.8397 24.4536 46.7959 24.3828 46.7657Z" fill="black"/>
<path d="M24.7369 46.1346C24.7986 46.1806 24.8688 46.214 24.9435 46.2329C25.0181 46.2518 25.0958 46.2558 25.1719 46.2446C25.2481 46.2335 25.3214 46.2074 25.3875 46.168C25.4536 46.1285 25.5113 46.0764 25.5572 46.0146C25.6422 45.9004 25.731 45.7887 25.8209 45.6826C25.9193 45.5638 25.9669 45.411 25.9534 45.2573C25.9399 45.1036 25.8662 44.9615 25.7486 44.8617C25.6309 44.762 25.4786 44.7127 25.3248 44.7245C25.1709 44.7363 25.028 44.8084 24.9269 44.9249C24.821 45.05 24.7168 45.1811 24.6172 45.3148C24.5244 45.4394 24.4848 45.5958 24.5073 45.7495C24.5297 45.9032 24.6123 46.0418 24.7369 46.1346Z" fill="black"/>
<path d="M58.3542 35.6094C58.4551 35.7246 58.5971 35.7958 58.7498 35.8077C58.9025 35.8195 59.0537 35.7711 59.1712 35.6728C59.2886 35.5745 59.3629 35.4341 59.3782 35.2817C59.3934 35.1293 59.3483 34.977 59.2526 34.8574C59.1827 34.7732 58.5397 34.033 57.5002 33.9605C56.7811 33.91 56.0765 34.1921 55.4108 34.7985C55.3529 34.8501 55.3058 34.9126 55.2723 34.9824C55.2387 35.0523 55.2193 35.1281 55.2153 35.2055C55.2112 35.2829 55.2226 35.3604 55.2486 35.4334C55.2747 35.5064 55.315 35.5735 55.3672 35.6308C55.4194 35.6881 55.4825 35.7344 55.5527 35.7672C55.623 35.8 55.699 35.8185 55.7764 35.8216C55.8539 35.8248 55.9312 35.8126 56.0039 35.7857C56.0766 35.7587 56.1432 35.7177 56.1999 35.6648C56.6161 35.2858 57.0217 35.1054 57.4087 35.1289C57.957 35.162 58.3415 35.5947 58.3542 35.6094Z" fill="black"/>
<path d="M51.3179 34.8574C51.2479 34.7732 50.605 34.0329 49.5654 33.9605C48.8428 33.9102 48.1417 34.1922 47.4756 34.7985C47.4187 34.8503 47.3726 34.9128 47.3399 34.9825C47.3071 35.0521 47.2885 35.1275 47.2849 35.2044C47.2813 35.2813 47.2929 35.3581 47.319 35.4305C47.3451 35.5028 47.3852 35.5694 47.4371 35.6263C47.4889 35.6831 47.5514 35.7293 47.621 35.762C47.6907 35.7947 47.7661 35.8134 47.843 35.817C47.9982 35.8242 48.15 35.7694 48.2648 35.6648C48.681 35.2858 49.0875 35.1053 49.4734 35.1288C50.0203 35.162 50.405 35.5938 50.4185 35.6093C50.5194 35.7246 50.6614 35.7957 50.8141 35.8076C50.9668 35.8195 51.1181 35.7711 51.2355 35.6728C51.353 35.5745 51.4273 35.4341 51.4425 35.2817C51.4577 35.1293 51.4127 34.977 51.317 34.8574H51.3179Z" fill="black"/>
<path d="M54.4399 40.9988C54.0238 41.3779 53.6175 41.5592 53.2313 41.5347C52.6839 41.5015 52.2996 41.0697 52.2861 41.0542C52.1853 40.939 52.0433 40.8678 51.8906 40.856C51.7379 40.8441 51.5866 40.8925 51.4691 40.9908C51.3517 41.0891 51.2774 41.2295 51.2622 41.3819C51.2469 41.5343 51.292 41.6866 51.3877 41.8062C51.4575 41.8903 52.1006 42.6306 53.1401 42.7031C53.1947 42.7068 53.2491 42.7087 53.3034 42.7087C53.9675 42.7087 54.6143 42.4255 55.2295 41.8651C55.3444 41.7604 55.413 41.6144 55.4202 41.4592C55.4275 41.3039 55.3727 41.1521 55.2681 41.0373C55.1634 40.9224 55.0174 40.8538 54.8621 40.8465C54.7069 40.8393 54.5551 40.894 54.4402 40.9987L54.4399 40.9988Z" fill="black"/>
<path d="M47.9375 38.6202C47.6394 38.6199 47.3478 38.7079 47.0997 38.8733C46.8517 39.0387 46.6582 39.2739 46.5439 39.5493C46.4295 39.8246 46.3994 40.1277 46.4573 40.4201C46.5153 40.7126 46.6587 40.9813 46.8694 41.1922C47.08 41.4032 47.3486 41.5469 47.641 41.6052C47.9333 41.6635 48.2364 41.6338 48.5119 41.5198C48.7874 41.4058 49.0229 41.2126 49.1886 40.9647C49.3542 40.7169 49.4427 40.4254 49.4427 40.1273C49.4425 39.728 49.2839 39.345 49.0017 39.0625C48.7195 38.78 48.3368 38.6209 47.9375 38.6202ZM47.9375 40.4624C47.8711 40.4628 47.8061 40.4435 47.7508 40.4069C47.6954 40.3702 47.6522 40.318 47.6265 40.2568C47.6009 40.1956 47.594 40.1282 47.6067 40.063C47.6194 39.9979 47.6512 39.938 47.698 39.8909C47.7448 39.8439 47.8045 39.8118 47.8696 39.7987C47.9346 39.7856 48.0021 39.7921 48.0635 39.8175C48.1248 39.8428 48.1773 39.8857 48.2142 39.9409C48.2511 39.996 48.2708 40.0609 48.2708 40.1273C48.271 40.2159 48.2359 40.3009 48.1735 40.3638C48.111 40.4266 48.0261 40.4621 47.9375 40.4624Z" fill="black"/>
<path d="M59.5755 38.6202C59.2774 38.6199 58.9858 38.7079 58.7378 38.8733C58.4897 39.0387 58.2962 39.2739 58.1819 39.5493C58.0675 39.8246 58.0374 40.1277 58.0954 40.4201C58.1533 40.7126 58.2967 40.9813 58.5074 41.1922C58.7181 41.4032 58.9866 41.5469 59.279 41.6052C59.5714 41.6635 59.8745 41.6338 60.1499 41.5198C60.4254 41.4058 60.6609 41.2126 60.8266 40.9647C60.9923 40.7169 61.0807 40.4254 61.0807 40.1273C61.0805 39.728 60.9219 39.3451 60.6397 39.0626C60.3575 38.78 59.9748 38.621 59.5755 38.6202ZM59.5755 40.4624C59.5092 40.4628 59.4442 40.4435 59.3888 40.4069C59.3335 40.3702 59.2902 40.318 59.2646 40.2568C59.2389 40.1956 59.232 40.1282 59.2447 40.063C59.2574 39.9979 59.2892 39.938 59.336 39.8909C59.3828 39.8439 59.4425 39.8118 59.5076 39.7987C59.5727 39.7856 59.6401 39.7921 59.7015 39.8175C59.7628 39.8428 59.8153 39.8857 59.8522 39.9409C59.8891 39.996 59.9088 40.0609 59.9088 40.1273C59.9089 40.2159 59.8739 40.3009 59.8115 40.3638C59.749 40.4266 59.6641 40.4621 59.5755 40.4624Z" fill="black"/>
<path d="M38.9857 33.6873C38.831 33.6734 38.677 33.7215 38.5577 33.8212C38.4384 33.9208 38.3636 34.0637 38.3497 34.2185C38.3357 34.3733 38.3839 34.5273 38.4835 34.6465C38.5831 34.7658 38.7261 34.8407 38.8809 34.8546C39.2471 34.8874 39.3 35.4901 39.3016 35.5099C39.3112 35.6583 39.377 35.7975 39.4854 35.8993C39.5939 36.001 39.737 36.0577 39.8857 36.0578C39.8973 36.0578 39.9089 36.0578 39.9205 36.0568C39.9973 36.0523 40.0725 36.0327 40.1418 35.9992C40.211 35.9656 40.273 35.9188 40.3241 35.8613C40.3752 35.8038 40.4146 35.7367 40.4398 35.664C40.465 35.5914 40.4757 35.5144 40.4712 35.4376C40.4384 34.8755 40.0859 33.7862 38.9857 33.6873Z" fill="black"/>
<path d="M64.6554 34.3464C64.6554 31.2507 63.5352 28.3087 61.4123 25.8112C61.8081 24.9972 61.8262 23.9513 61.4132 22.9451C61.2887 22.6424 61.3827 22.3486 61.5461 21.8944C61.7926 21.2102 62.13 20.2733 61.123 19.2565C60.2278 18.3529 59.2073 17.9241 58.09 17.9812C56.2033 18.0778 54.6078 19.5649 53.9787 20.237C53.9124 20.2257 53.8452 20.2199 53.7779 20.2196H50.734C50.6401 20.2199 50.5466 20.2303 50.455 20.2505C49.8564 19.5756 48.4077 18.1727 46.578 17.9993C45.39 17.8867 44.2715 18.3032 43.2512 19.2368C42.1748 20.2214 42.5463 21.2232 42.7922 21.886C42.9638 22.3488 43.0628 22.6478 42.9404 22.9454C42.8223 23.2335 42.7369 23.534 42.6856 23.8411C40.4925 25.9824 39.0278 28.931 38.7001 31.8468C38.2235 31.8002 37.7466 31.933 37.3627 32.2192C36.6262 32.761 36.1897 33.8458 36.2509 34.9829C36.3806 37.3993 37.933 39.5386 39.5917 39.6929C39.7302 40.0347 39.8821 40.3676 40.0449 40.6933L38.5215 41.4912C37.9812 41.7743 37.3864 41.938 36.7774 41.971C36.1684 42.0041 35.5594 41.9058 34.9917 41.6828L33.5887 41.1322C31.4955 40.3013 29.1841 40.1961 27.0241 40.8334C24.3545 41.6413 21.1159 43.8659 20.8473 49.8758C20.7109 52.919 21.5596 55.3214 23.3686 57.0165C23.5015 57.1409 23.6421 57.2601 23.7851 57.3766L21.0625 58.6016C20.7041 58.7636 20.382 58.996 20.1153 59.285C19.8485 59.574 19.6426 59.9136 19.5098 60.2838C19.3813 60.6366 19.3261 61.0119 19.3475 61.3868C19.369 61.7617 19.4667 62.1282 19.6346 62.4641C19.66 62.5151 19.6872 62.5658 19.7161 62.616C19.9108 62.9543 20.1711 63.2503 20.4818 63.4866C20.7924 63.7229 21.1471 63.8947 21.5251 63.992C21.9031 64.0894 22.2967 64.1102 22.6828 64.0534C23.069 63.9965 23.4398 63.8631 23.7737 63.6609L25.0962 62.8602C25.1835 62.8063 25.2861 62.7828 25.3882 62.7933C25.4902 62.8037 25.5859 62.8476 25.6605 62.918C27.3149 64.5109 29.4524 65.6062 31.5246 65.923C31.9533 65.9896 32.3865 66.0234 32.8203 66.0242C34.8169 66.0242 36.6502 65.2883 38.1799 63.8601C39.3249 62.7908 40.1553 61.2442 40.518 59.5051C40.5783 59.216 40.6237 58.9246 40.6569 58.6326C41.2911 58.4678 42.5203 58.0662 43.5312 57.2527C44.1326 58.0012 44.8215 58.6749 45.5832 59.2593C47.3844 60.6576 49.3918 61.5084 50.759 61.976C51.1444 62.1084 51.5545 62.1534 51.9595 62.1078C52.3645 62.0622 52.7543 61.9271 53.1007 61.7123C53.4334 61.509 53.7167 61.2342 53.9302 60.9079C54.1436 60.5815 54.2818 60.2118 54.3347 59.8255C54.4457 59.003 54.2121 57.8034 52.4683 56.7591C50.9449 55.8463 49.9007 54.3298 49.2244 52.9896C49.5358 52.7832 49.8134 52.5807 50.0605 52.3841C52.9316 56.5798 58.1863 57.1237 60.7087 57.1236C60.8314 57.1236 60.9477 57.1225 61.057 57.1202C61.4645 57.1125 61.8652 57.0143 62.23 56.8326C62.5949 56.6509 62.9147 56.3903 63.1664 56.0697C63.4092 55.7647 63.5811 55.4095 63.6695 55.0298C63.758 54.6501 63.7609 54.2555 63.6779 53.8746C63.5002 53.0641 62.8691 52.0174 60.8728 51.6337C58.1539 51.1113 56.0262 48.8128 55.1054 47.6555C60.6054 46.0412 64.6554 40.6864 64.6554 34.3464ZM55.6923 20.2465C56.2846 19.7742 57.1919 19.201 58.15 19.1519C58.9325 19.1119 59.6311 19.4155 60.2905 20.0816C60.7581 20.5536 60.6805 20.8396 60.4435 21.4977C60.258 22.0131 60.027 22.6547 60.3291 23.3903C60.7151 24.3304 60.5807 25.2877 59.9947 25.7725C59.0901 26.5208 57.2332 26.1484 54.9611 24.7861C55.0505 24.5828 55.0876 24.3603 55.069 24.139L54.9942 21.3565C54.9942 21.3412 54.9929 21.326 54.9912 21.3107C54.9787 21.1922 54.9489 21.0762 54.9027 20.9663C55.15 20.7095 55.4137 20.4691 55.6923 20.2465ZM50.5709 21.7823C50.5709 21.6787 50.612 21.5794 50.6853 21.5061C50.7585 21.4329 50.8579 21.3917 50.9615 21.3917H53.5115C53.6151 21.3917 53.7145 21.4329 53.7877 21.5061C53.861 21.5794 53.9021 21.6787 53.9021 21.7823V24.0215C53.9021 24.1251 53.861 24.2244 53.7877 24.2977C53.7145 24.371 53.6151 24.4121 53.5115 24.4121H50.9615C50.8579 24.4121 50.7585 24.371 50.6853 24.2977C50.612 24.2244 50.5709 24.1251 50.5709 24.0215V21.7823ZM44.0416 20.1016C44.8169 19.3924 45.6086 19.0859 46.4625 19.1658C47.8408 19.2941 49.0169 20.4108 49.5329 20.9796C49.462 21.126 49.4189 21.2843 49.4059 21.4465C49.4048 21.4616 49.4041 21.4768 49.4041 21.492L49.4009 24.2957C49.3923 24.4533 49.4143 24.611 49.4658 24.7602C46.211 26.8622 44.8374 26.2885 44.3877 25.9261C43.7661 25.4251 43.6162 24.3826 44.0237 23.3907C44.326 22.6544 44.0844 22.0026 43.8901 21.4789C43.6355 20.7915 43.5713 20.5319 44.0416 20.1016ZM34.3605 42.694L34.5637 42.7737C35.0121 42.9497 35.4819 43.0651 35.9607 43.1171C34.445 45.7698 34.7558 48.3718 35.1576 49.8643C34.6551 49.7227 34.142 49.6222 33.6232 49.5636C32.1224 46.7509 33.7173 43.7207 34.3605 42.694ZM22.018 49.9281C22.209 45.6532 24.0075 42.9707 27.3637 41.955C29.2716 41.3936 31.3126 41.488 33.1605 42.2232L33.2503 42.2584C32.8437 42.9353 32.5122 43.6546 32.2618 44.4034C31.6613 46.2198 31.6784 47.9572 32.2986 49.4913C29.8045 49.4875 27.9992 50.2183 26.9402 51.6723C25.5987 53.514 25.8309 56.018 26.1297 57.469C25.4118 57.1386 24.7503 56.6974 24.1694 56.1616C22.6219 54.7109 21.8979 52.6138 22.018 49.9281ZM37.3799 63.0034C34.9491 65.2732 30.4993 65.9509 26.4736 62.0746C26.2128 61.8252 25.877 61.6689 25.5183 61.6298C25.1595 61.5908 24.7979 61.6711 24.4895 61.8585L23.167 62.6593C22.9666 62.7806 22.744 62.8607 22.5123 62.8947C22.2805 62.9288 22.0443 62.9163 21.8175 62.8578C21.5906 62.7994 21.3778 62.6962 21.1914 62.5543C21.005 62.4125 20.8488 62.2348 20.732 62.0317C20.7147 62.0019 20.6985 61.9718 20.6832 61.9409C20.5864 61.7461 20.5303 61.5336 20.5184 61.3163C20.5064 61.0991 20.5389 60.8817 20.6139 60.6774C20.6934 60.4559 20.8167 60.2526 20.9764 60.0796C21.1361 59.9067 21.3289 59.7676 21.5434 59.6706L24.9164 58.1523C26.1935 58.8873 27.7515 59.3819 29.5153 59.6041C30.2253 59.6928 30.9401 59.7373 31.6556 59.7373C32.0892 59.7403 32.5227 59.7214 32.9544 59.6808C33.0309 59.6723 33.1049 59.6489 33.1724 59.6119C33.2398 59.5748 33.2993 59.5249 33.3474 59.4648C33.3955 59.4048 33.4314 59.3358 33.4529 59.262C33.4743 59.1881 33.4811 59.1107 33.4726 59.0342C33.4642 58.9577 33.4408 58.8836 33.4038 58.8162C33.3667 58.7487 33.3167 58.6893 33.2567 58.6411C33.1966 58.593 33.1277 58.5572 33.0538 58.5357C32.9799 58.5142 32.9025 58.5075 32.8261 58.5159C32.7878 58.52 30.1283 58.7943 27.4611 57.9779C27.2072 57.0871 26.5402 54.2106 27.8869 52.3615C28.7463 51.1816 30.3185 50.6125 32.5549 50.6636C35.7617 50.7397 38.0724 52.2132 39.0621 54.8126C40.1226 57.597 39.3991 61.1182 37.3799 63.0034ZM60.6523 52.7846C61.7675 52.9988 62.383 53.4375 62.534 54.1257C62.5808 54.3374 62.5793 54.5569 62.5295 54.7679C62.4797 54.979 62.3829 55.176 62.2464 55.3444C62.1017 55.5288 61.9178 55.6786 61.7081 55.7831C61.4983 55.8876 61.268 55.944 61.0337 55.9484C58.8533 55.9929 53.6074 55.6448 50.9396 51.5903C51.245 51.2809 51.5127 50.9364 51.7373 50.5642C51.8155 50.431 51.8379 50.2724 51.7997 50.1228C51.7615 49.9732 51.6658 49.8448 51.5333 49.7654C51.4008 49.6861 51.2424 49.6624 51.0925 49.6993C50.9425 49.7363 50.8133 49.831 50.7329 49.9628C50.4882 50.3674 49.9306 51.0848 48.7346 51.9062C48.5118 51.3659 48.3266 50.811 48.1804 50.2452C48.1443 50.0949 48.0504 49.965 47.9191 49.8836C47.7877 49.8022 47.6295 49.7761 47.4789 49.8108C47.3284 49.8455 47.1976 49.9383 47.1151 50.0689C47.0326 50.1996 47.0051 50.3575 47.0385 50.5084C47.086 50.715 48.2439 55.5938 51.8669 57.7643C52.8407 58.3474 53.2683 58.9703 53.174 59.6686C53.1453 59.8836 53.0685 60.0894 52.9493 60.2706C52.83 60.4519 52.6714 60.6039 52.4853 60.7153C52.2862 60.8388 52.062 60.9165 51.8292 60.9428C51.5963 60.969 51.3605 60.9432 51.1388 60.8672C49.856 60.4285 47.9756 59.6329 46.302 58.3338C44.3378 56.8089 43.15 54.9716 42.7718 52.8728C42.7442 52.7198 42.657 52.5841 42.5294 52.4954C42.4017 52.4068 42.2441 52.3725 42.0911 52.4001C41.9382 52.4276 41.8025 52.5148 41.7138 52.6425C41.6252 52.7701 41.5909 52.9277 41.6184 53.0807C41.8238 54.2199 42.2437 55.3098 42.8558 56.2924C42.1675 56.8679 41.3072 57.2109 40.7172 57.3959C40.7057 56.3713 40.5166 55.3566 40.1584 54.3966C39.6437 53.0147 38.7239 51.8203 37.5194 50.9695C37.218 50.7595 36.9013 50.5721 36.5722 50.4089C36.2304 49.5484 35.1635 46.2514 37.3666 43.0865C37.9599 42.9961 38.534 42.808 39.0658 42.5299L40.6129 41.7193C43.0045 45.6465 47.1831 48.154 51.6383 48.154C52.3818 48.1539 53.1237 48.0866 53.8551 47.9527C54.6064 48.9868 57.1292 52.1074 60.6523 52.7846ZM51.6377 46.9817C46.8564 46.9817 42.4162 43.786 40.5888 39.0296C40.5307 38.8761 40.4254 38.745 40.2882 38.6551C40.1509 38.5652 39.9887 38.5211 39.8248 38.5292C39.3764 38.552 38.8123 38.1835 38.3522 37.5674C37.7935 36.793 37.47 35.874 37.4204 34.9204C37.3813 34.1902 37.6427 33.4677 38.0562 33.1635C38.2917 32.9904 38.5609 32.9636 38.8791 33.0819C38.976 33.1182 39.0802 33.1312 39.1831 33.1199C39.286 33.1085 39.3848 33.0731 39.4715 33.0165C39.5737 32.9466 39.6586 32.8544 39.72 32.7469C39.7813 32.6394 39.8175 32.5193 39.8257 32.3958C39.9984 29.9483 41.0777 27.4363 42.7675 25.4656C42.9149 26.0031 43.2238 26.4824 43.6525 26.8386C44.1987 27.2786 44.8451 27.4556 45.5322 27.4556C46.8487 27.4556 48.3132 26.8054 49.5015 26.1115C49.3765 26.274 49.266 26.4472 49.1715 26.6291C48.6555 27.6278 48.667 28.8016 49.2055 30.1177C49.6673 31.2457 50.7583 32.0309 52.0519 32.1668C52.1782 32.1801 52.305 32.1869 52.4319 32.1869C53.453 32.1869 54.3516 31.744 54.8843 30.9615C55.4761 30.0924 55.5313 28.8413 55.013 28.0519C54.593 27.4123 53.8614 27.1391 53.0065 27.3029C52.9304 27.3168 52.8578 27.3457 52.793 27.3878C52.7281 27.4299 52.6722 27.4844 52.6284 27.5482C52.5847 27.612 52.5541 27.6839 52.5383 27.7596C52.5225 27.8353 52.5218 27.9134 52.5364 27.9894C52.5509 28.0654 52.5803 28.1377 52.6229 28.2023C52.6656 28.2668 52.7206 28.3223 52.7847 28.3654C52.8489 28.4086 52.921 28.4387 52.9968 28.4539C53.0727 28.469 53.1508 28.4691 53.2266 28.4539C53.8028 28.3437 53.9763 28.6082 54.0335 28.6951C54.2932 29.0907 54.2392 29.8266 53.9156 30.3021C53.5647 30.8176 52.9139 31.079 52.1743 31.0014C51.497 30.9302 50.6463 30.5441 50.2901 29.6738C49.8886 28.6927 49.8616 27.8512 50.2097 27.1726C50.7608 26.0983 52.1024 25.6674 52.396 25.5844H53.7418C53.8227 25.5839 53.9034 25.576 53.9829 25.5608C56.0983 26.9012 57.6417 27.3234 58.7465 27.3233C59.659 27.3233 60.2723 27.0354 60.6617 26.7392C62.5346 29.0048 63.484 31.5613 63.484 34.3466C63.4836 41.3136 58.1695 46.9817 51.6377 46.9817Z" fill="black"/>
</svg>
