<svg width="22" height="22" viewBox="0 0 22 22" fill="none" xmlns="http://www.w3.org/2000/svg">
<path d="M11 0C4.92554 0 0 4.92554 0 11C0 17.0745 4.92554 22 11 22C12.0145 22 12.8333 21.1811 12.8333 20.1667C12.8333 19.69 12.6561 19.2622 12.3567 18.9383C12.0695 18.6145 11.8983 18.1928 11.8983 17.7222C11.8983 16.7077 12.7172 15.8889 13.7317 15.8889H15.8889C19.2622 15.8889 22 13.1511 22 9.77774C22 4.37554 17.0745 0 11 0ZM4.2778 11C3.26333 11 2.44446 10.1811 2.44446 9.16667C2.44446 8.1522 3.26333 7.33333 4.2778 7.33333C5.29226 7.33333 6.11113 8.1522 6.11113 9.16667C6.11113 10.1811 5.2922 11 4.2778 11ZM7.94446 6.11113C6.93 6.11113 6.11113 5.29226 6.11113 4.2778C6.11113 3.26333 6.93 2.44446 7.94446 2.44446C8.95893 2.44446 9.7778 3.26333 9.7778 4.2778C9.7778 5.29226 8.95887 6.11113 7.94446 6.11113ZM14.0555 6.11113C13.0411 6.11113 12.2222 5.29226 12.2222 4.2778C12.2222 3.26333 13.0411 2.44446 14.0555 2.44446C15.07 2.44446 15.8889 3.26333 15.8889 4.2778C15.8889 5.29226 15.07 6.11113 14.0555 6.11113ZM17.7222 11C16.7077 11 15.8889 10.1811 15.8889 9.16667C15.8889 8.1522 16.7077 7.33333 17.7222 7.33333C18.7367 7.33333 19.5555 8.1522 19.5555 9.16667C19.5555 10.1811 18.7367 11 17.7222 11Z" fill="#59C477"/>
</svg>
