<svg width="85" height="85" viewBox="0 0 85 85" fill="none" xmlns="http://www.w3.org/2000/svg">
<circle cx="42.5" cy="42.5" r="41.5" stroke="#4FAFE2" stroke-width="2" stroke-dasharray="4 4"/>
<path d="M58.2497 26.5688C54.0603 22.4649 48.3782 20.1593 42.4534 20.1593C36.5287 20.1593 30.8466 22.4649 26.6571 26.5688C22.4677 30.6728 20.1141 36.2389 20.1141 42.0428C20.1141 47.8466 22.4677 53.4128 26.6572 57.5167C30.8466 61.6206 36.5287 63.9262 42.4535 63.9262C48.3783 63.9262 54.0604 61.6206 58.2498 57.5166C62.4392 53.4127 64.7928 47.8466 64.7928 42.0427C64.7928 36.2389 62.4392 30.6727 58.2497 26.5688ZM61.4884 50.3035C60.5667 46.0416 58.9701 41.9473 56.7564 38.1689C57.481 37.4118 57.9794 36.4743 58.1972 35.4586C58.415 34.4429 58.3438 33.3882 57.9914 32.4094C59.0769 32.5617 60.1463 32.8091 61.1866 33.1486C62.4995 35.8168 63.2064 38.7321 63.2585 41.6936C63.3106 44.6552 62.7067 47.5926 61.4884 50.3035ZM48.253 34.2938C48.253 33.4668 48.5033 32.6584 48.9723 31.9708C49.4413 31.2832 50.108 30.7473 50.8879 30.4308C51.6678 30.1143 52.5261 30.0315 53.3541 30.1929C54.182 30.3542 54.9426 30.7524 55.5395 31.3372C56.1365 31.922 56.543 32.667 56.7077 33.4781C56.8724 34.2892 56.7878 35.1299 56.4648 35.8939C56.1417 36.6579 55.5946 37.3109 54.8927 37.7704C54.1908 38.2298 53.3655 38.475 52.5213 38.475C51.3897 38.4738 50.3047 38.0329 49.5045 37.249C48.7043 36.4652 48.2542 35.4024 48.253 34.2938ZM60.1383 31.29C59.136 31.0485 58.116 30.884 57.0876 30.7979C56.5632 30.1394 55.8969 29.6026 55.1362 29.2255C54.3755 28.8485 53.5392 28.6407 52.6871 28.6169C52.2744 26.894 51.7683 25.194 51.1707 23.524C54.8656 25.2057 57.9813 27.9041 60.1381 31.2901L60.1383 31.29ZM49.2574 22.7703C50.0208 24.7294 50.6533 26.735 51.151 28.7744C50.0429 29.0396 49.0391 29.6189 48.2653 30.4399C42.9882 27.5945 37.2328 25.6994 31.2726 24.8446C33.9195 23.1996 36.9104 22.159 40.0237 21.7999C43.1369 21.4408 46.2927 21.7725 49.2574 22.7703ZM27.7399 27.6296C28.283 27.0981 28.8552 26.596 29.4539 26.1254C35.7387 26.8218 41.8257 28.7065 47.3775 31.6747C46.7772 32.8001 46.5814 34.0907 46.8216 35.3384L37.5375 37.9788C32.9464 39.2779 28.6886 41.5155 25.0448 44.5441L22.2318 46.8758C21.8414 45.2933 21.6445 43.6709 21.6454 42.0429C21.6379 39.365 22.1727 36.7123 23.2188 34.2382C24.265 31.7642 25.8016 29.518 27.7399 27.6296ZM22.6922 48.4594L26.034 45.6894C29.5138 42.797 33.58 40.6601 37.9644 39.4195L47.2996 36.7646C47.9171 38.0099 48.975 38.9933 50.2768 39.5323L46.4243 48.9668C44.3961 53.924 41.1298 58.3031 36.925 61.7024C33.6266 60.8063 30.6035 59.1299 28.1217 56.8206C25.6399 54.5114 23.7754 51.6402 22.6922 48.4594ZM57.1671 56.4563C55.2393 58.355 52.9463 59.8603 50.4207 60.8851C47.8951 61.9098 45.1871 62.4337 42.4535 62.4264C41.226 62.4267 40.0009 62.3219 38.7921 62.1131C42.7696 58.6647 45.8698 54.3538 47.8456 49.524L51.765 39.9254C53.0835 40.0983 54.4225 39.8185 55.5543 39.1336C57.9405 43.2662 59.5624 47.7794 60.3453 52.4649C59.4581 53.9188 58.3906 55.2594 57.1671 56.4563Z" fill="black"/>
</svg>
