<svg width="85" height="85" viewBox="0 0 85 85" fill="none" xmlns="http://www.w3.org/2000/svg">
<circle cx="42.5" cy="42.5" r="41.5" stroke="#4FAFE2" stroke-width="2" stroke-dasharray="4 4"/>
<path d="M34.0757 46.4017C34.9091 46.4017 35.5846 45.7262 35.5846 44.8929C35.5846 44.0596 34.9091 43.384 34.0757 43.384C33.2424 43.384 32.5669 44.0596 32.5669 44.8929C32.5669 45.7262 33.2424 46.4017 34.0757 46.4017Z" fill="black"/>
<path d="M49.9242 46.4017C50.7575 46.4017 51.433 45.7262 51.433 44.8929C51.433 44.0596 50.7575 43.384 49.9242 43.384C49.0908 43.384 48.4153 44.0596 48.4153 44.8929C48.4153 45.7262 49.0908 46.4017 49.9242 46.4017Z" fill="black"/>
<path d="M61 44.2525C61 42.0669 59.4157 40.2456 57.3355 39.8734V39.214C57.3355 30.7579 50.456 23.8784 42 23.8784C33.544 23.8784 26.6645 30.7579 26.6645 39.214V39.8734C24.5843 40.2457 23 42.067 23 44.2525C23 46.457 24.6115 48.2911 26.7182 48.6412C27.0147 52.02 28.5606 54.5158 31.3271 56.0689C33.7873 57.4502 37.2783 58.1215 42 58.1215C46.7217 58.1215 50.2128 57.4501 52.673 56.0689C55.4394 54.5158 56.9853 52.0201 57.2818 48.6412C59.3885 48.2912 61 46.457 61 44.2525ZM24.5709 44.2525C24.5709 42.9374 25.4577 41.8262 26.6644 41.4833V47.0217C25.4577 46.679 24.5709 45.5678 24.5709 44.2525ZM55.7646 47.4051C55.7646 50.8547 54.5018 53.2406 51.904 54.6991C49.6848 55.945 46.4452 56.5506 42 56.5506C37.5549 56.5506 34.3152 55.945 32.0961 54.6991C29.4982 53.2406 28.2354 50.8547 28.2354 47.4051V39.214C28.2354 32.9982 32.3772 27.7325 38.0455 26.0292C42.3638 26.0838 44.6636 29.201 44.6636 31.4582C44.6636 33.187 43.2572 34.5935 41.5283 34.5935C40.2319 34.5935 39.1771 33.5388 39.1771 32.2424C39.1771 31.2919 39.9504 30.5185 40.901 30.5185C41.3348 30.5185 41.6865 30.1668 41.6865 29.7331C41.6865 29.2993 41.3348 28.9476 40.901 28.9476C39.0843 28.9476 37.6062 30.4256 37.6062 32.2424C37.6062 34.405 39.3656 36.1644 41.5283 36.1644C44.1233 36.1644 46.2345 34.0532 46.2345 31.4582C46.2345 29.8279 45.4154 28.0739 44.0434 26.7661C43.4946 26.243 42.8701 25.8033 42.1888 25.4518C49.6918 25.5533 55.7646 31.6873 55.7646 39.214V47.4051ZM57.3355 47.0218V41.4834C58.5423 41.8263 59.4291 42.9375 59.4291 44.2526C59.4291 45.5678 58.5422 46.679 57.3355 47.0218Z" fill="black"/>
<path d="M45.0377 47.0561C43.3628 48.7312 40.6372 48.7312 38.9623 47.0561C38.6555 46.7494 38.1583 46.7494 37.8515 47.0561C37.5448 47.3629 37.5448 47.8603 37.8515 48.167C38.9952 49.3107 40.4977 49.8826 42.0001 49.8826C43.5024 49.8826 45.0048 49.3107 46.1486 48.167C46.4553 47.8603 46.4553 47.3629 46.1486 47.0561C45.8417 46.7494 45.3445 46.7494 45.0377 47.0561Z" fill="black"/>
</svg>
