<svg width="19" height="19" viewBox="0 0 19 19" fill="none" xmlns="http://www.w3.org/2000/svg">
<g clip-path="url(#clip0)">
<path d="M18.9672 0.266864C18.9007 0.105377 18.7427 0 18.5682 0C1.80935 0 0 6.94538 0 9.93181C0 11.0062 0.238364 12.0097 0.709059 12.9139C0.781605 13.0539 0.924955 13.1428 1.08215 13.1463C1.23068 13.1419 1.38703 13.0677 1.46561 12.9304C2.59698 10.9751 5.80105 6.14908 11.0926 3.58497C11.3094 3.48133 11.5685 3.57027 11.6712 3.78362C11.7748 3.99867 11.685 4.25776 11.4709 4.36139C11.0719 4.55486 10.6884 4.76558 10.3127 4.98406C10.1694 5.06782 10.0303 5.1568 9.88955 5.244C9.67794 5.37529 9.46897 5.50913 9.26514 5.64734C9.0622 5.7838 8.86181 5.92371 8.6649 6.06706C8.60357 6.11196 8.54487 6.15774 8.48438 6.20353C3.21791 10.1279 0 16.3884 0 18.5682C0 18.8066 0.193468 19 0.431832 19C0.670196 19 0.863664 18.8066 0.863664 18.5682C0.863664 17.8721 1.3378 16.4609 2.23511 14.7777C3.53748 15.8426 5.28979 16.4091 7.34094 16.4091C12.8863 16.4091 14.048 11.1323 14.6715 8.29699C15.5109 4.48143 17.3583 2.25239 18.8731 0.736709C18.9975 0.613196 19.0337 0.42835 18.9672 0.266864Z" fill="#59C477"/>
</g>
<defs>
<clipPath id="clip0">
<rect width="19" height="19" fill="white"/>
</clipPath>
</defs>
</svg>
