<svg width="22" height="22" viewBox="0 0 22 22" fill="none" xmlns="http://www.w3.org/2000/svg">
<path d="M15.2382 12.9659C15.7342 12.9659 16.2233 12.9659 16.711 12.9659C16.711 15.9775 16.711 18.9878 16.711 22C11.925 22 7.14852 22 2.3676 22C2.3676 18.9872 2.3676 15.98 2.3676 12.9659C2.85598 12.9659 3.34436 12.9659 3.83973 12.9659C3.83973 15.4878 3.83973 18.0072 3.83973 20.5361C7.63881 20.5361 11.4315 20.5361 15.237 20.5361C15.2382 18.0104 15.2382 15.4916 15.2382 12.9659ZM11.0435 2.85662C12.6769 5.25216 14.3066 7.64072 15.9381 10.0331C16.4538 9.68061 16.9612 9.33449 17.4712 8.9871C15.8352 6.58901 14.2069 4.20236 12.5766 1.81126C12.0635 2.16056 11.5579 2.50541 11.0435 2.85662ZM15.6371 10.2858C13.1374 8.81181 10.6491 7.34413 8.15577 5.87327C7.83886 6.40992 7.52767 6.93704 7.21203 7.47178C9.70538 8.94201 12.1955 10.4103 14.6946 11.8844C15.0115 11.3464 15.324 10.818 15.6371 10.2858ZM18.145 0C17.5322 0.106694 16.932 0.211484 16.3166 0.317543C16.812 3.17479 17.3086 6.02125 17.8027 8.87469C18.42 8.76799 19.0234 8.66257 19.6318 8.55714C19.1358 5.69672 18.641 2.84963 18.145 0ZM14.5416 12.4089C11.7408 11.6545 8.9509 10.9057 6.15335 10.1531C5.99203 10.7514 5.83263 11.3439 5.67068 11.9453C8.47077 12.6985 11.2632 13.4479 14.0595 14.2005C14.2227 13.5985 14.3815 13.0059 14.5416 12.4089ZM13.7547 17.2134C10.86 17.2134 7.9735 17.2134 5.08323 17.2134C5.08323 17.8351 5.08323 18.4467 5.08323 19.0583C7.97858 19.0583 10.865 19.0583 13.7547 19.0583C13.7547 18.4372 13.7547 17.8243 13.7547 17.2134ZM13.9719 14.8286C11.0841 14.5631 8.20658 14.2964 5.32265 14.0322C5.26486 14.6527 5.2077 15.263 5.15054 15.8803C8.03828 16.1458 10.9165 16.4112 13.8004 16.6767C13.8582 16.0556 13.9141 15.4453 13.9719 14.8286Z" fill="#59C477"/>
</svg>
