<svg width="85" height="85" viewBox="0 0 85 85" fill="none" xmlns="http://www.w3.org/2000/svg">
<circle cx="42.5" cy="42.5" r="41.5" stroke="#4FAFE2" stroke-width="2" stroke-dasharray="4 4"/>
<g clip-path="url(#clip0)">
<path d="M64.2166 35.2334C64.2119 32.897 62.4917 30.9188 60.1786 30.5898C59.4096 25.6201 55.1454 21.9445 50.1166 21.9167C49.9169 21.9167 49.707 21.9402 49.5025 21.952C48.7643 20.6422 47.4425 19.7662 45.9487 19.5967C44.4548 19.4272 42.9703 19.9847 41.9575 21.0958C40.5673 20.1014 38.9009 19.5667 37.1917 19.5667C34.5352 19.58 32.0464 20.8672 30.5004 23.0275C28.7253 22.408 26.7607 22.6773 25.2179 23.7518C23.675 24.8262 22.7409 26.5754 22.7063 28.4552C20.3993 29.2306 19.093 31.6662 19.7233 34.0169C18.5983 35.6393 17.9969 37.5673 18 39.5417C17.9971 42.6111 19.435 45.5039 21.8836 47.3547C24.3322 49.2056 27.5075 49.7998 30.4597 48.9597C31.4832 51.161 33.5188 52.7225 35.9101 53.1405C38.3015 53.5585 40.7461 52.7803 42.4557 51.0567C43.4189 51.384 44.421 51.5834 45.4362 51.6497C45.5812 54.5794 46.7076 56.3356 51.4358 57.9117C54.5057 58.9347 55.325 61.0121 55.5397 62.1597C55.6855 62.9025 56.3384 63.437 57.0954 63.4334H59.4853C59.9172 63.4341 60.3302 63.2565 60.6268 62.9426C60.9234 62.6287 61.0772 62.2062 61.052 61.7751C60.9353 59.8951 60.4143 55.5421 58.145 52.7785C60.7568 51.3511 62.6097 48.8484 63.2124 45.9337C65.3471 43.4484 65.5962 39.8562 63.825 37.1001C64.0811 36.5109 64.2144 35.8758 64.2166 35.2334ZM61.9246 45.0344L61.9066 45.0532C60.792 46.278 59.2143 46.9783 57.5583 46.9834C56.6313 46.9866 55.7174 46.7648 54.895 46.3371C54.5218 46.1445 54.1715 45.9104 53.8508 45.6392C54.8974 44.4443 55.1166 42.7347 54.4054 41.3144C54.2795 41.0642 54.0296 40.9002 53.75 40.8842C53.4703 40.8681 53.2034 41.0025 53.0497 41.2367C52.896 41.4708 52.8789 41.7692 53.0048 42.0194C53.1675 42.3444 53.2515 42.7032 53.25 43.0667C53.251 44.1576 52.5012 45.1057 51.4395 45.3561C50.3778 45.6066 49.2833 45.0935 48.7967 44.1172C48.6708 43.867 48.4209 43.703 48.1413 43.6869C47.8617 43.6709 47.5947 43.8053 47.441 44.0394C47.2873 44.2736 47.2702 44.572 47.3961 44.8222C48.3398 46.7251 50.6342 47.5211 52.5536 46.6113C53.0414 47.0605 53.5895 47.4394 54.1821 47.7369C56.3061 48.8316 58.8297 48.8249 60.9478 47.7189C59.7215 50.181 57.3856 51.9027 54.6709 52.3453C54.2664 52.4085 53.9788 52.7727 54.011 53.1809C54.0433 53.5891 54.3845 53.9036 54.7939 53.9026C54.8359 53.9027 54.8778 53.8993 54.9193 53.8924C55.5074 53.7961 56.0857 53.6475 56.6473 53.4482C58.872 55.7865 59.3749 60.0768 59.4853 61.8698H57.0797C56.8557 60.6737 55.9047 57.7487 51.9309 56.4241C47.8912 55.0776 47.1157 53.8548 47.0021 51.6528H47.0444C47.9305 51.5918 48.8067 51.4299 49.656 51.1703C50.0696 51.0433 50.302 50.6051 50.175 50.1915C50.048 49.7779 49.6098 49.5456 49.1962 49.6726C48.4557 49.8989 47.6917 50.0392 46.9191 50.0909C45.4214 50.2076 43.9167 49.981 42.5199 49.4282C42.2106 49.3122 41.8618 49.3988 41.6426 49.6459C40.2711 51.2388 38.1526 51.9768 36.0883 51.5809C34.024 51.1849 32.329 49.7155 31.6441 47.7283V47.7236C31.0724 46.0845 31.2595 44.2759 32.1548 42.7886C32.3778 42.4179 32.2581 41.9365 31.8873 41.7135C31.5166 41.4905 31.0352 41.6103 30.8122 41.981C30.4651 42.5593 30.1986 43.1823 30.0202 43.8328C29.3523 43.9216 28.6788 43.715 28.1755 43.2669C27.6722 42.8188 27.3891 42.1738 27.4 41.5V41.4687C27.3994 41.2626 27.3162 41.0653 27.1689 40.921C27.0217 40.7767 26.8228 40.6975 26.6167 40.701C26.1812 40.7087 25.8324 41.0645 25.8333 41.5C25.8359 43.6621 27.588 45.4141 29.75 45.4167H29.7766C29.7696 45.5483 29.75 45.6783 29.75 45.8084C29.7517 46.3715 29.8177 46.9326 29.9466 47.4808C27.4742 48.15 24.8312 47.6299 22.7966 46.0738C20.7621 44.5178 19.5681 42.1031 19.5667 39.5417C19.5643 38.2031 19.8926 36.8846 20.5223 35.7034C20.8823 36.1894 21.3329 36.6012 21.8493 36.916C22.0893 37.06 22.3878 37.065 22.6325 36.9292C22.8772 36.7933 23.0308 36.5373 23.0355 36.2574C23.0403 35.9776 22.8953 35.7165 22.6553 35.5726C21.4454 34.849 20.8676 33.4064 21.2436 32.0477C21.6197 30.6889 22.8568 29.7486 24.2667 29.75C25.2552 29.7464 26.1863 30.2143 26.7733 31.0096C27.0329 31.3557 27.5239 31.4259 27.87 31.1663C28.2161 30.9067 28.2862 30.4157 28.0267 30.0696C27.1495 28.8834 25.7616 28.1835 24.2862 28.1834C24.4908 25.9667 26.3489 24.2698 28.575 24.2667C28.9537 24.269 29.3304 24.3217 29.6952 24.4234C29.5063 24.8353 29.3517 25.2621 29.233 25.6994C29.1803 25.9005 29.2097 26.1143 29.3148 26.2937C29.4199 26.4731 29.5919 26.6034 29.7931 26.6559C29.9942 26.7086 30.208 26.6791 30.3874 26.5741C30.5668 26.469 30.6971 26.297 30.7495 26.0958C30.9044 25.4992 31.1417 24.9271 31.4545 24.396C32.6637 22.3789 34.8399 21.1413 37.1917 21.1334C38.5973 21.1326 39.9669 21.5783 41.1028 22.4063C40.8478 22.9934 40.7164 23.6266 40.7167 24.2667C40.7167 24.6993 41.0674 25.05 41.5 25.05C41.9326 25.05 42.2833 24.6993 42.2833 24.2667C42.2833 22.5362 43.6862 21.1334 45.4167 21.1334C47.1471 21.1334 48.55 22.5362 48.55 24.2667C48.55 24.6993 48.9007 25.05 49.3333 25.05C49.7659 25.05 50.1166 24.6993 50.1166 24.2667C50.1153 24.0041 50.0917 23.742 50.0462 23.4834H50.1166C54.3002 23.5054 57.8712 26.5119 58.6056 30.6305C57.9137 30.7635 57.261 31.0517 56.6966 31.4734C56.3506 31.733 56.2804 32.2239 56.54 32.57C56.7996 32.9161 57.2905 32.9863 57.6366 32.7267C58.8231 31.8357 60.4718 31.899 61.5864 32.8783C62.701 33.8577 62.9759 35.4846 62.245 36.7758C61.9196 37.3425 61.4272 37.795 60.835 38.0714C60.443 38.2548 60.274 38.7213 60.4574 39.1132C60.6409 39.5052 61.1073 39.6742 61.4993 39.4908C61.995 39.2542 62.4457 38.9329 62.8309 38.5414C63.8845 40.688 63.5236 43.26 61.9199 45.0337L61.9246 45.0344Z" fill="black"/>
<path d="M48.55 34.4501H46.7906L45.3861 29.5347C45.2924 29.1892 44.973 28.9539 44.6153 28.9668C44.2584 28.9748 43.952 29.2231 43.8704 29.5707L41.5619 39.3851L39.1343 27.2434C39.0602 26.8783 38.7392 26.616 38.3667 26.616C37.9941 26.616 37.6731 26.8783 37.599 27.2434L36.1577 34.4501H31.3167C30.884 34.4501 30.5333 34.8008 30.5333 35.2334C30.5333 35.666 30.884 36.0168 31.3167 36.0168H36.8C37.1723 36.0168 37.4932 35.7549 37.5677 35.3901L38.3667 31.3951L40.7323 43.2234C40.8057 43.5834 41.1194 43.8439 41.4867 43.8501H41.5C41.8637 43.8503 42.1797 43.6002 42.263 43.2461L44.707 32.8584L45.4472 35.4488C45.5433 35.7849 45.8505 36.0166 46.2 36.0168H48.55C48.9826 36.0168 49.3333 35.666 49.3333 35.2334C49.3333 34.8008 48.9826 34.4501 48.55 34.4501Z" fill="black"/>
<path d="M53.25 34.45H51.6833C51.2507 34.45 50.9 34.8007 50.9 35.2333C50.9 35.666 51.2507 36.0167 51.6833 36.0167H53.25C53.6826 36.0167 54.0333 35.666 54.0333 35.2333C54.0333 34.8007 53.6826 34.45 53.25 34.45Z" fill="black"/>
</g>
<defs>
<clipPath id="clip0">
<rect width="47" height="47" fill="white" transform="translate(18 18)"/>
</clipPath>
</defs>
</svg>
