<svg width="21" height="21" viewBox="0 0 21 21" fill="none" xmlns="http://www.w3.org/2000/svg">
<path d="M20.5292 16.5724L17.2861 13.329C16.6401 12.6856 15.5704 12.7051 14.9019 13.3738L13.268 15.0074C13.1648 14.9505 13.0579 14.8911 12.9456 14.828C11.9138 14.2563 10.5016 13.4727 9.01561 11.9856C7.52518 10.4954 6.74087 9.08101 6.16741 8.04855C6.1069 7.93917 6.04892 7.83371 5.99167 7.73356L7.08825 6.63861L7.62738 6.09882C8.29688 5.42914 8.31534 4.3597 7.67088 3.71446L4.42775 0.470611C3.78329 -0.17373 2.71307 -0.154183 2.04357 0.515497L1.12955 1.43477L1.15453 1.45957C0.848041 1.85063 0.591934 2.30167 0.401346 2.78807C0.225661 3.25105 0.11628 3.69286 0.066265 4.13557C-0.361968 7.68572 1.26035 10.9303 5.6631 15.3331C11.749 21.4186 16.6535 20.9589 16.8651 20.9365C17.3259 20.8814 17.7675 20.7713 18.2163 20.597C18.6985 20.4086 19.1493 20.1529 19.5401 19.8471L19.5601 19.8648L20.486 18.9581C21.1541 18.2885 21.1734 17.2187 20.5292 16.5724Z" fill="white"/>
</svg>
