<svg width="121" height="22" viewBox="0 0 121 22" fill="none" xmlns="http://www.w3.org/2000/svg">
<circle cx="117.584" cy="3.54238" r="2.69277" fill="white"/>
<circle cx="117.584" cy="10.723" r="2.69277" fill="white"/>
<circle cx="117.584" cy="17.9037" r="2.69277" fill="white"/>
<rect y="4.43994" width="18.8966" height="14.3614" rx="2.87258" fill="white"/>
<path d="M20.4083 9.77128C20.4083 9.30742 20.6872 8.88905 21.1154 8.71064L23.6077 7.67218C24.3646 7.35682 25.1987 7.9129 25.1987 8.73282V14.0681C25.1987 14.888 24.3646 15.4441 23.6077 15.1287L21.1154 14.0903C20.6872 13.9118 20.4083 13.4935 20.4083 13.0296V9.77128Z" fill="white"/>
<path d="M78.5654 17.5198L75.6544 14.6085C75.0746 14.031 74.1144 14.0485 73.5144 14.6488L72.0478 16.115C71.9551 16.0639 71.8592 16.0106 71.7584 15.954C70.8323 15.4409 69.5647 14.7375 68.2309 13.4027C66.8931 12.0651 66.1891 10.7956 65.6744 9.86884C65.62 9.77066 65.568 9.676 65.5166 9.5861L66.5009 8.60328L66.9848 8.11877C67.5857 7.51767 67.6023 6.55776 67.0239 5.97859L64.1129 3.06695C63.5344 2.48859 62.5738 2.50614 61.9728 3.10724L61.1524 3.93237L61.1748 3.95462C60.8997 4.30564 60.6699 4.71049 60.4988 5.14707C60.3411 5.56264 60.2429 5.9592 60.198 6.35658C59.8137 9.54316 61.2698 12.4555 65.2217 16.4074C70.6844 21.8697 75.0866 21.457 75.2765 21.4369C75.6901 21.3875 76.0865 21.2886 76.4894 21.1322C76.9222 20.9631 77.3267 20.7336 77.6775 20.4591L77.6955 20.475L78.5266 19.6611C79.1263 19.0601 79.1436 18.0999 78.5654 17.5198Z" fill="white"/>
</svg>
