<svg width="146" height="35" viewBox="0 0 146 35" fill="none" xmlns="http://www.w3.org/2000/svg">
<path d="M8.49698 15.4116H0V19.3595H8.49698V15.4116Z" fill="#6CED90"/>
<path d="M20.9079 15.4116H12.4109V19.3595H20.9079V15.4116Z" fill="#6CED90"/>
<path d="M33.3195 13.7407H24.8225V21.0283H33.3195V13.7407Z" fill="#6CED90"/>
<path d="M45.7307 11.7673H37.2338V23.0027H45.7307V11.7673Z" fill="#6CED90"/>
<path d="M58.1392 8.27582H49.6422V26.4952H58.1392V8.27582Z" fill="#6CED90"/>
<path d="M70.5504 0H62.0534V34.7689H70.5504V0Z" fill="#6CED90"/>
<path d="M82.9616 2.96063H74.4647V31.8082H82.9616V2.96063Z" fill="#6CED90"/>
<path d="M95.3729 8.88306H86.8759V25.888H95.3729V8.88306Z" fill="#6CED90"/>
<path d="M107.784 12.4499H99.2872V22.3191H107.784V12.4499Z" fill="#6CED90"/>
<path d="M120.195 13.9689H111.698V20.8011H120.195V13.9689Z" fill="#6CED90"/>
<path d="M132.604 15.4116H124.107V19.3595H132.604V15.4116Z" fill="#6CED90"/>
<path d="M145.015 15.4116H136.518V19.3595H145.015V15.4116Z" fill="#6CED90"/>
<path d="M8.49698 17.385H0V19.3589H8.49698V17.385Z" fill="#59C377"/>
<path d="M20.9079 17.385H12.4109V19.3589H20.9079V17.385Z" fill="#59C377"/>
<path d="M33.3195 17.385H24.8225V21.0293H33.3195V17.385Z" fill="#59C377"/>
<path d="M45.7307 17.385H37.2338V23.0027H45.7307V17.385Z" fill="#59C377"/>
<path d="M58.1392 17.385H49.6422V26.4952H58.1392V17.385Z" fill="#59C377"/>
<path d="M70.5504 17.385H62.0534V34.77H70.5504V17.385Z" fill="#59C377"/>
<path d="M82.9616 17.385H74.4647V31.8093H82.9616V17.385Z" fill="#59C377"/>
<path d="M95.3729 17.385H86.8759V25.887H95.3729V17.385Z" fill="#59C377"/>
<path d="M107.784 17.385H99.2872V22.3191H107.784V17.385Z" fill="#59C377"/>
<path d="M120.195 17.385H111.698V20.8011H120.195V17.385Z" fill="#59C377"/>
<path d="M132.604 17.385H124.107V19.3589H132.604V17.385Z" fill="#59C377"/>
<path d="M145.015 17.385H136.518V19.3589H145.015V17.385Z" fill="#59C377"/>
</svg>
