<svg width="29" height="28" viewBox="0 0 29 28" fill="none" xmlns="http://www.w3.org/2000/svg">
<g clip-path="url(#clip0)">
<path d="M29 13.9205C29 15.3779 26.7203 16.4547 26.2954 17.7699C25.8549 19.1313 27.053 21.3476 26.2317 22.4824C25.4015 23.628 22.928 23.1631 21.7874 23.9969C20.6584 24.8226 20.3386 27.3324 18.9818 27.7755C17.6726 28.2023 15.9513 26.3739 14.5003 26.3739C13.0494 26.3739 11.3274 28.2023 10.0182 27.7728C8.6628 27.3303 8.34225 24.8199 7.21256 23.9942C6.07202 23.1603 3.59916 23.6253 2.769 22.4796C1.94698 21.3449 3.1458 19.1299 2.70124 17.7671C2.27972 16.4548 0 15.3779 0 13.9205C0 12.4631 2.27972 11.3856 2.70462 10.0705C3.1458 8.70905 1.94698 6.49269 2.77239 5.35796C3.60255 4.21234 6.07541 4.67726 7.21595 3.8434C8.34564 3.01771 8.66483 0.507962 10.0215 0.064825C11.3274 -0.361975 13.0494 1.46639 14.5024 1.46639C15.9553 1.46639 17.6726 -0.361975 18.9818 0.0682285C20.3372 0.510684 20.6584 3.02111 21.7874 3.8468C22.928 4.68066 25.4015 4.21574 26.2317 5.36136C27.053 6.49609 25.8549 8.71109 26.2954 10.0739C26.7203 11.3856 29 12.4631 29 13.9205Z" fill="url(#paint0_linear)"/>
</g>
<g clip-path="url(#clip1)">
<path d="M13.7569 18.5605C13.6408 18.5609 13.5257 18.5378 13.4183 18.4926C13.3109 18.4473 13.2133 18.3809 13.1311 18.297L9.53762 14.6204C9.37155 14.4504 9.27829 14.2198 9.27835 13.9795C9.27841 13.7391 9.37179 13.5086 9.53794 13.3387C9.7041 13.1688 9.92942 13.0734 10.1643 13.0735C10.3993 13.0735 10.6245 13.1691 10.7906 13.3391L13.7601 16.3786L19.3728 10.704C19.4547 10.6172 19.5528 10.548 19.6613 10.5005C19.7697 10.453 19.8864 10.4282 20.0044 10.4275C20.1223 10.4268 20.2393 10.4502 20.3482 10.4964C20.4572 10.5426 20.5561 10.6106 20.6391 10.6964C20.722 10.7823 20.7874 10.8842 20.8313 10.9962C20.8752 11.1083 20.8967 11.2281 20.8947 11.3488C20.8927 11.4695 20.8671 11.5886 20.8195 11.699C20.7719 11.8094 20.7031 11.909 20.6174 11.9919L14.3789 18.2989C14.2135 18.4668 13.9899 18.5608 13.7569 18.5605Z" fill="white"/>
</g>
<defs>
<linearGradient id="paint0_linear" x1="15.0152" y1="0.000244141" x2="15.0152" y2="27.8401" gradientUnits="userSpaceOnUse">
<stop stop-color="#85F5EF"/>
<stop offset="1" stop-color="#01DAD0"/>
</linearGradient>
<clipPath id="clip0">
<rect width="29" height="27.84" fill="white"/>
</clipPath>
<clipPath id="clip1">
<rect width="11.6" height="8.12" fill="white" transform="translate(9.28003 10.44)"/>
</clipPath>
</defs>
</svg>
