<svg width="65" height="65" viewBox="0 0 65 65" fill="none" xmlns="http://www.w3.org/2000/svg">
<path d="M43.9258 0C43.2247 0 42.6562 0.568496 42.6562 1.26953V7.10938C42.6562 7.81041 43.2247 8.37891 43.9258 8.37891C44.6268 8.37891 45.1953 7.81041 45.1953 7.10938V1.26953C45.1953 0.568496 44.6268 0 43.9258 0Z" fill="#0FDDD3"/>
<path d="M14.7266 39.6094C14.0258 39.6094 13.457 40.1781 13.457 40.8789C13.457 41.5797 14.0258 42.1484 14.7266 42.1484C15.4273 42.1484 15.9961 41.5797 15.9961 40.8789C15.9961 40.1781 15.4273 39.6094 14.7266 39.6094Z" fill="#0FDDD3"/>
<path d="M61.6992 37.0703C61.6992 34.2702 59.4212 31.9922 56.6211 31.9922H47.1438C48.611 28.234 49.2049 23.8104 49.0904 19.8727C49.0685 19.1213 49.0397 18.6867 49.0007 18.4132C48.9351 15.6701 46.6827 13.457 43.9258 13.457C41.1257 13.457 38.8477 15.7351 38.8477 18.5352V19.8047C38.8477 27.834 28.5373 32.3452 20.7563 34.2798C20.168 32.9348 18.8251 31.9922 17.2656 31.9922H4.57031C3.86928 31.9922 3.30078 32.5607 3.30078 33.2617V63.7305C3.30078 64.4315 3.86928 65 4.57031 65H17.2656C18.8147 65 20.1499 64.0698 20.7443 62.7391C21.3886 62.9044 21.9866 63.0605 22.5387 63.2048C26.9713 64.3624 29.413 65 35.3514 65H49.0039C51.804 65 54.082 62.722 54.082 59.9219C54.082 58.8778 53.765 57.9066 53.2226 57.0987C55.1837 56.4128 56.6211 54.5389 56.6211 52.3047C56.6211 51.2644 56.3118 50.2901 55.771 49.4785C57.7236 48.7914 59.1602 46.9219 59.1602 44.6875C59.1602 43.6434 58.8432 42.6722 58.3007 41.8643C60.2619 41.1784 61.6992 39.3046 61.6992 37.0703ZM18.5352 61.1914C18.5352 61.8914 17.9656 62.4609 17.2656 62.4609H5.83984V34.5312H17.2656C17.9656 34.5312 18.5352 35.1008 18.5352 35.8008V61.1914ZM56.6211 39.6094C53.8981 39.6094 53.249 39.6094 50.2734 39.6094C49.5724 39.6094 49.0039 40.1779 49.0039 40.8789C49.0039 41.5799 49.5724 42.1484 50.2734 42.1484H54.082C55.4821 42.1484 56.6211 43.2875 56.6211 44.6875C56.6211 46.0898 55.4844 47.2266 54.082 47.2266H47.7344C47.0333 47.2266 46.4648 47.7951 46.4648 48.4961C46.4648 49.1971 47.0333 49.7656 47.7344 49.7656H51.543C52.9264 49.7656 54.082 50.8708 54.082 52.3047C54.082 53.707 52.9453 54.8438 51.543 54.8438C48.82 54.8438 48.1708 54.8438 45.1953 54.8438C44.4943 54.8438 43.9258 55.4122 43.9258 56.1133C43.9258 56.8143 44.4943 57.3828 45.1953 57.3828H49.0039C50.4039 57.3828 51.543 58.5218 51.543 59.9219C51.543 61.3219 50.4039 62.4609 49.0039 62.4609H35.3514C29.7391 62.4609 27.5472 61.8885 23.1804 60.7481C22.5407 60.581 21.839 60.3978 21.0742 60.2028V36.8196C30.2616 34.6312 41.3867 29.2895 41.3867 19.8047V18.5352C41.3867 17.1351 42.5257 15.9961 43.9258 15.9961C45.3233 15.9961 46.4622 17.1333 46.4648 18.5312V18.5352C46.4648 19.0869 47.1534 25.8582 44.3922 31.9922H40.1172C39.4162 31.9922 38.8477 32.5607 38.8477 33.2617C38.8477 33.9628 39.4162 34.5312 40.1172 34.5312C41.0037 34.5312 55.1741 34.5312 56.6211 34.5312C58.0211 34.5312 59.1602 35.6703 59.1602 37.0703C59.1602 38.4726 58.0234 39.6094 56.6211 39.6094Z" fill="#0FDDD3"/>
<path d="M14.7266 44.6875C14.0255 44.6875 13.457 45.256 13.457 45.957V56.1133C13.457 56.8143 14.0255 57.3828 14.7266 57.3828C15.4276 57.3828 15.9961 56.8143 15.9961 56.1133V45.957C15.9961 45.256 15.4276 44.6875 14.7266 44.6875Z" fill="#0FDDD3"/>
<path d="M33.7695 15.9961H28.6914C27.9904 15.9961 27.4219 16.5646 27.4219 17.2656C27.4219 17.9667 27.9904 18.5352 28.6914 18.5352H33.7695C34.4706 18.5352 35.0391 17.9667 35.0391 17.2656C35.0391 16.5646 34.4706 15.9961 33.7695 15.9961Z" fill="#0FDDD3"/>
<path d="M59.1602 15.9961H54.082C53.381 15.9961 52.8125 16.5646 52.8125 17.2656C52.8125 17.9667 53.381 18.5352 54.082 18.5352H59.1602C59.8612 18.5352 60.4297 17.9667 60.4297 17.2656C60.4297 16.5646 59.8612 15.9961 59.1602 15.9961Z" fill="#0FDDD3"/>
<path d="M55.5955 5.59584C55.0996 5.10021 54.296 5.10021 53.8 5.59584L50.2098 9.18594C49.7141 9.68169 49.7141 10.4856 50.2098 10.9814C50.7058 11.4772 51.5093 11.4771 52.0053 10.9814L55.5955 7.39134C56.0912 6.89558 56.0912 6.09172 55.5955 5.59584Z" fill="#0FDDD3"/>
<path d="M37.6417 9.18594L34.0516 5.59584C33.5557 5.10021 32.7521 5.10021 32.2561 5.59584C31.7604 6.09159 31.7604 6.89546 32.2561 7.39134L35.8462 10.9814C36.3424 11.4772 37.1458 11.4771 37.6417 10.9814C38.1375 10.4857 38.1375 9.68182 37.6417 9.18594Z" fill="#0FDDD3"/>
</svg>
