<svg width="65" height="65" viewBox="0 0 65 65" fill="none" xmlns="http://www.w3.org/2000/svg">
<g clip-path="url(#clip0)">
<path d="M32.5 19.2969C31.7992 19.2969 31.2305 19.8656 31.2305 20.5664C31.2305 20.588 31.2305 20.6083 31.2317 20.6286C31.2051 20.6312 31.1771 20.6337 31.1505 20.6362L31.1822 20.635L31.2317 20.6324C31.2673 21.3027 31.8221 21.8359 32.5 21.8359C33.1792 21.8359 33.734 21.3015 33.7683 20.6299C33.7695 20.6096 33.7695 20.588 33.7695 20.5664C33.7695 19.8656 33.2008 19.2969 32.5 19.2969Z" fill="#0FDDD3"/>
<path d="M58.7375 7.73148C58.4686 7.49065 58.1094 7.37588 57.751 7.41536C56.5411 7.54943 55.3067 7.61722 54.082 7.61722C46.1005 7.61722 38.089 3.81028 33.2531 0.247463C32.8053 -0.0824878 32.1948 -0.0824878 31.747 0.247463C26.911 3.81028 18.8995 7.61722 10.918 7.61722C9.69338 7.61722 8.45889 7.5493 7.24902 7.41549C6.89089 7.37575 6.53161 7.49065 6.26247 7.7316C5.99358 7.97243 5.83984 8.31635 5.83984 8.67728V30.8179C5.83984 46.6342 17.4423 60.3062 32.1176 64.9411C32.242 64.9805 32.371 65 32.5 65C32.629 65 32.7578 64.9804 32.8824 64.9411C47.5447 60.3104 59.1602 46.6477 59.1602 30.8179V8.67728C59.1602 8.31622 59.0064 7.97231 58.7375 7.73148ZM56.6211 30.8179C56.6211 44.8022 46.7228 57.7323 32.5 62.3969C18.2772 57.7325 8.37891 44.8022 8.37891 30.8179V10.0667C9.22327 10.1262 10.0728 10.1563 10.918 10.1563C19.1091 10.1563 27.2827 6.46804 32.5 2.83109C37.7173 6.46804 45.8909 10.1563 54.082 10.1563C54.9272 10.1563 55.7769 10.1262 56.6211 10.0667V30.8179Z" fill="#0FDDD3"/>
<path d="M52.8639 12.67C46.5709 12.415 39.3894 10.09 33.161 6.29114C32.7552 6.04358 32.2448 6.04358 31.839 6.29114C25.6106 10.09 18.4292 12.4148 12.1361 12.67C11.4556 12.6976 10.918 13.2573 10.918 13.9385V30.8182C10.918 43.0861 19.6102 54.901 32.0558 59.55C32.199 59.6035 32.3494 59.6302 32.5 59.6302C32.6506 59.6302 32.801 59.6035 32.9442 59.55C45.3898 54.9009 54.082 43.086 54.082 30.8181V13.9384C54.082 13.2573 53.5445 12.6976 52.8639 12.67ZM51.543 30.8181C51.543 41.9031 43.7362 52.6045 32.5 57.0014C21.2638 52.6045 13.457 41.9031 13.457 30.8181V15.1361C21.6295 14.5176 28.6295 11.1297 32.5 8.85458C36.3705 11.1297 43.3705 14.5176 51.543 15.1361V30.8181Z" fill="#0FDDD3"/>
<path d="M37.9768 20.4127C37.3322 20.1365 36.586 20.4351 36.3097 21.0795C36.0335 21.7239 36.3321 22.4703 36.9765 22.7465C41.1981 24.5557 43.9258 28.6832 43.9258 33.2618C43.9258 39.7542 38.5866 45.4493 32.5 45.4493C26.5255 45.4493 20.9807 39.8608 21.0765 33.023C21.216 28.3924 23.8125 24.5513 28.0236 22.7464C28.668 22.4702 28.9666 21.7239 28.6904 21.0794C28.4141 20.435 27.6678 20.1362 27.0234 20.4126C21.9532 22.5855 18.702 27.3926 18.5382 32.9577C18.5381 32.9642 18.5379 32.9709 18.5378 32.9775C18.4252 40.8043 24.646 47.9883 32.5 47.9883C40.318 47.9883 46.4648 40.8654 46.4648 33.2618C46.4648 27.6662 43.1331 22.6226 37.9768 20.4127Z" fill="#0FDDD3"/>
<path d="M39.7453 28.5554C39.2495 28.0597 38.4458 28.0597 37.9498 28.5554L29.9609 36.5444L25.7805 32.364C25.2846 31.8682 24.481 31.8682 23.9851 32.364C23.4894 32.8597 23.4894 33.6636 23.9851 34.1595L29.0633 39.2376C29.3112 39.4856 29.6361 39.6095 29.9609 39.6095C30.2858 39.6095 30.6107 39.4856 30.8586 39.2376L39.7453 30.3509C40.2411 29.8552 40.2411 29.0513 39.7453 28.5554Z" fill="#0FDDD3"/>
</g>
<defs>
<clipPath id="clip0">
<rect width="65" height="65" fill="white"/>
</clipPath>
</defs>
</svg>
