<svg width="65" height="65" viewBox="0 0 65 65" fill="none" xmlns="http://www.w3.org/2000/svg">
<g clip-path="url(#clip0)">
<path d="M57.9106 25.2856C56.9996 24.4682 55.7874 24.1836 54.5852 24.5047C51.3132 25.3789 48.0293 26.0056 44.5856 26.4159L43.7411 11.2166C43.5744 8.21653 42.3489 5.41684 40.2904 3.33328C38.1668 1.18371 35.3387 0 32.3271 0C29.3155 0 26.4875 1.18371 24.3638 3.33315C22.3054 5.41671 21.08 8.21641 20.9133 11.2164L20.0712 26.3746C16.7521 25.9641 13.5805 25.3504 10.4149 24.5046C9.2125 24.1834 8.00035 24.4681 7.08947 25.2855C6.16296 26.1169 5.69844 27.3529 5.87706 28.5111L10.9509 61.3945C11.2784 63.5173 12.8375 65 14.7425 65H26.7867C27.4879 65 28.0563 64.4316 28.0563 63.7305C28.0563 63.0293 27.4879 62.4609 26.7867 62.4609H14.7425C13.9617 62.4609 13.5637 61.6779 13.4604 61.0073L13.2243 59.478C14.1746 59.2608 14.813 58.8025 15.3532 58.413C15.9484 57.9841 16.3414 57.7006 17.1664 57.7006C17.9914 57.7006 18.3845 57.9839 18.9795 58.413C19.7161 58.9441 20.6327 59.6049 22.2775 59.6049C23.9223 59.6049 24.839 58.944 25.5756 58.413C26.1706 57.9841 26.5638 57.7006 27.3888 57.7006C28.2137 57.7006 28.6069 57.9839 29.2019 58.4129C29.9385 58.944 30.8551 59.6049 32.5 59.6049C34.1448 59.6049 35.0616 58.944 35.7981 58.4129C36.3932 57.9839 36.7863 57.7006 37.6113 57.7006C38.4363 57.7006 38.8294 57.9839 39.4244 58.413C40.161 58.9441 41.0776 59.6049 42.7225 59.6049C44.3673 59.6049 45.284 58.944 46.0205 58.413C46.6157 57.9841 47.0087 57.7006 47.8338 57.7006C48.6589 57.7006 49.0519 57.9839 49.6469 58.413C50.1871 58.8025 50.8256 59.2608 51.7758 59.478L51.5398 61.0073C51.4365 61.6779 51.0386 62.4609 50.2577 62.4609H38.2125C37.5114 62.4609 36.943 63.0293 36.943 63.7305C36.943 64.4316 37.5114 65 38.2125 65H50.2577C52.1625 65 53.7216 63.5173 54.0492 61.3945L59.123 28.5113C59.3016 27.3531 58.8371 26.1171 57.9106 25.2856ZM32.3271 2.53906C37.1096 2.53906 40.9267 6.33014 41.2058 11.3574L42.4754 34.2079C42.5136 34.9035 41.9787 35.5005 41.283 35.5387C40.9461 35.5573 40.6221 35.4434 40.3707 35.2182C40.1194 34.993 39.9708 34.6835 39.9523 34.3456L38.6828 11.4942C38.5896 9.81754 37.9296 8.24053 36.8243 7.05339C35.6386 5.77967 34.0414 5.07812 32.3272 5.07812C30.613 5.07812 29.0159 5.77954 27.83 7.05326C26.7248 8.2404 26.0648 9.81754 25.9716 11.4942L24.7021 34.3456V34.3464C24.6638 35.042 24.0661 35.5753 23.3713 35.5387C23.0344 35.5202 22.7248 35.3717 22.4995 35.1203C22.2743 34.8689 22.1606 34.545 22.179 34.2088L23.4485 11.3575C23.7277 6.33014 27.5448 2.53906 32.3271 2.53906ZM37 26.9764C35.5851 27.0244 34.1023 27.0483 32.5 27.0483C30.7696 27.0483 29.1742 27.0202 27.6552 26.964L28.5068 11.6351C28.615 9.68729 29.9907 7.61719 32.3272 7.61719C34.6637 7.61719 36.0395 9.68729 36.1476 11.635L37 26.9764ZM53.1281 50.7124C53.0686 50.7159 53.0078 50.7178 52.9447 50.7178C52.1197 50.7178 51.7266 50.4344 51.1315 50.0054C50.395 49.4744 49.4784 48.8135 47.8334 48.8135C46.1885 48.8135 45.2719 49.4744 44.5353 50.0054C43.9402 50.4344 43.5471 50.7178 42.7222 50.7178C41.8971 50.7178 41.504 50.4344 40.909 50.0053C40.1724 49.4743 39.2558 48.8135 37.6109 48.8135C35.966 48.8135 35.0495 49.4744 34.3129 50.0053C33.7179 50.4343 33.3247 50.7178 32.4998 50.7178C31.6747 50.7178 31.2817 50.4344 30.6866 50.0053C29.95 49.4743 29.0334 48.8135 27.3886 48.8135C25.7438 48.8135 24.8271 49.4744 24.0905 50.0053C23.4955 50.4343 23.1023 50.7178 22.2774 50.7178C21.4524 50.7178 21.0593 50.4344 20.4642 50.0054C19.7276 49.4744 18.811 48.8135 17.1661 48.8135C15.5212 48.8135 14.6047 49.4744 13.8681 50.0053C13.273 50.4343 12.8799 50.7178 12.055 50.7178C11.9919 50.7178 11.9311 50.7157 11.8715 50.7124L11.2761 46.8534C11.5167 46.8884 11.7749 46.909 12.055 46.909C13.6998 46.909 14.6164 46.2481 15.353 45.7172C15.9481 45.2882 16.3412 45.0048 17.1661 45.0048C17.9912 45.0048 18.3842 45.2881 18.9793 45.7172C19.7158 46.2483 20.6324 46.909 22.2772 46.909C23.9221 46.909 24.8388 46.2481 25.5754 45.7172C26.1704 45.2882 26.5636 45.0048 27.3885 45.0048C28.2134 45.0048 28.6066 45.2881 29.2017 45.7171C29.9382 46.2481 30.8548 46.909 32.4998 46.909C34.1446 46.909 35.0613 46.2481 35.7979 45.7171C36.3929 45.2881 36.7861 45.0048 37.611 45.0048C38.4361 45.0048 38.8291 45.2881 39.4242 45.7172C40.1608 46.2483 41.0774 46.909 42.7223 46.909C44.3671 46.909 45.2837 46.2481 46.0203 45.7172C46.6154 45.2882 47.0085 45.0048 47.8335 45.0048C48.6586 45.0048 49.0517 45.2881 49.6467 45.7172C50.3833 46.2483 51.2999 46.909 52.9447 46.909C53.2247 46.909 53.483 46.8884 53.7235 46.8534L53.1281 50.7124ZM51.1317 56.3535C50.3951 55.8224 49.4785 55.1615 47.8335 55.1615C46.1886 55.1615 45.272 55.8224 44.5354 56.3535C43.9403 56.7825 43.5472 57.0658 42.7223 57.0658C41.8972 57.0658 41.5042 56.7825 40.9091 56.3533C40.1726 55.8223 39.256 55.1615 37.611 55.1615C35.9661 55.1615 35.0496 55.8224 34.313 56.3533C33.718 56.7823 33.3248 57.0658 32.4999 57.0658C31.6748 57.0658 31.2818 56.7825 30.6867 56.3533C29.9502 55.8223 29.0336 55.1615 27.3888 55.1615C25.744 55.1615 24.8272 55.8224 24.0906 56.3533C23.4956 56.7823 23.1024 57.0658 22.2775 57.0658C21.4526 57.0658 21.0594 56.7825 20.4644 56.3535C19.7278 55.8224 18.8112 55.1615 17.1662 55.1615C15.5213 55.1615 14.6048 55.8224 13.8683 56.3533C13.4964 56.6215 13.2034 56.8326 12.8346 56.9535L12.2634 53.2518C13.7774 53.1983 14.6485 52.5731 15.3531 52.0651C15.9483 51.6362 16.3413 51.3527 17.1662 51.3527C17.9913 51.3527 18.3844 51.636 18.9794 52.0651C19.716 52.5962 20.6326 53.257 22.2774 53.257C23.9222 53.257 24.8389 52.596 25.5755 52.0651C26.1705 51.6362 26.5637 51.3527 27.3886 51.3527C28.2136 51.3527 28.6068 51.636 29.2018 52.065C29.9384 52.596 30.855 53.257 32.4999 53.257C34.1447 53.257 35.0614 52.596 35.798 52.065C36.393 51.636 36.7862 51.3527 37.6112 51.3527C38.4362 51.3527 38.8293 51.636 39.4243 52.0651C40.1609 52.5962 41.0775 53.257 42.7224 53.257C44.3672 53.257 45.2838 52.596 46.0204 52.0651C46.6156 51.6362 47.0086 51.3527 47.8337 51.3527C48.6587 51.3527 49.0518 51.636 49.6468 52.0651C50.3514 52.5731 51.2226 53.1983 52.7365 53.2518L52.1653 56.9535C51.7964 56.8327 51.5034 56.6215 51.1317 56.3535ZM56.6135 28.1241L54.1543 44.0623C53.813 44.2581 53.4706 44.37 52.9447 44.37C52.1197 44.37 51.7266 44.0866 51.1315 43.6577C50.395 43.1266 49.4784 42.4657 47.8334 42.4657C46.1885 42.4657 45.2719 43.1266 44.5353 43.6577C43.9402 44.0866 43.5471 44.37 42.7222 44.37C41.8971 44.37 41.504 44.0866 40.909 43.6575C40.1724 43.1265 39.2558 42.4657 37.6109 42.4657C35.966 42.4657 35.0495 43.1266 34.3129 43.6575C33.7179 44.0865 33.3247 44.37 32.4998 44.37C31.6747 44.37 31.2817 44.0866 30.6866 43.6575C29.95 43.1265 29.0334 42.4657 27.3886 42.4657C25.7438 42.4657 24.8271 43.1266 24.0905 43.6575C23.4955 44.0865 23.1023 44.37 22.2774 44.37C21.4524 44.37 21.0593 44.0866 20.4642 43.6577C19.7276 43.1266 18.811 42.4657 17.1661 42.4657C15.5212 42.4657 14.6047 43.1266 13.8681 43.6575C13.273 44.0865 12.8799 44.37 12.055 44.37C11.5291 44.37 11.1866 44.2581 10.8454 44.0623L8.38642 28.1241C8.33995 27.8233 8.50778 27.4243 8.7853 27.1752C9.05762 26.9309 9.38541 26.8578 9.75942 26.9577C13.0932 27.8484 16.4326 28.4895 19.93 28.9143L19.7141 32.8011C19.0154 32.7643 18.4174 33.2999 18.379 33.9992C18.3406 34.6993 18.8769 35.2979 19.5771 35.3364L19.7901 35.3481C19.9473 35.8853 20.2237 36.385 20.6082 36.8144C21.286 37.5709 22.2177 38.0181 23.2319 38.0739C24.2468 38.1294 25.2212 37.787 25.9777 37.1092C26.4069 36.7246 26.7364 36.2581 26.9514 35.7412L27.1644 35.7529C27.1882 35.7542 27.2118 35.755 27.2351 35.755C27.9043 35.755 28.4646 35.2313 28.5016 34.555C28.54 33.8562 28.0056 33.2587 27.3075 33.2182L27.5142 29.4993C29.0788 29.558 30.7203 29.5872 32.4999 29.5872C34.1518 29.5872 35.6805 29.5622 37.1408 29.5119L37.3467 33.218C36.6485 33.2584 36.1141 33.856 36.1525 34.5549C36.1895 35.2313 36.7497 35.7548 37.4189 35.7548C37.4424 35.7548 37.466 35.7542 37.4897 35.7528L37.7027 35.7411C37.9177 36.2579 38.2472 36.7244 38.6764 37.109C39.3797 37.7392 40.272 38.0796 41.209 38.0796C41.2799 38.0796 41.3509 38.0776 41.4223 38.0737C42.4364 38.0181 43.3682 37.5708 44.046 36.8142C44.4306 36.385 44.7068 35.8853 44.8641 35.3479L45.0771 35.3363C45.7773 35.2979 46.3137 34.6992 46.2752 33.9991C46.2369 33.2997 45.6389 32.7623 44.9403 32.801L44.7267 28.9567C48.3494 28.5326 51.7999 27.8767 55.2405 26.9575C55.6146 26.8576 55.9424 26.9307 56.2147 27.1749C56.4923 27.4244 56.66 27.8234 56.6135 28.1241Z" fill="#0FDDD3"/>
<path d="M32.5001 62.4609H32.4992C31.798 62.4609 31.2302 63.0293 31.2302 63.7305C31.2302 64.4316 31.7989 65 32.5001 65C33.2012 65 33.7696 64.4316 33.7696 63.7305C33.7696 63.0293 33.2012 62.4609 32.5001 62.4609Z" fill="#0FDDD3"/>
</g>
<defs>
<clipPath id="clip0">
<rect width="65" height="65" fill="white"/>
</clipPath>
</defs>
</svg>
