<svg width="65" height="65" viewBox="0 0 65 65" fill="none" xmlns="http://www.w3.org/2000/svg">
<path d="M63.54 24.6288C63.2607 23.9813 62.5244 23.6766 61.877 23.9559L60.5186 24.5399C62.0801 21.0106 62.1689 17.4306 60.7344 14.5487C59.6426 12.3651 57.2178 9.62294 51.7969 8.3788L52.9775 7.5663C53.5615 7.17274 53.7012 6.38563 53.3076 5.80165C52.9141 5.21766 52.127 5.07802 51.543 5.47157L47.5693 8.18837C47.5566 8.20106 47.5439 8.21376 47.5312 8.21376C47.5186 8.22645 47.5059 8.22645 47.4932 8.23915L47.4805 8.25184C47.4678 8.26454 47.4424 8.27723 47.4297 8.30263C47.417 8.31532 47.4043 8.32802 47.3916 8.34071C47.3789 8.35341 47.3535 8.3788 47.3408 8.39149C47.3281 8.40419 47.3154 8.41688 47.3027 8.42958C47.29 8.44227 47.2773 8.46766 47.2646 8.48036C47.252 8.49306 47.2393 8.51845 47.2266 8.53114C47.2139 8.54384 47.2012 8.56923 47.2012 8.58192C47.1885 8.59462 47.1758 8.62001 47.1631 8.6327C47.1504 8.6454 47.1504 8.67079 47.1377 8.68348C47.125 8.70888 47.1123 8.72157 47.1123 8.74696C47.0996 8.75966 47.0996 8.78505 47.0996 8.79774C47.0869 8.82313 47.0869 8.83583 47.0742 8.86122C47.0742 8.87391 47.0615 8.8993 47.0615 8.912C47.0615 8.93739 47.0488 8.95009 47.0488 8.97548C47.0488 9.00087 47.0488 9.01356 47.0361 9.03895C47.0361 9.06434 47.0234 9.07704 47.0234 9.10243C47.0234 9.12782 47.0234 9.14052 47.0234 9.16591C47.0234 9.1913 47.0234 9.20399 47.0234 9.22938C47.0234 9.25477 47.0234 9.26747 47.0234 9.29286C47.0234 9.31825 47.0234 9.33095 47.0234 9.35634C47.0234 9.38173 47.0234 9.39442 47.0361 9.41981C47.0361 9.4452 47.0361 9.4579 47.0488 9.48329C47.0488 9.50868 47.0615 9.52138 47.0615 9.54677C47.0615 9.57216 47.0742 9.58485 47.0742 9.61024C47.0742 9.62294 47.0869 9.64833 47.0869 9.66102C47.0996 9.68641 47.0996 9.69911 47.1123 9.7245C47.125 9.7372 47.125 9.76259 47.1377 9.77528C47.1504 9.80067 47.1631 9.81337 47.1631 9.83876C47.1758 9.85145 47.1758 9.86415 47.1885 9.88954C47.2012 9.91493 47.2139 9.92763 47.2266 9.95302C47.2266 9.95302 47.2266 9.96571 47.2393 9.96571C47.2393 9.97841 47.252 9.97841 47.2646 9.9911C47.2773 10.0038 47.29 10.0292 47.3027 10.0419L50.3115 13.787C50.5654 14.1044 50.9336 14.2567 51.3018 14.2567C51.5811 14.2567 51.8604 14.1679 52.1016 13.9774C52.6475 13.5331 52.7363 12.7333 52.292 12.1874L51.2129 10.8417C54.8057 11.6669 57.2939 13.3173 58.4492 15.6532C59.5537 17.8876 59.4395 20.7313 58.1445 23.6005L57.6113 22.0136C57.3828 21.3534 56.6719 20.9979 55.999 21.2138C55.3389 21.4423 54.9834 22.1532 55.1992 22.8261L56.7354 27.3837C56.748 27.4091 56.748 27.4345 56.7607 27.4599V27.4725C56.7861 27.5233 56.8115 27.5868 56.8496 27.6376C56.8496 27.6376 56.8496 27.6503 56.8623 27.6503C56.8877 27.7011 56.9258 27.7391 56.9639 27.7899L56.9766 27.8026C57.0146 27.8407 57.0527 27.8788 57.0908 27.9169C57.1035 27.9169 57.1035 27.9296 57.1162 27.9296C57.1543 27.9677 57.1924 27.9931 57.2432 28.0311C57.2559 28.0311 57.2559 28.0438 57.2686 28.0438C57.3193 28.0692 57.3574 28.0946 57.4082 28.12C57.4209 28.12 57.4209 28.1327 57.4336 28.1327C57.4844 28.1581 57.5352 28.1708 57.5859 28.1962H57.5986C57.6494 28.2089 57.7129 28.2216 57.7637 28.2343H57.7764C57.8398 28.247 57.8906 28.247 57.9541 28.247C57.9922 28.247 58.0303 28.247 58.0684 28.247C58.0811 28.247 58.0938 28.247 58.1064 28.247C58.1318 28.247 58.1572 28.2343 58.1826 28.2343C58.1953 28.2343 58.208 28.2343 58.2334 28.2216C58.2588 28.2216 58.2842 28.2089 58.3096 28.2089C58.3223 28.2089 58.335 28.1962 58.3477 28.1962H58.3604C58.373 28.1962 58.3857 28.1835 58.4111 28.1835C58.4238 28.1835 58.4365 28.1708 58.4619 28.1708L62.8926 26.2919C63.5146 26.0126 63.8193 25.2763 63.54 24.6288Z" fill="#0FDDD3"/>
<path d="M61.7246 32.4111L47.5059 30.3164L40.7774 1.3076C40.625 0.622053 39.9395 0.203107 39.2539 0.355451L2.33596 8.92479C2.00588 9.00096 1.72658 9.20408 1.54885 9.49608C1.37111 9.78807 1.30764 10.1308 1.38381 10.4609L8.1758 39.7236C8.31545 40.3076 8.83596 40.7012 9.40725 40.7012C9.49611 40.7012 9.59768 40.6885 9.69924 40.6631L21.3154 37.9717L18.4082 57.6875C18.3067 58.3857 18.7891 59.0205 19.4746 59.1221L43.6084 62.6767C44.3067 62.7783 44.9414 62.2959 45.043 61.6103C45.1446 60.9248 44.6621 60.2773 43.9766 60.1758L21.0996 56.8115L24.083 36.5498C24.083 36.5371 24.083 36.5371 24.083 36.5244L25.0987 29.5928L44.6367 32.4619L60.0869 34.7344L56.1006 61.9531L52.711 61.458C52.0127 61.3564 51.3779 61.8388 51.2764 62.5244C51.1748 63.2226 51.6572 63.8574 52.3428 63.959L56.9893 64.6445C57.0528 64.6572 57.1162 64.6572 57.1797 64.6572C57.8018 64.6572 58.335 64.2002 58.4365 63.5781L62.8164 33.8457C62.9053 33.1601 62.4229 32.5127 61.7246 32.4111ZM10.3594 37.9082L4.13869 11.1084L38.5938 3.12303L44.8145 29.9228L29.0088 27.5996C31.916 25.7334 33.4903 22.1787 32.6651 18.624C31.624 14.1045 27.0918 11.2861 22.585 12.3398C20.4014 12.8476 18.5352 14.1806 17.3545 16.0849C16.1612 17.9892 15.793 20.2363 16.3008 22.4326C17.0498 25.6826 19.6143 28.0566 22.6865 28.7422L21.7217 35.2929L10.3594 37.9082ZM18.7637 21.8486C18.0274 18.7002 20.0078 15.539 23.1563 14.8154C23.6006 14.7138 24.0449 14.6631 24.4766 14.6631C27.1426 14.6631 29.5547 16.4912 30.1895 19.208C30.9258 22.3564 28.9453 25.5176 25.7969 26.2412C22.6612 26.9648 19.5 24.9971 18.7637 21.8486Z" fill="#0FDDD3"/>
<path d="M47.4043 53.9931C47.7852 53.9931 48.1534 53.8154 48.3946 53.5107C48.6739 53.1553 48.7501 52.6728 48.585 52.2539L42.8848 37.8701C42.7198 37.4512 42.3389 37.1465 41.8946 37.083C41.4502 37.0195 40.9932 37.1972 40.7139 37.5527L31.1036 49.6894C30.8243 50.0449 30.7481 50.5273 30.9131 50.9463C31.0782 51.3652 31.459 51.6699 31.9034 51.7334L47.2266 53.9805C47.2774 53.9931 47.3409 53.9931 47.4043 53.9931ZM34.4551 49.5371L41.336 40.8535L45.4239 51.1494L34.4551 49.5371Z" fill="#0FDDD3"/>
<path d="M48.3946 60.8236C47.6964 60.722 47.0616 61.2044 46.96 61.89C46.96 61.9154 46.96 61.9281 46.9473 61.9535C46.8839 62.6263 47.3536 63.2357 48.0264 63.3245C48.6993 63.4261 49.3214 62.9691 49.461 62.3216C49.461 62.2962 49.4737 62.2835 49.4737 62.2581C49.5753 61.5726 49.0928 60.9251 48.3946 60.8236Z" fill="#0FDDD3"/>
</svg>
