<svg width="368" height="68" viewBox="0 0 368 68" fill="none" xmlns="http://www.w3.org/2000/svg">
<path opacity="0.5" d="M-6.20269 21.1543C-5.31472 16.4259 -1.18557 13 3.62551 13H335.276C341.538 13 346.26 18.6907 345.104 24.8457L338.531 59.8457C337.643 64.5741 333.514 68 328.703 68H-2.94727C-9.2098 68 -13.9313 62.3093 -12.7755 56.1543L-6.20269 21.1543Z" fill="#FFAF00"/>
<path d="M-15.1201 8.27561C-14.2825 3.49081 -10.1275 0 -5.2699 0H355.426C361.638 0 366.347 5.605 365.276 11.7244L358.449 50.7244C357.611 55.5092 353.456 59 348.599 59H-12.0973C-18.3098 59 -23.0188 53.395 -21.9475 47.2756L-15.1201 8.27561Z" fill="#FFAF00"/>
</svg>
