<svg width="70" height="71" viewBox="0 0 70 71" fill="none" xmlns="http://www.w3.org/2000/svg">
<path d="M69.35 35.5C69.35 54.7558 53.9623 70.35 35 70.35C16.0377 70.35 0.65 54.7558 0.65 35.5C0.65 16.2442 16.0377 0.65 35 0.65C53.9623 0.65 69.35 16.2442 69.35 35.5Z" stroke="black" stroke-width="1.3"/>
<path d="M26.3496 36.2098L37.9803 24.3789C38.3824 23.9698 38.3824 23.3066 37.9803 22.8975C37.5781 22.4886 36.9262 22.4886 36.5241 22.8975L24.1652 35.4692C23.7631 35.8782 23.7631 36.5414 24.1652 36.9505L36.5241 49.5221C36.9332 49.9241 37.5852 49.9125 37.9803 49.4964C38.3658 49.0904 38.3658 48.4467 37.9803 48.0408L26.3496 36.2098Z" fill="black"/>
</svg>
