<svg width="70" height="71" viewBox="0 0 70 71" fill="none" xmlns="http://www.w3.org/2000/svg">
<path d="M0.650002 35.5C0.650002 54.7558 16.0377 70.35 35 70.35C53.9623 70.35 69.35 54.7558 69.35 35.5C69.35 16.2442 53.9623 0.65 35 0.65C16.0377 0.65 0.650002 16.2442 0.650002 35.5Z" stroke="black" stroke-width="1.3"/>
<path d="M42.0595 36.2098L30.4288 24.3789C30.0267 23.9698 30.0267 23.3066 30.4288 22.8975C30.831 22.4886 31.4829 22.4886 31.8851 22.8975L44.244 35.4692C44.646 35.8782 44.646 36.5414 44.244 36.9505L31.8851 49.5221C31.4759 49.9241 30.8239 49.9125 30.4288 49.4964C30.0434 49.0904 30.0434 48.4467 30.4288 48.0408L42.0595 36.2098Z" fill="black"/>
</svg>
