<svg width="73" height="60" viewBox="0 0 73 60" fill="none" xmlns="http://www.w3.org/2000/svg">
<g filter="url(#filter0_d)">
<rect x="2" width="65" height="26" rx="13" fill="white"/>
</g>
<path d="M47.2852 12.207H48.0996C48.6113 12.1992 49.0137 12.0645 49.3066 11.8027C49.5996 11.541 49.7461 11.1875 49.7461 10.7422C49.7461 9.74219 49.248 9.24219 48.252 9.24219C47.7832 9.24219 47.4082 9.37695 47.127 9.64648C46.8496 9.91211 46.7109 10.2656 46.7109 10.707H45.627C45.627 10.0312 45.873 9.4707 46.3652 9.02539C46.8613 8.57617 47.4902 8.35156 48.252 8.35156C49.0566 8.35156 49.6875 8.56445 50.1445 8.99023C50.6016 9.41602 50.8301 10.0078 50.8301 10.7656C50.8301 11.1367 50.709 11.4961 50.4668 11.8438C50.2285 12.1914 49.9023 12.4512 49.4883 12.623C49.957 12.7715 50.3184 13.0176 50.5723 13.3613C50.8301 13.7051 50.959 14.125 50.959 14.6211C50.959 15.3867 50.709 15.9941 50.209 16.4434C49.709 16.8926 49.0586 17.1172 48.2578 17.1172C47.457 17.1172 46.8047 16.9004 46.3008 16.4668C45.8008 16.0332 45.5508 15.4609 45.5508 14.75H46.6406C46.6406 15.1992 46.7871 15.5586 47.0801 15.8281C47.373 16.0977 47.7656 16.2324 48.2578 16.2324C48.7812 16.2324 49.1816 16.0957 49.459 15.8223C49.7363 15.5488 49.875 15.1562 49.875 14.6445C49.875 14.1484 49.7227 13.7676 49.418 13.502C49.1133 13.2363 48.6738 13.0996 48.0996 13.0918H47.2852V12.207ZM56.0098 17H54.9199V9.77539L52.7344 10.5781V9.59375L55.8398 8.42773H56.0098V17Z" fill="#B5B5B5"/>
<circle cx="33" cy="13" r="9" fill="url(#paint0_linear)"/>
<circle cx="17" cy="13" r="10" fill="url(#paint1_linear)" stroke="white" stroke-width="2"/>
<path d="M33.5 17C33.3719 17 33.2483 16.9536 33.1521 16.8694C32.7885 16.5517 32.438 16.2533 32.1287 15.9899L32.1271 15.9886C31.2204 15.2166 30.4374 14.5499 29.8926 13.8931C29.2837 13.159 29 12.4628 29 11.7024C29 10.9635 29.2536 10.2819 29.714 9.7829C30.1799 9.27805 30.8191 9 31.5142 9C32.0337 9 32.5095 9.1641 32.9283 9.4877C33.1396 9.65105 33.3312 9.85096 33.5 10.0841C33.6688 9.85096 33.8604 9.65105 34.0718 9.4877C34.4906 9.1641 34.9663 9 35.4858 9C36.1809 9 36.8202 9.27805 37.2861 9.7829C37.7465 10.2819 38 10.9635 38 11.7024C38 12.4628 37.7164 13.159 37.1074 13.8931C36.5626 14.5499 35.7797 15.2165 34.8732 15.9884C34.5633 16.2522 34.2123 16.5511 33.8479 16.8695C33.7517 16.9536 33.6281 17 33.5 17Z" fill="white"/>
<g clip-path="url(#clip0)">
<path d="M13.0417 11.375C12.4675 11.375 12 11.8425 12 12.4167V15.75C12 16.3242 12.4675 16.7917 13.0417 16.7917H14.2917C14.5262 16.7917 14.7421 16.7125 14.9167 16.5808V11.375H13.0417Z" fill="white"/>
<path d="M22 12.9372C22 12.6868 21.9009 12.4534 21.7288 12.2813C21.9234 12.0684 22.0225 11.783 21.9954 11.4859C21.9467 10.9563 21.4696 10.5413 20.9088 10.5413H18.335C18.4625 10.1542 18.6667 9.44467 18.6667 8.87467C18.6667 7.97092 17.8988 7.20801 17.4167 7.20801C16.9838 7.20801 16.6746 7.45176 16.6613 7.46176C16.6121 7.50135 16.5834 7.56135 16.5834 7.62467V9.03758L15.3834 11.6372L15.3334 11.6626V16.1284C15.6725 16.2884 16.1017 16.3747 16.375 16.3747H20.1996C20.6534 16.3747 21.0505 16.0688 21.1438 15.6468C21.1917 15.4297 21.1638 15.2109 21.0684 15.0209C21.3763 14.8659 21.5834 14.5488 21.5834 14.1872C21.5834 14.0397 21.5496 13.8984 21.4855 13.7705C21.7934 13.6155 22 13.2984 22 12.9372Z" fill="white"/>
</g>
<defs>
<filter id="filter0_d" x="0" y="0" width="69" height="30" filterUnits="userSpaceOnUse" color-interpolation-filters="sRGB">
<feFlood flood-opacity="0" result="BackgroundImageFix"/>
<feColorMatrix in="SourceAlpha" type="matrix" values="0 0 0 0 0 0 0 0 0 0 0 0 0 0 0 0 0 0 127 0"/>
<feOffset dy="2"/>
<feGaussianBlur stdDeviation="1"/>
<feColorMatrix type="matrix" values="0 0 0 0 0 0 0 0 0 0 0 0 0 0 0 0 0 0 0.25 0"/>
<feBlend mode="normal" in2="BackgroundImageFix" result="effect1_dropShadow"/>
<feBlend mode="normal" in="SourceGraphic" in2="effect1_dropShadow" result="shape"/>
</filter>
<linearGradient id="paint0_linear" x1="33" y1="4" x2="33" y2="22" gradientUnits="userSpaceOnUse">
<stop stop-color="#E36C7D"/>
<stop offset="1" stop-color="#D63E5B"/>
</linearGradient>
<linearGradient id="paint1_linear" x1="17" y1="4" x2="17" y2="22" gradientUnits="userSpaceOnUse">
<stop stop-color="#379BE1"/>
<stop offset="1" stop-color="#1F62E5"/>
</linearGradient>
<clipPath id="clip0">
<rect width="10" height="10" fill="white" transform="translate(12 7)"/>
</clipPath>
</defs>
</svg>
