<svg width="73" height="60" viewBox="0 0 73 60" fill="none" xmlns="http://www.w3.org/2000/svg">
<g filter="url(#filter0_d)">
<rect x="2" width="65" height="26" rx="13" fill="white"/>
</g>
<path d="M49.8633 13.25C49.6367 13.5195 49.3652 13.7363 49.0488 13.9004C48.7363 14.0645 48.3926 14.1465 48.0176 14.1465C47.5254 14.1465 47.0957 14.0254 46.7285 13.7832C46.3652 13.541 46.084 13.2012 45.8848 12.7637C45.6855 12.3223 45.5859 11.8359 45.5859 11.3047C45.5859 10.7344 45.6934 10.2207 45.9082 9.76367C46.127 9.30664 46.4355 8.95703 46.834 8.71484C47.2324 8.47266 47.6973 8.35156 48.2285 8.35156C49.0723 8.35156 49.7363 8.66797 50.2207 9.30078C50.709 9.92969 50.9531 10.7891 50.9531 11.8789V12.1953C50.9531 13.8555 50.625 15.0684 49.9688 15.834C49.3125 16.5957 48.3223 16.9863 46.998 17.0059H46.7871V16.0918H47.0156C47.9102 16.0762 48.5977 15.8438 49.0781 15.3945C49.5586 14.9414 49.8203 14.2266 49.8633 13.25ZM48.1934 13.25C48.5566 13.25 48.8906 13.1387 49.1953 12.916C49.5039 12.6934 49.7285 12.418 49.8691 12.0898V11.6562C49.8691 10.9453 49.7148 10.3672 49.4062 9.92188C49.0977 9.47656 48.707 9.25391 48.2344 9.25391C47.7578 9.25391 47.375 9.4375 47.0859 9.80469C46.7969 10.168 46.6523 10.6484 46.6523 11.2461C46.6523 11.8281 46.791 12.3086 47.0684 12.6875C47.3496 13.0625 47.7246 13.25 48.1934 13.25ZM58.0371 17H52.4473V16.2207L55.4004 12.9395C55.8379 12.4434 56.1387 12.041 56.3027 11.7324C56.4707 11.4199 56.5547 11.0977 56.5547 10.7656C56.5547 10.3203 56.4199 9.95508 56.1504 9.66992C55.8809 9.38477 55.5215 9.24219 55.0723 9.24219C54.5332 9.24219 54.1133 9.39648 53.8125 9.70508C53.5156 10.0098 53.3672 10.4355 53.3672 10.9824H52.2832C52.2832 10.1973 52.5352 9.5625 53.0391 9.07812C53.5469 8.59375 54.2246 8.35156 55.0723 8.35156C55.8652 8.35156 56.4922 8.56055 56.9531 8.97852C57.4141 9.39258 57.6445 9.94531 57.6445 10.6367C57.6445 11.4766 57.1094 12.4766 56.0391 13.6367L53.7539 16.1152H58.0371V17Z" fill="#B5B5B5"/>
<circle cx="33" cy="13" r="9" fill="url(#paint0_linear)"/>
<circle cx="17" cy="13" r="10" fill="url(#paint1_linear)" stroke="white" stroke-width="2"/>
<path d="M33.5 17C33.3719 17 33.2483 16.9536 33.1521 16.8694C32.7885 16.5517 32.438 16.2533 32.1287 15.9899L32.1271 15.9886C31.2204 15.2166 30.4374 14.5499 29.8926 13.8931C29.2837 13.159 29 12.4628 29 11.7024C29 10.9635 29.2536 10.2819 29.714 9.7829C30.1799 9.27805 30.8191 9 31.5142 9C32.0337 9 32.5095 9.1641 32.9283 9.4877C33.1396 9.65105 33.3312 9.85096 33.5 10.0841C33.6688 9.85096 33.8604 9.65105 34.0718 9.4877C34.4906 9.1641 34.9663 9 35.4858 9C36.1809 9 36.8202 9.27805 37.2861 9.7829C37.7465 10.2819 38 10.9635 38 11.7024C38 12.4628 37.7164 13.159 37.1074 13.8931C36.5626 14.5499 35.7797 15.2165 34.8732 15.9884C34.5633 16.2522 34.2123 16.5511 33.8479 16.8695C33.7517 16.9536 33.6281 17 33.5 17Z" fill="white"/>
<g clip-path="url(#clip0)">
<path d="M13.0417 11.375C12.4675 11.375 12 11.8425 12 12.4167V15.75C12 16.3242 12.4675 16.7917 13.0417 16.7917H14.2917C14.5262 16.7917 14.7421 16.7125 14.9167 16.5808V11.375H13.0417Z" fill="white"/>
<path d="M22 12.9372C22 12.6868 21.9009 12.4534 21.7288 12.2813C21.9234 12.0684 22.0225 11.783 21.9954 11.4859C21.9467 10.9563 21.4696 10.5413 20.9088 10.5413H18.335C18.4625 10.1542 18.6667 9.44467 18.6667 8.87467C18.6667 7.97092 17.8988 7.20801 17.4167 7.20801C16.9838 7.20801 16.6746 7.45176 16.6613 7.46176C16.6121 7.50135 16.5834 7.56135 16.5834 7.62467V9.03758L15.3834 11.6372L15.3334 11.6626V16.1284C15.6725 16.2884 16.1017 16.3747 16.375 16.3747H20.1996C20.6534 16.3747 21.0505 16.0688 21.1438 15.6468C21.1917 15.4297 21.1638 15.2109 21.0684 15.0209C21.3763 14.8659 21.5834 14.5488 21.5834 14.1872C21.5834 14.0397 21.5496 13.8984 21.4855 13.7705C21.7934 13.6155 22 13.2984 22 12.9372Z" fill="white"/>
</g>
<defs>
<filter id="filter0_d" x="0" y="0" width="69" height="30" filterUnits="userSpaceOnUse" color-interpolation-filters="sRGB">
<feFlood flood-opacity="0" result="BackgroundImageFix"/>
<feColorMatrix in="SourceAlpha" type="matrix" values="0 0 0 0 0 0 0 0 0 0 0 0 0 0 0 0 0 0 127 0"/>
<feOffset dy="2"/>
<feGaussianBlur stdDeviation="1"/>
<feColorMatrix type="matrix" values="0 0 0 0 0 0 0 0 0 0 0 0 0 0 0 0 0 0 0.25 0"/>
<feBlend mode="normal" in2="BackgroundImageFix" result="effect1_dropShadow"/>
<feBlend mode="normal" in="SourceGraphic" in2="effect1_dropShadow" result="shape"/>
</filter>
<linearGradient id="paint0_linear" x1="33" y1="4" x2="33" y2="22" gradientUnits="userSpaceOnUse">
<stop stop-color="#E36C7D"/>
<stop offset="1" stop-color="#D63E5B"/>
</linearGradient>
<linearGradient id="paint1_linear" x1="17" y1="4" x2="17" y2="22" gradientUnits="userSpaceOnUse">
<stop stop-color="#379BE1"/>
<stop offset="1" stop-color="#1F62E5"/>
</linearGradient>
<clipPath id="clip0">
<rect width="10" height="10" fill="white" transform="translate(12 7)"/>
</clipPath>
</defs>
</svg>
