<svg width="40" height="41" viewBox="0 0 40 41" fill="none" xmlns="http://www.w3.org/2000/svg">
<path opacity="0.15" d="M20 0.288695C31.0457 0.288695 40 9.243 40 20.2887C40 31.3344 31.0457 40.2887 20 40.2887C8.95431 40.2887 -3.91405e-07 31.3344 -8.74228e-07 20.2887C-1.35705e-06 9.243 8.9543 0.288696 20 0.288695ZM20 30.9541C25.8903 30.9541 30.6654 26.179 30.6654 20.2887C30.6654 14.3983 25.8903 9.62328 20 9.62328C14.1097 9.62328 9.33458 14.3983 9.33458 20.2887C9.33458 26.179 14.1097 30.9541 20 30.9541Z" fill="#308E61"/>
<path d="M20 0.288695C16.0444 0.288696 12.1776 1.46168 8.88859 3.65931C5.59961 5.85693 3.03616 8.9805 1.52241 12.635C0.00865562 16.2896 -0.387411 20.3109 0.384294 24.1905C1.156 28.0701 3.06081 31.6338 5.85786 34.4308C8.65491 37.2279 12.2186 39.1327 16.0982 39.9044C19.9778 40.6761 23.9991 40.28 27.6537 38.7663C31.3082 37.2525 34.4318 34.6891 36.6294 31.4001C38.827 28.1111 40 24.2443 40 20.2887L30.6654 20.2887C30.6654 22.3981 30.0399 24.4602 28.868 26.2141C27.696 27.968 26.0303 29.335 24.0815 30.1423C22.1326 30.9495 19.9882 31.1607 17.9193 30.7492C15.8504 30.3377 13.95 29.3219 12.4584 27.8303C10.9668 26.3387 9.95104 24.4383 9.53952 22.3694C9.12799 20.3005 9.3392 18.1561 10.1464 16.2072C10.9537 14.2584 12.3207 12.5927 14.0746 11.4207C15.8285 10.2488 17.8906 9.62328 20 9.62328L20 0.288695Z" fill="#308E61"/>
</svg>
