<svg width="90" height="91" viewBox="0 0 90 91" fill="none" xmlns="http://www.w3.org/2000/svg">
<circle opacity="0.5" cx="45" cy="45.5" r="45" fill="url(#paint0_linear)"/>
<circle opacity="0.5" cx="45" cy="45.5" r="35" fill="url(#paint1_linear)"/>
<g clip-path="url(#clip0)">
<path d="M57.1406 51.7812C55.9481 51.7812 54.8383 52.1402 53.9117 52.7545L49.901 48.7438C50.7205 47.594 51.2031 46.1883 51.2031 44.6719C51.2031 43.9602 51.0965 43.273 50.8989 42.6251L54.7764 40.7127C55.6366 41.7013 56.9023 42.3281 58.3125 42.3281C60.8972 42.3281 63 40.2253 63 37.6406C63 35.0559 60.8972 32.9531 58.3125 32.9531C55.7278 32.9531 53.625 35.0559 53.625 37.6406C53.625 37.9752 53.6609 38.3016 53.7279 38.6165L49.8495 40.5294C48.7888 39.0795 47.187 38.0494 45.3438 37.7388V32.7266C47.3632 32.2049 48.8594 30.3677 48.8594 28.1875C48.8594 25.6028 46.7566 23.5 44.1719 23.5C41.5872 23.5 39.4844 25.6028 39.4844 28.1875C39.4844 30.3677 40.9805 32.205 43 32.7266V37.7388C40.9255 38.0884 39.1567 39.3494 38.121 41.0945L34.6384 39.7742C34.6904 39.4611 34.7188 39.1401 34.7188 38.8125C34.7188 35.5816 32.0902 32.9531 28.8594 32.9531C25.6285 32.9531 23 35.5816 23 38.8125C23 42.0434 25.6285 44.6719 28.8594 44.6719C30.9316 44.6719 32.7546 43.5896 33.7967 41.9616L37.2789 43.2818C37.1884 43.7313 37.1406 44.1961 37.1406 44.6719C37.1406 46.6879 37.9938 48.5082 39.3577 49.7915L36.3331 54.3848C35.8515 54.2173 35.3349 54.125 34.7969 54.125C32.2122 54.125 30.1094 56.2278 30.1094 58.8125C30.1094 61.3972 32.2122 63.5 34.7969 63.5C37.3816 63.5 39.4844 61.3972 39.4844 58.8125C39.4844 57.6113 39.0297 56.5144 38.284 55.6841L41.3073 51.0926C42.1827 51.4847 43.1522 51.7031 44.1719 51.7031C45.6882 51.7031 47.094 51.2205 48.2437 50.401L52.2545 54.4117C51.6402 55.3383 51.2812 56.4481 51.2812 57.6406C51.2812 60.8715 53.9098 63.5 57.1406 63.5C60.3715 63.5 63 60.8715 63 57.6406C63 54.4098 60.3715 51.7812 57.1406 51.7812ZM58.3125 35.2969C59.6048 35.2969 60.6562 36.3483 60.6562 37.6406C60.6562 38.933 59.6048 39.9844 58.3125 39.9844C57.0202 39.9844 55.9688 38.933 55.9688 37.6406C55.9688 36.3483 57.0202 35.2969 58.3125 35.2969ZM28.8594 42.3281C26.9209 42.3281 25.3438 40.751 25.3438 38.8125C25.3438 36.874 26.9209 35.2969 28.8594 35.2969C30.7979 35.2969 32.375 36.874 32.375 38.8125C32.375 40.751 30.7979 42.3281 28.8594 42.3281ZM34.7969 61.1562C33.5045 61.1562 32.4531 60.1048 32.4531 58.8125C32.4531 57.5202 33.5045 56.4688 34.7969 56.4688C35.2788 56.4688 35.727 56.6151 36.0999 56.8655C36.1006 56.8659 36.1012 56.8665 36.102 56.867C36.1035 56.868 36.1052 56.8688 36.1067 56.8698C36.7301 57.2914 37.1406 58.0049 37.1406 58.8125C37.1406 60.1048 36.0892 61.1562 34.7969 61.1562ZM41.8281 28.1875C41.8281 26.8952 42.8795 25.8438 44.1719 25.8438C45.4642 25.8438 46.5156 26.8952 46.5156 28.1875C46.5156 29.4798 45.4643 30.5312 44.172 30.5312H44.1719H44.1718C42.8795 30.5312 41.8281 29.4798 41.8281 28.1875ZM47.4912 47.9783C47.489 47.9805 47.4866 47.9823 47.4844 47.9844C47.4822 47.9865 47.4804 47.989 47.4782 47.9912C46.63 48.8362 45.4609 49.3594 44.1719 49.3594C43.209 49.3594 42.3132 49.0672 41.5678 48.5673C41.5676 48.5672 41.5674 48.567 41.5672 48.5669C41.5668 48.5666 41.5664 48.5665 41.5661 48.5662C40.3117 47.7241 39.4844 46.293 39.4844 44.6719C39.4844 42.0872 41.5872 39.9844 44.1719 39.9844C46.7566 39.9844 48.8594 42.0872 48.8594 44.6719C48.8594 45.9609 48.3362 47.13 47.4912 47.9783ZM57.1406 61.1562C55.2021 61.1562 53.625 59.5791 53.625 57.6406C53.625 55.7021 55.2021 54.125 57.1406 54.125C59.0791 54.125 60.6562 55.7021 60.6562 57.6406C60.6562 59.5791 59.0791 61.1562 57.1406 61.1562Z" fill="white"/>
</g>
<defs>
<linearGradient id="paint0_linear" x1="45" y1="0.5" x2="45" y2="90.5" gradientUnits="userSpaceOnUse">
<stop stop-color="#FFB000"/>
<stop offset="1" stop-color="#F3ED4E"/>
</linearGradient>
<linearGradient id="paint1_linear" x1="45" y1="10.5" x2="45" y2="80.5" gradientUnits="userSpaceOnUse">
<stop stop-color="#FFB000"/>
<stop offset="1" stop-color="#F3ED4E"/>
</linearGradient>
<clipPath id="clip0">
<rect width="40" height="40" fill="white" transform="translate(23 23.5)"/>
</clipPath>
</defs>
</svg>
